G04 EAGLE Gerber RS-274X export*
G75*
%MOMM*%
%FSLAX34Y34*%
%LPD*%
%INTop Copper*%
%IPPOS*%
%AMOC8*
5,1,8,0,0,1.08239X$1,22.5*%
G01*
%ADD10R,1.016000X1.143000*%
%ADD11R,0.650000X0.460000*%
%ADD12R,0.900000X0.800000*%
%ADD13R,0.250000X0.495000*%
%ADD14R,0.250000X0.600000*%
%ADD15R,0.495000X0.250000*%
%ADD16R,0.600000X0.250000*%
%ADD17R,1.200000X0.550000*%
%ADD18R,0.900000X1.500000*%
%ADD19R,1.500000X0.900000*%
%ADD20R,6.000000X6.000000*%
%ADD21R,0.600000X1.200000*%
%ADD22R,0.700000X0.600000*%
%ADD23R,0.600000X0.700000*%
%ADD24R,0.460000X0.650000*%
%ADD25R,1.000000X1.100000*%
%ADD26R,1.100000X1.000000*%
%ADD27R,1.050000X0.400000*%
%ADD28R,1.900000X1.000000*%
%ADD29R,1.000000X1.350000*%
%ADD30R,1.060000X0.650000*%
%ADD31R,3.499994X1.799997*%
%ADD32R,2.699994X0.999997*%
%ADD33R,0.800000X0.800000*%
%ADD34R,2.450000X1.000000*%
%ADD35R,1.000000X2.450000*%
%ADD36R,11.000000X9.000000*%
%ADD37C,4.032000*%
%ADD38R,0.300000X1.140000*%
%ADD39R,0.500000X1.140000*%
%ADD40R,0.500000X1.150000*%
%ADD41R,0.500000X1.050000*%
%ADD42C,0.254000*%
%ADD43C,0.508000*%
%ADD44C,1.016000*%
%ADD45C,1.117600*%
%ADD46C,0.349250*%
%ADD47C,0.762000*%
%ADD48C,0.381000*%

G36*
X83132Y444731D02*
X83132Y444731D01*
X83131Y444731D01*
X83132Y444732D01*
X83132Y447732D01*
X83122Y447744D01*
X83121Y447743D01*
X83120Y447744D01*
X80620Y447744D01*
X80608Y447734D01*
X80609Y447733D01*
X80608Y447732D01*
X80608Y445782D01*
X80612Y445778D01*
X80612Y445774D01*
X81662Y444724D01*
X81667Y444723D01*
X81670Y444720D01*
X83120Y444720D01*
X83132Y444731D01*
G37*
G36*
X106882Y421481D02*
X106882Y421481D01*
X106881Y421481D01*
X106882Y421482D01*
X106882Y423982D01*
X106872Y423994D01*
X106871Y423993D01*
X106870Y423994D01*
X103870Y423994D01*
X103858Y423984D01*
X103859Y423983D01*
X103858Y423982D01*
X103858Y422532D01*
X103862Y422528D01*
X103862Y422524D01*
X104912Y421474D01*
X104917Y421473D01*
X104920Y421470D01*
X106870Y421470D01*
X106882Y421481D01*
G37*
G36*
X102074Y444724D02*
X102074Y444724D01*
X102078Y444724D01*
X103128Y445774D01*
X103129Y445778D01*
X103132Y445781D01*
X103131Y445782D01*
X103132Y445782D01*
X103132Y447732D01*
X103122Y447744D01*
X103121Y447743D01*
X103120Y447744D01*
X100620Y447744D01*
X100608Y447734D01*
X100609Y447733D01*
X100608Y447732D01*
X100608Y444732D01*
X100619Y444720D01*
X100619Y444721D01*
X100620Y444720D01*
X102070Y444720D01*
X102074Y444724D01*
G37*
G36*
X78824Y421474D02*
X78824Y421474D01*
X78828Y421474D01*
X79878Y422524D01*
X79879Y422528D01*
X79882Y422531D01*
X79881Y422532D01*
X79882Y422532D01*
X79882Y423982D01*
X79872Y423994D01*
X79871Y423993D01*
X79870Y423994D01*
X76870Y423994D01*
X76858Y423984D01*
X76859Y423983D01*
X76858Y423982D01*
X76858Y421482D01*
X76869Y421470D01*
X76869Y421471D01*
X76870Y421470D01*
X78820Y421470D01*
X78824Y421474D01*
G37*
G36*
X106882Y441481D02*
X106882Y441481D01*
X106881Y441481D01*
X106882Y441482D01*
X106882Y443982D01*
X106872Y443994D01*
X106871Y443993D01*
X106870Y443994D01*
X104920Y443994D01*
X104916Y443990D01*
X104912Y443990D01*
X103862Y442940D01*
X103861Y442935D01*
X103858Y442932D01*
X103858Y441482D01*
X103869Y441470D01*
X103869Y441471D01*
X103870Y441470D01*
X106870Y441470D01*
X106882Y441481D01*
G37*
G36*
X83132Y417731D02*
X83132Y417731D01*
X83131Y417731D01*
X83132Y417732D01*
X83132Y420732D01*
X83122Y420744D01*
X83121Y420743D01*
X83120Y420744D01*
X81670Y420744D01*
X81666Y420740D01*
X81662Y420740D01*
X80612Y419690D01*
X80611Y419685D01*
X80608Y419682D01*
X80608Y417732D01*
X80619Y417720D01*
X80619Y417721D01*
X80620Y417720D01*
X83120Y417720D01*
X83132Y417731D01*
G37*
G36*
X79882Y441481D02*
X79882Y441481D01*
X79881Y441481D01*
X79882Y441482D01*
X79882Y442932D01*
X79878Y442936D01*
X79878Y442940D01*
X78828Y443990D01*
X78823Y443991D01*
X78820Y443994D01*
X76870Y443994D01*
X76858Y443984D01*
X76859Y443983D01*
X76858Y443982D01*
X76858Y441482D01*
X76869Y441470D01*
X76869Y441471D01*
X76870Y441470D01*
X79870Y441470D01*
X79882Y441481D01*
G37*
G36*
X103132Y417731D02*
X103132Y417731D01*
X103131Y417731D01*
X103132Y417732D01*
X103132Y419682D01*
X103128Y419686D01*
X103128Y419690D01*
X102078Y420740D01*
X102073Y420741D01*
X102070Y420744D01*
X100620Y420744D01*
X100608Y420734D01*
X100609Y420733D01*
X100608Y420732D01*
X100608Y417732D01*
X100619Y417720D01*
X100619Y417721D01*
X100620Y417720D01*
X103120Y417720D01*
X103132Y417731D01*
G37*
D10*
X412360Y162430D03*
X402860Y182750D03*
X421860Y182750D03*
D11*
X42926Y439924D03*
X42926Y449924D03*
X31426Y444924D03*
D12*
X205646Y657454D03*
X205646Y638454D03*
X226646Y647954D03*
D10*
X466208Y158366D03*
X456708Y178686D03*
X475708Y178686D03*
D13*
X81870Y417207D03*
D14*
X85870Y417732D03*
X89870Y417732D03*
X93870Y417732D03*
X97870Y417732D03*
D13*
X101870Y417207D03*
D15*
X107395Y422732D03*
D16*
X106870Y426732D03*
X106870Y430732D03*
X106870Y434732D03*
X106870Y438732D03*
D15*
X107395Y442732D03*
D13*
X101870Y448257D03*
D14*
X97870Y447732D03*
X93870Y447732D03*
X89870Y447732D03*
X85870Y447732D03*
D13*
X81870Y448257D03*
D15*
X76345Y442732D03*
D16*
X76870Y438732D03*
X76870Y434732D03*
X76870Y430732D03*
X76870Y426732D03*
D15*
X76345Y422732D03*
D17*
X251507Y723798D03*
X251507Y733298D03*
X251507Y742798D03*
X225505Y742798D03*
X225505Y723798D03*
D18*
X462238Y485722D03*
X449538Y485722D03*
X436838Y485722D03*
X424138Y485722D03*
X411438Y485722D03*
X398738Y485722D03*
X386038Y485722D03*
X373338Y485722D03*
X360638Y485722D03*
X347938Y485722D03*
X335238Y485722D03*
X322538Y485722D03*
X309838Y485722D03*
X297138Y485722D03*
D19*
X282238Y452872D03*
X282238Y440172D03*
X282238Y427472D03*
X282238Y414772D03*
X282238Y402072D03*
X282238Y389372D03*
X282238Y376672D03*
X282238Y363972D03*
X282238Y351272D03*
X282238Y338572D03*
D18*
X297138Y305722D03*
X309838Y305722D03*
X322538Y305722D03*
X335238Y305722D03*
X347938Y305722D03*
X360638Y305722D03*
X373338Y305722D03*
X386038Y305722D03*
X398738Y305722D03*
X411438Y305722D03*
X424138Y305722D03*
X436838Y305722D03*
X449538Y305722D03*
X462238Y305722D03*
D20*
X385238Y395722D03*
D21*
X113246Y593098D03*
X100546Y593098D03*
X87846Y593098D03*
X75146Y593098D03*
X62446Y593098D03*
X49746Y593098D03*
X37046Y593098D03*
X24346Y593098D03*
X24346Y537098D03*
X37046Y537098D03*
X49746Y537098D03*
X62446Y537098D03*
X75146Y537098D03*
X87846Y537098D03*
X100546Y537098D03*
X113246Y537098D03*
D22*
X56564Y450178D03*
X56564Y440178D03*
D23*
X32768Y463720D03*
X42768Y463720D03*
D11*
X146402Y405474D03*
X146402Y395474D03*
X157902Y400474D03*
D22*
X134034Y395728D03*
X134034Y405728D03*
X171118Y399886D03*
X171118Y389886D03*
D24*
X82900Y386328D03*
X72900Y386328D03*
X77900Y374828D03*
D23*
X72900Y398188D03*
X82900Y398188D03*
D22*
X94410Y374994D03*
X94410Y364994D03*
D11*
X43180Y403856D03*
X43180Y413856D03*
X31680Y408856D03*
D22*
X55294Y413856D03*
X55294Y403856D03*
D23*
X30482Y389044D03*
X40482Y389044D03*
D11*
X142592Y459576D03*
X142592Y449576D03*
X154092Y454576D03*
D22*
X130224Y449830D03*
X130224Y459830D03*
X178484Y454750D03*
X178484Y444750D03*
D24*
X105666Y477866D03*
X115666Y477866D03*
X110666Y489366D03*
D23*
X115666Y463466D03*
X105666Y463466D03*
X109824Y504360D03*
X99824Y504360D03*
D25*
X410346Y240538D03*
X427346Y240538D03*
X384692Y208026D03*
X401692Y208026D03*
D26*
X195326Y741290D03*
X195326Y724290D03*
D22*
X173482Y666162D03*
X173482Y656162D03*
X236384Y558188D03*
X236384Y568188D03*
D25*
X340360Y159382D03*
X357360Y159382D03*
D26*
X338706Y51308D03*
X338706Y34308D03*
D25*
X142494Y569858D03*
X142494Y586858D03*
X160274Y721496D03*
X160274Y738496D03*
D26*
X279264Y696976D03*
X262264Y696976D03*
D27*
X109522Y639092D03*
X109522Y632592D03*
X109522Y626092D03*
X128522Y626092D03*
X128522Y632592D03*
X128522Y639092D03*
D25*
X459362Y41148D03*
X459362Y58148D03*
D28*
X433900Y33462D03*
X433900Y72462D03*
X361900Y72462D03*
X361900Y33462D03*
X362644Y140274D03*
X362644Y101274D03*
X434644Y101274D03*
X434644Y140274D03*
D29*
X354212Y630936D03*
X371212Y630936D03*
D30*
X339168Y602132D03*
X339168Y621132D03*
X317168Y621132D03*
X317168Y611632D03*
X317168Y602132D03*
D26*
X361324Y602488D03*
X378324Y602488D03*
X191126Y589534D03*
X174126Y589534D03*
D25*
X293116Y580000D03*
X293116Y563000D03*
X270764Y580762D03*
X270764Y563762D03*
D30*
X271350Y600862D03*
X271350Y619862D03*
X249350Y619862D03*
X249350Y610362D03*
X249350Y600862D03*
X271350Y610362D03*
D23*
X261446Y640842D03*
X271446Y640842D03*
D25*
X216662Y611242D03*
X216662Y594242D03*
X287782Y626228D03*
X287782Y609228D03*
X177410Y696468D03*
X160410Y696468D03*
D31*
X360578Y737080D03*
X360578Y670080D03*
D32*
X316078Y713580D03*
X316078Y693580D03*
D33*
X208908Y694690D03*
X223908Y694690D03*
X215018Y558292D03*
X200018Y558292D03*
D34*
X238030Y131542D03*
X238030Y117542D03*
X238030Y145542D03*
X238030Y159542D03*
X238030Y173542D03*
X238030Y187542D03*
X238030Y201542D03*
X238030Y215542D03*
D35*
X210030Y103542D03*
X196030Y103542D03*
X182030Y103542D03*
X168030Y103542D03*
X154030Y103542D03*
X140030Y103542D03*
X210030Y229542D03*
X196030Y229542D03*
X182030Y229542D03*
X168030Y229542D03*
X154030Y229542D03*
X126030Y229542D03*
X140030Y229542D03*
X126030Y103542D03*
X112030Y103542D03*
X112030Y229542D03*
D36*
X163030Y166542D03*
D25*
X282180Y71862D03*
X282180Y54862D03*
X241554Y71492D03*
X241554Y54492D03*
X219964Y72000D03*
X219964Y55000D03*
D26*
X144297Y46092D03*
X144297Y29092D03*
X121158Y34154D03*
X121158Y17154D03*
X166878Y57268D03*
X166878Y40268D03*
X139192Y285868D03*
X139192Y268868D03*
D37*
X521208Y252984D03*
X521970Y208788D03*
X523748Y165100D03*
X523240Y120142D03*
X523494Y75946D03*
X522986Y31750D03*
X515366Y552196D03*
X515366Y600202D03*
D38*
X68620Y683014D03*
X73620Y683014D03*
X63620Y683014D03*
X58620Y683014D03*
X53620Y683014D03*
X78620Y683014D03*
X83620Y683014D03*
X88620Y683014D03*
D39*
X95120Y683014D03*
D40*
X47120Y683014D03*
D39*
X39120Y683014D03*
X103120Y683014D03*
D23*
X135302Y670560D03*
X125302Y670560D03*
X31830Y649478D03*
X41830Y649478D03*
D41*
X173533Y618337D03*
X173533Y641097D03*
D25*
X199136Y71898D03*
X199136Y54898D03*
D26*
X444636Y510438D03*
X461636Y510438D03*
D25*
X111150Y402505D03*
X111150Y385505D03*
X90627Y465972D03*
X90627Y482972D03*
D26*
X131505Y434645D03*
X148505Y434645D03*
D42*
X76870Y438732D02*
X71138Y438732D01*
X69772Y440098D02*
X69772Y454830D01*
X81964Y454830D01*
X69772Y440098D02*
X71138Y438732D01*
X81870Y448257D02*
X81870Y454736D01*
X81964Y454830D01*
D43*
X315644Y610108D02*
X317168Y611632D01*
D44*
X118872Y593098D02*
X113246Y593098D01*
X118872Y593098D02*
X136254Y593098D01*
D45*
X58928Y478790D03*
D46*
X58928Y465328D01*
X69426Y454830D02*
X69772Y454830D01*
X69426Y454830D02*
X58928Y465328D01*
X210030Y103542D02*
X218608Y94964D01*
X247142Y94964D01*
D45*
X247142Y94964D03*
D46*
X282180Y54862D02*
X282064Y54746D01*
X116332Y261112D02*
X116332Y277876D01*
X116840Y278384D01*
D45*
X116840Y278384D03*
D46*
X124324Y285868D02*
X139192Y285868D01*
X124324Y285868D02*
X116840Y278384D01*
D45*
X154432Y256540D03*
D46*
X116454Y632592D02*
X109522Y632592D01*
X118872Y630174D02*
X118872Y593098D01*
X118872Y630174D02*
X116454Y632592D01*
D44*
X177038Y741290D02*
X195326Y741290D01*
X176784Y741544D02*
X163322Y741544D01*
X160274Y738496D01*
X176784Y741544D02*
X177038Y741290D01*
X177038Y735212D01*
D45*
X177038Y735212D03*
D43*
X251507Y733298D02*
X259588Y733298D01*
X264414Y728472D01*
X264414Y713994D01*
D45*
X264414Y713994D03*
D43*
X264414Y699126D01*
X262264Y696976D01*
X316078Y713580D02*
X316078Y727042D01*
X300736Y742384D01*
X300736Y742950D01*
D45*
X300736Y742950D03*
D43*
X182706Y675386D02*
X173482Y666162D01*
X182706Y675386D02*
X187706Y675386D01*
D45*
X187706Y675386D03*
D43*
X378324Y602488D02*
X393954Y602488D01*
X394208Y602234D01*
D45*
X394208Y602234D03*
D47*
X288916Y610362D02*
X287782Y609228D01*
X290186Y611632D02*
X317168Y611632D01*
X288916Y610362D02*
X271350Y610362D01*
X288916Y610362D02*
X290186Y611632D01*
X287782Y609228D02*
X287782Y596510D01*
X287528Y596256D01*
D45*
X287528Y596256D03*
D43*
X200018Y558292D02*
X197478Y555752D01*
X181356Y555752D01*
D45*
X181356Y555752D03*
X311912Y561848D03*
D44*
X171450Y586858D02*
X142494Y586858D01*
X171450Y586858D02*
X174126Y589534D01*
X142494Y586858D02*
X136254Y593098D01*
X144018Y600862D01*
X144018Y604012D01*
D45*
X144018Y604012D03*
D44*
X229108Y224464D02*
X238030Y215542D01*
X229108Y224464D02*
X229108Y229616D01*
D45*
X229108Y229616D03*
D46*
X462238Y287232D02*
X462238Y305722D01*
X462238Y287232D02*
X462026Y287020D01*
D45*
X462026Y287020D03*
D44*
X436412Y72462D02*
X433900Y72462D01*
X436412Y72462D02*
X450726Y58148D01*
X459362Y58148D01*
X434644Y73206D02*
X433900Y72462D01*
X434644Y73478D02*
X434644Y89916D01*
X434644Y101274D01*
X362644Y73206D02*
X361900Y72462D01*
X434644Y89916D02*
X437946Y86614D01*
X453136Y86614D01*
D45*
X453136Y86614D03*
D44*
X316078Y713580D02*
X309278Y713580D01*
X296418Y726440D01*
D45*
X296418Y726440D03*
D44*
X362644Y101274D02*
X362644Y82228D01*
X420746Y87376D02*
X434644Y101274D01*
X420746Y87376D02*
X367792Y87376D01*
X362644Y92524D01*
X362644Y101274D01*
X367792Y87376D02*
X362644Y82228D01*
X362644Y73206D01*
X420746Y87376D02*
X432104Y87376D01*
X434644Y89916D01*
X420746Y87376D02*
X434644Y73478D01*
X434644Y73206D01*
D47*
X282180Y54862D02*
X281846Y54862D01*
X281810Y54898D01*
X220472Y54492D02*
X219964Y55000D01*
X219202Y54238D01*
D44*
X294268Y561848D02*
X311912Y561848D01*
X294268Y561848D02*
X293116Y563000D01*
X271526Y563000D01*
X270764Y563762D01*
X290830Y467360D02*
X282238Y458768D01*
D45*
X290830Y467360D03*
D47*
X282238Y458768D02*
X282238Y452872D01*
D46*
X154432Y256540D02*
X154030Y256138D01*
X153924Y256032D01*
X154030Y256138D02*
X154030Y229542D01*
X126030Y251414D02*
X116332Y261112D01*
X126030Y251414D02*
X126030Y229542D01*
X112030Y229542D01*
D43*
X39120Y675390D02*
X39120Y683014D01*
X39120Y675390D02*
X29718Y665988D01*
X29718Y651590D01*
X31830Y649478D01*
X31830Y638382D01*
X26162Y632714D01*
D45*
X26162Y632714D03*
D43*
X26162Y614934D01*
D45*
X26162Y614934D03*
D43*
X135302Y670560D02*
X135302Y692832D01*
X135636Y693166D01*
D45*
X135636Y693166D03*
D44*
X199238Y55000D02*
X219964Y55000D01*
X199238Y55000D02*
X199136Y54898D01*
X219964Y55000D02*
X241046Y55000D01*
X241554Y54492D01*
X261146Y54492D01*
X261315Y54661D01*
D45*
X261315Y54661D03*
D44*
X281810Y54492D02*
X282180Y54862D01*
X281810Y54492D02*
X261146Y54492D01*
X462238Y485722D02*
X462238Y509836D01*
X461636Y510438D01*
X461636Y523206D01*
X469392Y530962D01*
D45*
X469392Y530962D03*
D47*
X118094Y378562D02*
X111150Y385505D01*
X118094Y378562D02*
X123139Y378562D01*
D45*
X123139Y378562D03*
D47*
X58928Y478790D02*
X63110Y482972D01*
X90627Y482972D01*
X148505Y434645D02*
X155245Y434645D01*
X164389Y443789D01*
D45*
X164389Y443789D03*
D44*
X270764Y580762D02*
X271096Y581094D01*
X270764Y580762D02*
X266376Y576374D01*
X262818Y576374D01*
X142494Y569858D02*
X142494Y566346D01*
X75146Y583730D02*
X75146Y593098D01*
X75146Y583730D02*
X113246Y545630D01*
D47*
X271350Y581348D02*
X271350Y600862D01*
X271350Y581348D02*
X270764Y580762D01*
D45*
X441682Y534006D03*
D44*
X449538Y470366D02*
X449072Y469900D01*
D45*
X449072Y469900D03*
D44*
X330708Y211328D02*
X284988Y211328D01*
X42588Y478620D02*
X42588Y492506D01*
X42588Y478620D02*
X42672Y478536D01*
D45*
X42672Y478536D03*
X45974Y378968D03*
D44*
X60960Y363982D01*
D45*
X156718Y381000D03*
X178816Y428498D03*
D44*
X271096Y581094D02*
X292022Y581094D01*
X293116Y580000D01*
X311268Y580000D01*
X311912Y580644D01*
D45*
X311912Y580644D03*
D44*
X330708Y211328D02*
X340360Y201676D01*
X340360Y159382D01*
X338706Y51308D02*
X338582Y49146D01*
X340360Y50924D02*
X340360Y159382D01*
X340360Y50924D02*
X338582Y49146D01*
D45*
X340360Y201676D03*
D44*
X219964Y72000D02*
X219202Y71238D01*
X219964Y72000D02*
X241046Y72000D01*
X241554Y71492D01*
X178816Y428498D02*
X184150Y433832D01*
X184150Y439084D01*
X162232Y381000D02*
X156718Y381000D01*
X142494Y569858D02*
X182762Y569858D01*
X186182Y573278D02*
X231294Y573278D01*
X186182Y573278D02*
X182762Y569858D01*
X113246Y537098D02*
X113246Y527012D01*
X99712Y513478D01*
X113246Y537098D02*
X113246Y545630D01*
X113246Y540610D02*
X142494Y569858D01*
X113246Y540610D02*
X113246Y537098D01*
X48684Y498602D02*
X42588Y492506D01*
X48684Y498602D02*
X93954Y498602D01*
X42768Y478440D02*
X42672Y478536D01*
X254632Y568188D02*
X262818Y576374D01*
X93398Y363982D02*
X60960Y363982D01*
X282180Y71862D02*
X281810Y71492D01*
X282180Y71862D02*
X282180Y84623D01*
X282194Y84637D01*
X282194Y208534D01*
X284988Y211328D01*
X282180Y71862D02*
X241924Y71862D01*
X241554Y71492D01*
X182030Y103542D02*
X168030Y103542D01*
X182030Y103542D02*
X196030Y103542D01*
X182030Y103542D02*
X181522Y103034D01*
X181522Y78828D01*
D47*
X184150Y439084D02*
X178484Y444750D01*
X99712Y504472D02*
X99712Y513478D01*
X99712Y504472D02*
X99824Y504360D01*
X99712Y504360D01*
X93954Y498602D01*
X42768Y478440D02*
X42768Y463720D01*
X40482Y384460D02*
X45974Y378968D01*
X40482Y384460D02*
X40482Y389044D01*
X162232Y381000D02*
X171118Y389886D01*
X236384Y568188D02*
X231294Y573278D01*
X236384Y568188D02*
X254632Y568188D01*
X94410Y364994D02*
X93398Y363982D01*
D44*
X219964Y72000D02*
X219862Y71898D01*
X199136Y71898D01*
X188452Y71898D01*
X181522Y78828D01*
X444636Y531052D02*
X441682Y534006D01*
X444636Y531052D02*
X444636Y510438D01*
X444636Y505121D01*
X449538Y500219D02*
X449538Y485722D01*
X449538Y500219D02*
X444636Y505121D01*
X449538Y485722D02*
X449538Y470366D01*
D42*
X109522Y639092D02*
X109474Y639140D01*
D43*
X133858Y647700D02*
X140716Y654558D01*
X133858Y647700D02*
X111760Y647700D01*
D44*
X140716Y654558D02*
X142208Y656050D01*
X153162Y656050D01*
X153162Y689220D01*
X160410Y696468D01*
X160410Y721360D01*
X160274Y721496D01*
D45*
X177546Y716534D03*
D44*
X172267Y721496D02*
X160274Y721496D01*
X172267Y721496D02*
X172521Y721242D01*
X172838Y721242D01*
X177546Y716534D01*
D45*
X212598Y737768D03*
D44*
X220475Y737768D01*
X225505Y742798D01*
D48*
X111760Y647700D02*
X109522Y645462D01*
X109522Y639092D01*
D43*
X111760Y647700D02*
X95120Y664340D01*
X95120Y683014D01*
D44*
X153162Y656050D02*
X153384Y655828D01*
X163068Y655828D01*
X203512Y655320D02*
X205646Y657454D01*
X203512Y655320D02*
X183642Y655320D01*
D47*
X173148Y655828D02*
X163068Y655828D01*
X173148Y655828D02*
X173482Y656162D01*
X174324Y655320D02*
X183642Y655320D01*
X174324Y655320D02*
X173482Y656162D01*
X173533Y656111D01*
X173533Y641097D01*
D42*
X63620Y683014D02*
X63620Y689884D01*
X65752Y692016D01*
X68834Y692016D02*
X71488Y692016D01*
X68834Y692016D02*
X65752Y692016D01*
X71488Y692016D02*
X73620Y689884D01*
X73620Y683014D01*
X68834Y692016D02*
X68834Y696334D01*
D45*
X68834Y696334D03*
X62992Y574548D03*
D42*
X62992Y592552D01*
X62446Y593098D01*
D45*
X80010Y623316D03*
D42*
X107000Y623570D02*
X109522Y626092D01*
X107000Y623570D02*
X80264Y623570D01*
X80010Y623316D01*
X68620Y676144D02*
X68620Y683014D01*
X68620Y676144D02*
X70752Y674012D01*
X74168Y674012D02*
X76488Y674012D01*
X74168Y674012D02*
X70752Y674012D01*
X76488Y674012D02*
X78620Y676144D01*
X78620Y683014D01*
D45*
X58674Y645922D03*
X44704Y566928D03*
D42*
X58674Y645922D02*
X74168Y661416D01*
X74168Y674012D01*
X49746Y593098D02*
X44704Y588056D01*
X44704Y566928D01*
D45*
X143256Y638556D03*
D42*
X129058Y638556D01*
X128522Y639092D01*
D45*
X93156Y638240D03*
D42*
X74168Y649224D02*
X74168Y661416D01*
X85152Y638240D02*
X93156Y638240D01*
X85152Y638240D02*
X74168Y649224D01*
D47*
X134034Y405728D02*
X146148Y405728D01*
X146402Y405474D01*
X56564Y440178D02*
X56310Y439924D01*
X42926Y439924D01*
D42*
X101870Y448257D02*
X101870Y459670D01*
X105666Y463466D01*
X106870Y426732D02*
X113110Y426732D01*
D44*
X371212Y621656D02*
X371212Y630936D01*
X361324Y611768D02*
X361324Y602488D01*
X361324Y611768D02*
X371212Y621656D01*
X146304Y541020D02*
X130810Y525526D01*
X130810Y503428D01*
D45*
X130810Y503428D03*
X138938Y473710D03*
X76200Y467614D03*
X55880Y428752D03*
D44*
X55880Y439494D01*
X56310Y439924D01*
D45*
X59436Y389890D03*
X96012Y397764D03*
X150622Y419862D03*
D44*
X152146Y418338D01*
X152146Y411726D01*
X146148Y405728D01*
X361324Y563762D02*
X361324Y602488D01*
X338582Y541020D02*
X146304Y541020D01*
X338582Y541020D02*
X361324Y563762D01*
X142592Y459576D02*
X142338Y459830D01*
X136652Y459830D01*
X138938Y463230D02*
X142592Y459576D01*
X138938Y463230D02*
X138938Y473710D01*
D47*
X55294Y403856D02*
X43180Y403856D01*
X82900Y398188D02*
X82900Y386328D01*
X83324Y397764D02*
X96012Y397764D01*
X83324Y397764D02*
X82900Y398188D01*
X130224Y459830D02*
X136652Y459830D01*
X55294Y403856D02*
X55294Y394032D01*
X59436Y389890D01*
D44*
X96012Y397764D02*
X100753Y402505D01*
X111150Y402505D01*
D42*
X115214Y424628D02*
X113110Y426732D01*
X115214Y424628D02*
X115214Y417373D01*
X113386Y415544D01*
D43*
X111150Y413309D01*
X111150Y402505D01*
D44*
X88985Y467614D02*
X76200Y467614D01*
X88985Y467614D02*
X90627Y465972D01*
D47*
X103160Y465972D01*
X105666Y463466D01*
X105666Y477866D01*
D44*
X282660Y693580D02*
X316078Y693580D01*
X282660Y693580D02*
X279264Y696976D01*
X279264Y739784D01*
X275336Y743712D01*
X226646Y656922D02*
X226646Y647954D01*
X244348Y674624D02*
X279400Y674624D01*
X279400Y696840D01*
X279264Y696976D01*
X244348Y674624D02*
X226646Y656922D01*
D47*
X252421Y743712D02*
X275336Y743712D01*
X252421Y743712D02*
X251507Y742798D01*
D44*
X361710Y33652D02*
X361900Y33462D01*
X361710Y33652D02*
X339454Y33652D01*
X338706Y34308D01*
X433900Y33462D02*
X441008Y33462D01*
X448694Y41148D02*
X459362Y41148D01*
X448694Y41148D02*
X441008Y33462D01*
X459362Y41148D02*
X468884Y41148D01*
X475996Y48260D02*
X475996Y101600D01*
X456692Y120904D01*
X454914Y120904D01*
X455050Y158366D02*
X466208Y158366D01*
X455050Y158366D02*
X454914Y158230D01*
X475996Y48260D02*
X468884Y41148D01*
X454914Y120904D02*
X454914Y158230D01*
D45*
X447040Y444500D03*
D46*
X436838Y454702D01*
X436838Y485722D01*
D45*
X485394Y221488D03*
D46*
X480184Y158366D02*
X466208Y158366D01*
X480184Y158366D02*
X485394Y163576D01*
X485394Y221488D01*
D44*
X433900Y33462D02*
X361900Y33462D01*
D45*
X299498Y446278D03*
D46*
X424138Y319744D02*
X424138Y305722D01*
X424138Y319744D02*
X432054Y327660D01*
X432054Y434416D01*
X421970Y444500D01*
D45*
X102870Y608330D03*
D46*
X102870Y595422D01*
X100546Y593098D01*
X409702Y444500D02*
X421970Y444500D01*
X409702Y444500D02*
X405892Y448310D01*
X397510Y448310D02*
X392684Y443484D01*
X397510Y448310D02*
X405892Y448310D01*
X302292Y443484D02*
X299498Y446278D01*
X353060Y443484D02*
X392684Y443484D01*
X329692Y443484D02*
X302292Y443484D01*
X347218Y449326D02*
X353060Y443484D01*
X347218Y449326D02*
X335534Y449326D01*
X329692Y443484D01*
X87846Y593098D02*
X87846Y593606D01*
D45*
X299498Y430022D03*
D46*
X411438Y317038D02*
X411438Y305722D01*
X411438Y317038D02*
X423581Y329181D01*
X423581Y424754D01*
X413900Y434435D01*
X301017Y434435D01*
X299498Y430022D01*
X299498Y430022D01*
X299498Y430022D01*
D45*
X86614Y606552D03*
D46*
X87846Y605320D01*
X87846Y593098D01*
X87846Y537098D02*
X87846Y522516D01*
X88039Y522323D01*
D45*
X88039Y522323D03*
X263652Y243332D03*
D46*
X264160Y242824D01*
X408060Y242824D02*
X410346Y240538D01*
X408060Y242824D02*
X264160Y242824D01*
X410346Y240538D02*
X410346Y222504D01*
X460248Y222504D01*
X461518Y223774D01*
D45*
X461518Y223774D03*
X447548Y198628D03*
D46*
X447548Y187846D01*
X456708Y178686D01*
X75146Y537098D02*
X73368Y537098D01*
X72860Y536590D01*
X72860Y520408D01*
X65532Y513080D01*
D45*
X65532Y513080D03*
X243840Y242570D03*
D46*
X256286Y230124D01*
X362594Y230124D01*
X384692Y208026D01*
X382465Y205799D01*
X384810Y203454D02*
X384810Y203200D01*
X402860Y185150D02*
X402860Y182750D01*
X402860Y185150D02*
X384810Y203200D01*
X384810Y203454D02*
X382465Y205799D01*
X292490Y29600D02*
X144805Y29600D01*
X144297Y29092D01*
X292490Y29600D02*
X311404Y48514D01*
X311404Y184658D02*
X311912Y185166D01*
X311404Y184658D02*
X311404Y48514D01*
D45*
X311912Y185166D03*
X373696Y465774D03*
D46*
X373696Y485364D01*
X373338Y485722D01*
X121666Y17662D02*
X121158Y17154D01*
X121666Y17662D02*
X295538Y17662D01*
X323088Y45212D01*
X323088Y196980D01*
X322710Y197358D01*
D45*
X322710Y197358D03*
X359918Y456438D03*
D46*
X359918Y485002D01*
X360638Y485722D01*
X288680Y39252D02*
X167894Y39252D01*
X166878Y40268D01*
X297688Y195834D02*
X298196Y196342D01*
X297688Y195834D02*
X297688Y48260D01*
D45*
X298196Y196342D03*
X321594Y454946D03*
D46*
X297688Y48260D02*
X288680Y39252D01*
X321594Y454946D02*
X321594Y484778D01*
X322538Y485722D01*
X143120Y272796D02*
X139192Y268868D01*
X139192Y230380D01*
X140030Y229542D01*
X161798Y272796D02*
X220472Y331470D01*
D45*
X220472Y331470D03*
D46*
X161798Y272796D02*
X143120Y272796D01*
D45*
X221996Y450088D03*
D46*
X263144Y491236D01*
X263144Y506984D01*
X269240Y513080D01*
X398738Y485722D02*
X399288Y486272D01*
X399288Y504444D02*
X389890Y513842D01*
D45*
X389890Y513842D03*
X269240Y513080D03*
D46*
X399288Y504444D02*
X399288Y486272D01*
X168030Y252612D02*
X168030Y229542D01*
X309626Y288798D02*
X309880Y289052D01*
D45*
X309880Y289052D03*
X359664Y351282D03*
D46*
X359664Y322020D01*
X360638Y321046D01*
X360638Y305722D01*
X309626Y288798D02*
X204216Y288798D01*
X168030Y252612D01*
X182030Y250610D02*
X182030Y229542D01*
D45*
X322834Y276860D03*
X372322Y321978D03*
D46*
X372322Y306738D01*
X373338Y305722D01*
X322834Y276860D02*
X208280Y276860D01*
X182030Y250610D01*
X449538Y294344D02*
X449538Y305722D01*
X444500Y289306D02*
X336042Y289306D01*
X444500Y289306D02*
X449538Y294344D01*
X333470Y272454D02*
X327240Y266224D01*
X211868Y266224D01*
X196030Y250386D02*
X196030Y229542D01*
X196030Y250386D02*
X211868Y266224D01*
X333470Y286734D02*
X336042Y289306D01*
X333470Y286734D02*
X333470Y272454D01*
X347472Y276860D02*
X347472Y266654D01*
D45*
X347472Y276860D03*
X346922Y321978D03*
D46*
X347938Y320962D01*
X347938Y305722D01*
X210030Y250162D02*
X210030Y229542D01*
X336850Y256032D02*
X347472Y266654D01*
X215900Y256032D02*
X210030Y250162D01*
X215900Y256032D02*
X336850Y256032D01*
D42*
X31426Y444924D02*
X31426Y462378D01*
X32768Y463720D01*
D46*
X31426Y444924D02*
X16568Y430066D01*
X15508Y429006D01*
X13970Y359664D02*
X31496Y342138D01*
X271008Y351272D02*
X282238Y351272D01*
X261874Y342138D02*
X31496Y342138D01*
X261874Y342138D02*
X271008Y351272D01*
X13970Y359664D02*
X13970Y427468D01*
X15508Y429006D01*
X40894Y352044D02*
X252476Y352044D01*
X265938Y365506D01*
D45*
X265938Y365506D03*
X310134Y467868D03*
D46*
X310134Y485426D01*
X309838Y485722D01*
X31680Y390242D02*
X30482Y389044D01*
X31680Y397694D02*
X31680Y408856D01*
X31680Y397694D02*
X29464Y395478D01*
X30482Y362456D02*
X40894Y352044D01*
X29464Y390062D02*
X29464Y395478D01*
X29464Y390062D02*
X30482Y389044D01*
X30482Y362456D01*
D42*
X77900Y374828D02*
X94410Y374994D01*
D46*
X102526Y374994D01*
X268224Y383540D02*
X268224Y433324D01*
X275072Y440172D01*
X282238Y440172D01*
X114554Y362966D02*
X102526Y374994D01*
X114554Y362966D02*
X247650Y362966D01*
X268224Y383540D01*
X158672Y399704D02*
X157902Y400474D01*
X158672Y399704D02*
X171118Y399886D01*
X235548Y399886D01*
X257810Y422148D01*
X257810Y460502D01*
X283030Y485722D01*
X297138Y485722D01*
D42*
X131418Y434732D02*
X106870Y434732D01*
X131418Y434732D02*
X131505Y434645D01*
D46*
X56564Y450178D02*
X43180Y450178D01*
X42926Y449924D01*
D42*
X69994Y430732D02*
X76870Y430732D01*
X64692Y436034D02*
X64692Y450004D01*
X64518Y450178D01*
X56564Y450178D01*
X64692Y436034D02*
X69994Y430732D01*
D46*
X55294Y413856D02*
X43180Y413856D01*
D42*
X68234Y426732D02*
X76870Y426732D01*
X68234Y426732D02*
X56296Y414794D01*
X56232Y414794D01*
X55294Y413856D01*
D46*
X72900Y398188D02*
X72900Y386328D01*
D42*
X70614Y399204D02*
X70614Y417255D01*
X71630Y398188D02*
X72900Y398188D01*
X71630Y398188D02*
X70614Y399204D01*
X76091Y422732D02*
X76345Y422732D01*
X76091Y422732D02*
X70614Y417255D01*
D46*
X134034Y395728D02*
X146148Y395728D01*
X146402Y395474D01*
D42*
X117746Y430732D02*
X106870Y430732D01*
X120796Y427682D02*
X120796Y427380D01*
X121080Y427096D01*
X121080Y405808D01*
X131160Y395728D01*
X134034Y395728D01*
X120796Y427682D02*
X117746Y430732D01*
D46*
X115666Y463466D02*
X115666Y477866D01*
D42*
X115666Y463466D02*
X115666Y446374D01*
X112522Y443230D01*
X107893Y443230D02*
X107395Y442732D01*
X107893Y443230D02*
X112522Y443230D01*
D46*
X142338Y449830D02*
X142592Y449576D01*
D42*
X130224Y449830D02*
X129794Y449400D01*
X114380Y438732D02*
X106870Y438732D01*
X125048Y449400D02*
X129794Y449400D01*
X125048Y449400D02*
X114380Y438732D01*
D43*
X130478Y449576D02*
X142592Y449576D01*
X130478Y449576D02*
X130224Y449830D01*
D46*
X154030Y103542D02*
X154030Y84222D01*
X165862Y72390D01*
D45*
X165862Y72390D03*
X345440Y362204D03*
D46*
X345440Y351028D01*
X320294Y325882D01*
D45*
X221234Y313944D03*
D46*
X233172Y325882D01*
X320294Y325882D01*
D45*
X386842Y455930D03*
D46*
X386038Y456734D01*
X386038Y485722D01*
D45*
X268224Y90424D03*
D46*
X268224Y215138D01*
X267716Y215646D01*
D45*
X267716Y215646D03*
D44*
X357360Y159382D02*
X357868Y159890D01*
X423340Y140274D02*
X434644Y140274D01*
X423340Y140274D02*
X412360Y151254D01*
X412360Y162430D01*
X362644Y145462D02*
X357360Y150746D01*
X357360Y159382D01*
X362644Y145462D02*
X362644Y140274D01*
D46*
X357360Y159382D02*
X358394Y160416D01*
X358394Y218186D01*
D45*
X358394Y218186D03*
X272542Y313182D03*
D46*
X289678Y313182D01*
X297138Y305722D01*
D44*
X362644Y140274D02*
X390204Y140274D01*
X412360Y162430D01*
D46*
X401692Y208026D02*
X406264Y212598D01*
X475488Y212598D01*
X475708Y212378D02*
X475708Y178686D01*
X475708Y212378D02*
X475488Y212598D01*
D44*
X207130Y696468D02*
X177410Y696468D01*
X207130Y696468D02*
X208908Y694690D01*
X195818Y723798D02*
X225505Y723798D01*
X195818Y723798D02*
X195326Y724290D01*
X223908Y696199D02*
X223908Y694690D01*
D47*
X223908Y696199D02*
X251507Y723798D01*
D44*
X205646Y627286D02*
X191770Y613410D01*
X205646Y627286D02*
X205646Y638454D01*
X191770Y613410D02*
X191770Y590178D01*
X191126Y589534D01*
X210116Y633984D02*
X205646Y638454D01*
X284734Y655828D02*
X287782Y652780D01*
X287782Y626228D01*
X311404Y626896D02*
X311404Y627888D01*
X305308Y627888D01*
X289442Y627888D01*
X287782Y626228D01*
D45*
X305308Y627888D03*
X247618Y633984D03*
X303784Y598932D03*
D47*
X317168Y621132D02*
X311404Y626896D01*
D45*
X233172Y606806D03*
D47*
X248942Y609954D02*
X249350Y610362D01*
X248942Y609954D02*
X241630Y609954D01*
X238482Y606806D01*
X233172Y606806D01*
D43*
X316992Y601956D02*
X317168Y602132D01*
X316992Y601956D02*
X316992Y596900D01*
D44*
X316738Y596646D01*
X306070Y596646D01*
X303784Y598932D01*
X284734Y655828D02*
X267208Y655828D01*
X261334Y649954D01*
X254588Y633984D02*
X247618Y633984D01*
X210116Y633984D01*
D47*
X261334Y640954D02*
X261334Y649954D01*
X261334Y640954D02*
X261446Y640842D01*
X254588Y633984D01*
X178460Y613410D02*
X173533Y618337D01*
X178460Y613410D02*
X191770Y613410D01*
D46*
X398738Y329396D02*
X398738Y305722D01*
X398738Y329396D02*
X406400Y337058D01*
D45*
X406400Y337058D03*
X413004Y265684D03*
D46*
X447294Y265684D01*
X486410Y244348D02*
X521970Y208788D01*
X468630Y244348D02*
X447294Y265684D01*
X468630Y244348D02*
X486410Y244348D01*
X436838Y305722D02*
X436838Y315680D01*
X446786Y325628D01*
D45*
X446786Y325628D03*
X434086Y278130D03*
D46*
X450596Y278130D02*
X464566Y264160D01*
X450596Y278130D02*
X434086Y278130D01*
X518922Y252984D02*
X521208Y252984D01*
X518922Y252984D02*
X507746Y264160D01*
X464566Y264160D01*
X178484Y454750D02*
X154266Y454750D01*
X154092Y454576D01*
X283718Y497840D02*
X283718Y499110D01*
D45*
X283718Y499110D03*
X424180Y469138D03*
D46*
X283718Y497840D02*
X240628Y454750D01*
X198538Y454750D02*
X178484Y454750D01*
X240628Y454750D02*
X240628Y442558D01*
X215646Y437642D02*
X198538Y454750D01*
X215646Y437642D02*
X235712Y437642D01*
X240628Y442558D01*
X424138Y485722D02*
X424180Y485680D01*
X424180Y469138D01*
X143002Y497586D02*
X143002Y517398D01*
X143002Y497586D02*
X133258Y487842D01*
D45*
X411734Y512826D03*
D46*
X153924Y528320D02*
X143002Y517398D01*
X153924Y528320D02*
X285496Y528320D01*
X286766Y527050D01*
D45*
X286766Y527050D03*
D46*
X110666Y503518D02*
X109824Y504360D01*
X112190Y487842D02*
X133258Y487842D01*
X112190Y487842D02*
X110666Y489366D01*
X110666Y503518D01*
X411438Y512530D02*
X411438Y485722D01*
X411438Y512530D02*
X411734Y512826D01*
X347938Y512276D02*
X347938Y485722D01*
X347938Y512276D02*
X415798Y580136D01*
X487426Y580136D02*
X515366Y552196D01*
X487426Y580136D02*
X415798Y580136D01*
X335238Y515070D02*
X335238Y485722D01*
X335238Y515070D02*
X410464Y590296D01*
X450088Y600202D02*
X515366Y600202D01*
X440182Y590296D02*
X410464Y590296D01*
X440182Y590296D02*
X450088Y600202D01*
X450596Y240538D02*
X427346Y240538D01*
X450596Y240538D02*
X453071Y238063D01*
D45*
X453071Y238063D03*
X431292Y199898D03*
D46*
X431292Y192182D01*
X421860Y182750D01*
D44*
X339168Y621132D02*
X348972Y630936D01*
X354212Y630936D01*
X339168Y621132D02*
X339168Y602132D01*
D43*
X271350Y619862D02*
X271350Y640746D01*
X271446Y640842D01*
X217662Y612242D02*
X216662Y611242D01*
D47*
X229514Y619862D02*
X249350Y619862D01*
X229514Y619862D02*
X229362Y620014D01*
X225434Y620014D01*
X217662Y612242D01*
X216662Y594242D02*
X218322Y592582D01*
D43*
X249350Y596978D02*
X249350Y600862D01*
X249350Y596978D02*
X249428Y596900D01*
D47*
X245110Y592582D01*
X218322Y592582D01*
D46*
X215122Y558188D02*
X236384Y558188D01*
X215122Y558188D02*
X215018Y558292D01*
X112030Y103542D02*
X112030Y84090D01*
X111760Y83820D01*
X111760Y43552D01*
X121158Y34154D01*
X125522Y103034D02*
X126030Y103542D01*
X125522Y103034D02*
X125522Y49484D01*
X128914Y46092D02*
X144297Y46092D01*
X128914Y46092D02*
X125522Y49484D01*
X139522Y103034D02*
X140030Y103542D01*
X139522Y103034D02*
X139522Y60630D01*
X142884Y57268D02*
X166878Y57268D01*
X142884Y57268D02*
X139522Y60630D01*
D45*
X257588Y165608D03*
X485394Y146558D03*
D46*
X505206Y146558D01*
X523748Y165100D01*
X251522Y159542D02*
X238030Y159542D01*
X251522Y159542D02*
X257588Y165608D01*
X241840Y149352D02*
X238030Y145542D01*
X241840Y149352D02*
X257588Y149352D01*
D45*
X257588Y149352D03*
X487680Y118110D03*
D46*
X521208Y118110D01*
X523240Y120142D01*
X239584Y133096D02*
X238030Y131542D01*
X239584Y133096D02*
X257588Y133096D01*
D45*
X257588Y133096D03*
X489966Y70104D03*
D46*
X517652Y70104D01*
X523494Y75946D01*
X247742Y117542D02*
X238030Y117542D01*
X247742Y117542D02*
X257588Y107696D01*
D45*
X257588Y107696D03*
X487934Y29718D03*
D46*
X520954Y29718D01*
X522986Y31750D01*
D42*
X53620Y658413D02*
X41830Y649478D01*
X53620Y658413D02*
X53620Y683014D01*
X83620Y683014D02*
X83818Y682816D01*
X83818Y683686D01*
X83620Y683014D02*
X83620Y659676D01*
X85009Y658287D01*
D45*
X85009Y658287D03*
X111760Y664210D03*
D42*
X118110Y670560D01*
X125302Y670560D01*
M02*
