G04 EAGLE Gerber RS-274X export*
G75*
%MOMM*%
%FSLAX34Y34*%
%LPD*%
%IN*%
%IPPOS*%
%AMOC8*
5,1,8,0,0,1.08239X$1,22.5*%
G01*
%ADD10C,0.254000*%


D10*
X0Y0D02*
X558800Y0D01*
X558800Y762000D01*
X0Y762000D01*
X0Y0D01*
X24920Y726684D02*
X24931Y726423D01*
X24966Y726163D01*
X25022Y725908D01*
X25101Y725658D01*
X25201Y725416D01*
X25322Y725184D01*
X25463Y724963D01*
X25622Y724756D01*
X25799Y724563D01*
X25992Y724386D01*
X26199Y724227D01*
X26420Y724086D01*
X26652Y723965D01*
X26894Y723865D01*
X27144Y723786D01*
X27399Y723730D01*
X27659Y723695D01*
X27920Y723684D01*
X28181Y723695D01*
X28441Y723730D01*
X28696Y723786D01*
X28946Y723865D01*
X29188Y723965D01*
X29420Y724086D01*
X29641Y724227D01*
X29848Y724386D01*
X30041Y724563D01*
X30218Y724756D01*
X30377Y724963D01*
X30518Y725184D01*
X30639Y725416D01*
X30739Y725658D01*
X30818Y725908D01*
X30874Y726163D01*
X30909Y726423D01*
X30920Y726684D01*
X30920Y734684D01*
X30909Y734945D01*
X30874Y735205D01*
X30818Y735460D01*
X30739Y735710D01*
X30639Y735952D01*
X30518Y736184D01*
X30377Y736405D01*
X30218Y736612D01*
X30041Y736805D01*
X29848Y736982D01*
X29641Y737141D01*
X29420Y737282D01*
X29188Y737403D01*
X28946Y737503D01*
X28696Y737582D01*
X28441Y737638D01*
X28181Y737673D01*
X27920Y737684D01*
X27659Y737673D01*
X27399Y737638D01*
X27144Y737582D01*
X26894Y737503D01*
X26652Y737403D01*
X26420Y737282D01*
X26199Y737141D01*
X25992Y736982D01*
X25799Y736805D01*
X25622Y736612D01*
X25463Y736405D01*
X25322Y736184D01*
X25201Y735952D01*
X25101Y735710D01*
X25022Y735460D01*
X24966Y735205D01*
X24931Y734945D01*
X24920Y734684D01*
X24920Y726684D01*
X24920Y683184D02*
X24931Y682923D01*
X24966Y682663D01*
X25022Y682408D01*
X25101Y682158D01*
X25201Y681916D01*
X25322Y681684D01*
X25463Y681463D01*
X25622Y681256D01*
X25799Y681063D01*
X25992Y680886D01*
X26199Y680727D01*
X26420Y680586D01*
X26652Y680465D01*
X26894Y680365D01*
X27144Y680286D01*
X27399Y680230D01*
X27659Y680195D01*
X27920Y680184D01*
X28181Y680195D01*
X28441Y680230D01*
X28696Y680286D01*
X28946Y680365D01*
X29188Y680465D01*
X29420Y680586D01*
X29641Y680727D01*
X29848Y680886D01*
X30041Y681063D01*
X30218Y681256D01*
X30377Y681463D01*
X30518Y681684D01*
X30639Y681916D01*
X30739Y682158D01*
X30818Y682408D01*
X30874Y682663D01*
X30909Y682923D01*
X30920Y683184D01*
X30920Y694184D01*
X30909Y694445D01*
X30874Y694705D01*
X30818Y694960D01*
X30739Y695210D01*
X30639Y695452D01*
X30518Y695684D01*
X30377Y695905D01*
X30218Y696112D01*
X30041Y696305D01*
X29848Y696482D01*
X29641Y696641D01*
X29420Y696782D01*
X29188Y696903D01*
X28946Y697003D01*
X28696Y697082D01*
X28441Y697138D01*
X28181Y697173D01*
X27920Y697184D01*
X27659Y697173D01*
X27399Y697138D01*
X27144Y697082D01*
X26894Y697003D01*
X26652Y696903D01*
X26420Y696782D01*
X26199Y696641D01*
X25992Y696482D01*
X25799Y696305D01*
X25622Y696112D01*
X25463Y695905D01*
X25322Y695684D01*
X25201Y695452D01*
X25101Y695210D01*
X25022Y694960D01*
X24966Y694705D01*
X24931Y694445D01*
X24920Y694184D01*
X24920Y683184D01*
X111320Y726684D02*
X111331Y726423D01*
X111366Y726163D01*
X111422Y725908D01*
X111501Y725658D01*
X111601Y725416D01*
X111722Y725184D01*
X111863Y724963D01*
X112022Y724756D01*
X112199Y724563D01*
X112392Y724386D01*
X112599Y724227D01*
X112820Y724086D01*
X113052Y723965D01*
X113294Y723865D01*
X113544Y723786D01*
X113799Y723730D01*
X114059Y723695D01*
X114320Y723684D01*
X114581Y723695D01*
X114841Y723730D01*
X115096Y723786D01*
X115346Y723865D01*
X115588Y723965D01*
X115820Y724086D01*
X116041Y724227D01*
X116248Y724386D01*
X116441Y724563D01*
X116618Y724756D01*
X116777Y724963D01*
X116918Y725184D01*
X117039Y725416D01*
X117139Y725658D01*
X117218Y725908D01*
X117274Y726163D01*
X117309Y726423D01*
X117320Y726684D01*
X117320Y734684D01*
X117309Y734945D01*
X117274Y735205D01*
X117218Y735460D01*
X117139Y735710D01*
X117039Y735952D01*
X116918Y736184D01*
X116777Y736405D01*
X116618Y736612D01*
X116441Y736805D01*
X116248Y736982D01*
X116041Y737141D01*
X115820Y737282D01*
X115588Y737403D01*
X115346Y737503D01*
X115096Y737582D01*
X114841Y737638D01*
X114581Y737673D01*
X114320Y737684D01*
X114059Y737673D01*
X113799Y737638D01*
X113544Y737582D01*
X113294Y737503D01*
X113052Y737403D01*
X112820Y737282D01*
X112599Y737141D01*
X112392Y736982D01*
X112199Y736805D01*
X112022Y736612D01*
X111863Y736405D01*
X111722Y736184D01*
X111601Y735952D01*
X111501Y735710D01*
X111422Y735460D01*
X111366Y735205D01*
X111331Y734945D01*
X111320Y734684D01*
X111320Y726684D01*
X111320Y683184D02*
X111331Y682923D01*
X111366Y682663D01*
X111422Y682408D01*
X111501Y682158D01*
X111601Y681916D01*
X111722Y681684D01*
X111863Y681463D01*
X112022Y681256D01*
X112199Y681063D01*
X112392Y680886D01*
X112599Y680727D01*
X112820Y680586D01*
X113052Y680465D01*
X113294Y680365D01*
X113544Y680286D01*
X113799Y680230D01*
X114059Y680195D01*
X114320Y680184D01*
X114581Y680195D01*
X114841Y680230D01*
X115096Y680286D01*
X115346Y680365D01*
X115588Y680465D01*
X115820Y680586D01*
X116041Y680727D01*
X116248Y680886D01*
X116441Y681063D01*
X116618Y681256D01*
X116777Y681463D01*
X116918Y681684D01*
X117039Y681916D01*
X117139Y682158D01*
X117218Y682408D01*
X117274Y682663D01*
X117309Y682923D01*
X117320Y683184D01*
X117320Y694184D01*
X117309Y694445D01*
X117274Y694705D01*
X117218Y694960D01*
X117139Y695210D01*
X117039Y695452D01*
X116918Y695684D01*
X116777Y695905D01*
X116618Y696112D01*
X116441Y696305D01*
X116248Y696482D01*
X116041Y696641D01*
X115820Y696782D01*
X115588Y696903D01*
X115346Y697003D01*
X115096Y697082D01*
X114841Y697138D01*
X114581Y697173D01*
X114320Y697184D01*
X114059Y697173D01*
X113799Y697138D01*
X113544Y697082D01*
X113294Y697003D01*
X113052Y696903D01*
X112820Y696782D01*
X112599Y696641D01*
X112392Y696482D01*
X112199Y696305D01*
X112022Y696112D01*
X111863Y695905D01*
X111722Y695684D01*
X111601Y695452D01*
X111501Y695210D01*
X111422Y694960D01*
X111366Y694705D01*
X111331Y694445D01*
X111320Y694184D01*
X111320Y683184D01*
X39220Y694120D02*
X39294Y694587D01*
X39440Y695036D01*
X39654Y695456D01*
X39932Y695838D01*
X40266Y696172D01*
X40648Y696450D01*
X41068Y696664D01*
X41518Y696810D01*
X41984Y696884D01*
X42456Y696884D01*
X42923Y696810D01*
X43372Y696664D01*
X43792Y696450D01*
X44174Y696172D01*
X44508Y695838D01*
X44786Y695456D01*
X45000Y695036D01*
X45146Y694587D01*
X45220Y694120D01*
X45220Y693648D01*
X45146Y693182D01*
X45000Y692732D01*
X44786Y692312D01*
X44508Y691930D01*
X44174Y691596D01*
X43792Y691318D01*
X43372Y691104D01*
X42923Y690958D01*
X42456Y690884D01*
X41984Y690884D01*
X41518Y690958D01*
X41068Y691104D01*
X40648Y691318D01*
X40266Y691596D01*
X39932Y691930D01*
X39654Y692312D01*
X39440Y692732D01*
X39294Y693182D01*
X39220Y693648D01*
X39220Y694120D01*
X97020Y694120D02*
X97094Y694587D01*
X97240Y695036D01*
X97454Y695456D01*
X97732Y695838D01*
X98066Y696172D01*
X98448Y696450D01*
X98868Y696664D01*
X99318Y696810D01*
X99784Y696884D01*
X100256Y696884D01*
X100723Y696810D01*
X101172Y696664D01*
X101592Y696450D01*
X101974Y696172D01*
X102308Y695838D01*
X102586Y695456D01*
X102800Y695036D01*
X102946Y694587D01*
X103020Y694120D01*
X103020Y693648D01*
X102946Y693182D01*
X102800Y692732D01*
X102586Y692312D01*
X102308Y691930D01*
X101974Y691596D01*
X101592Y691318D01*
X101172Y691104D01*
X100723Y690958D01*
X100256Y690884D01*
X99784Y690884D01*
X99318Y690958D01*
X98868Y691104D01*
X98448Y691318D01*
X98066Y691596D01*
X97732Y691930D01*
X97454Y692312D01*
X97240Y692732D01*
X97094Y693182D01*
X97020Y693648D01*
X97020Y694120D01*
M02*
