M48
;GenerationSoftware,Autodesk,EAGLE,9.6.2*%
;CreationDate,2023-07-27T15:49:44Z*%
FMAT,2
ICI,OFF
METRIC,TZ,000.000
T3C0.508
T2C0.600
T1C2.000
%
G90
M71
T1
X51537Y60020
X52121Y25298
X52197Y20879
X52375Y16510
X52324Y12014
X52349Y7595
X52299Y3175
X51537Y55220
T2
X4222Y69388
X10002Y69388
T3
X18136Y55575
X31191Y56185
X14402Y60401
X22911Y22962
X46203Y28702
X45314Y8661
X29642Y72644
X29083Y46736
X2616Y63271
X2616Y61493
X13564Y69317
X26132Y5466
X46939Y53096
X12314Y37856
X16439Y44379
X44168Y53401
X44907Y46990
X4267Y47854
X4597Y37897
X15672Y38100
X17882Y42850
X31191Y58064
X34036Y20168
X17755Y71653
X21260Y73777
X6883Y69633
X6299Y57455
X8001Y62332
X5867Y64592
X4470Y56693
X14326Y63856
X9316Y63824
X13081Y50343
X13894Y47371
X7620Y46761
X5588Y42875
X5944Y38989
X9601Y39776
X15062Y41986
X44704Y44450
X48539Y22149
X29950Y44628
X10287Y60833
X29950Y43002
X8661Y60655
X8804Y52232
X26365Y24333
X46152Y22377
X44755Y19863
X6553Y51308
X24384Y24257
X31191Y18517
X37370Y46577
X32271Y19736
X35992Y45644
X29820Y19634
X32159Y45495
X22047Y33147
X22200Y45009
X38989Y51384
X26924Y51308
X30988Y28905
X35966Y35128
X32283Y27686
X37232Y32198
X34747Y27686
X34692Y32198
X26594Y36551
X31013Y46787
X16586Y7239
X34544Y36220
X22123Y31394
X38684Y45593
X26822Y9042
X26772Y21565
X35839Y21819
X27254Y31318
X30531Y62789
X24762Y63398
X30378Y59893
X5893Y47879
X40640Y33706
X41300Y26568
X44679Y32563
X43409Y27813
X28372Y49911
X42418Y46914
X41173Y51283
X28677Y52705
X45307Y23806
X43129Y19990
X25759Y16561
X48539Y14656
X25759Y14935
X48768Y11811
X23317Y60681
X48997Y7010
X25759Y10770
X48793Y2972
X8501Y65829
X11176Y66421
X24714Y9496
X11684Y27838
X15443Y25654
X17704Y73521
X26441Y71399
X30074Y74295
X18771Y67539
X39421Y60223
X28753Y59626
X25759Y13310
M30