G04 EAGLE Gerber RS-274X export*
G75*
%MOMM*%
%FSLAX34Y34*%
%LPD*%
%INBottom Copper*%
%IPPOS*%
%AMOC8*
5,1,8,0,0,1.08239X$1,22.5*%
G01*
%ADD10C,4.032000*%
%ADD11C,0.457200*%
%ADD12C,0.525000*%
%ADD13C,1.016000*%
%ADD14C,0.762000*%
%ADD15C,0.254000*%
%ADD16C,0.349250*%


D10*
X521208Y252984D03*
X521970Y208788D03*
X523748Y165100D03*
X523240Y120142D03*
X523494Y75946D03*
X522986Y31750D03*
X515366Y552196D03*
X515366Y600202D03*
D11*
X58928Y478790D03*
X247142Y94964D03*
X116840Y278384D03*
X154432Y256540D03*
X177038Y735212D03*
X264414Y713994D03*
X300736Y742950D03*
X187706Y675386D03*
X394208Y602234D03*
X287528Y596256D03*
X311912Y561848D03*
X144018Y604012D03*
X229108Y229616D03*
X462026Y287020D03*
X453136Y86614D03*
X296418Y726440D03*
X290830Y467360D03*
X26162Y632714D03*
X26162Y614934D03*
X135636Y693166D03*
X261315Y54661D03*
X469392Y530962D03*
X123139Y378562D03*
X164389Y443789D03*
D12*
X180400Y556300D03*
X364000Y419100D03*
X376700Y419200D03*
X388900Y419000D03*
X404700Y418900D03*
X400600Y409300D03*
X384200Y409100D03*
X371300Y409600D03*
X363900Y398900D03*
X378600Y399200D03*
X394000Y399400D03*
X406000Y399200D03*
X399500Y389300D03*
X386600Y388100D03*
X372900Y387900D03*
X365500Y377600D03*
X380100Y377100D03*
X394500Y376800D03*
X405900Y377400D03*
X126300Y200600D03*
X149400Y197200D03*
X176000Y196600D03*
X195300Y195500D03*
X208400Y176100D03*
X188000Y176200D03*
X163700Y174600D03*
X142800Y174900D03*
X127300Y150600D03*
X159900Y153300D03*
X179500Y153500D03*
X203500Y154400D03*
X191000Y134600D03*
X172500Y137200D03*
X148000Y134000D03*
X122900Y131700D03*
X124000Y183500D03*
D13*
X440592Y534514D02*
X442190Y534514D01*
X441682Y534006D01*
D11*
X441682Y534006D03*
X449072Y469900D03*
X42672Y478536D03*
D14*
X42672Y450342D01*
X41070Y448740D02*
X41070Y381932D01*
X41070Y448740D02*
X42672Y450342D01*
X41070Y381932D02*
X44034Y378968D01*
X45974Y378968D01*
D11*
X45974Y378968D03*
D13*
X61214Y363728D01*
X135955Y363728D01*
X153227Y381000D02*
X156718Y381000D01*
D11*
X156718Y381000D03*
D13*
X153227Y381000D02*
X135955Y363728D01*
X158131Y381143D02*
X172974Y395986D01*
X156861Y381143D02*
X156718Y381000D01*
X156861Y381143D02*
X158131Y381143D01*
X172974Y426974D02*
X178816Y432816D01*
X178816Y428498D01*
X172974Y426974D02*
X172974Y395986D01*
D11*
X178816Y428498D03*
X311912Y580644D03*
D13*
X394462Y580644D01*
X440592Y534514D01*
D11*
X340360Y201676D03*
D13*
X352298Y189738D01*
X374650Y189738D01*
X386588Y201676D01*
X430657Y451485D02*
X449072Y469900D01*
X430657Y451485D02*
X430657Y434975D01*
X446024Y419608D01*
X429514Y354838D02*
X398018Y354838D01*
X429514Y354838D02*
X446024Y371348D01*
X386588Y343408D02*
X386588Y201676D01*
X386588Y343408D02*
X398018Y354838D01*
X446024Y371348D02*
X446024Y419608D01*
D11*
X177546Y716534D03*
D13*
X191364Y716534D01*
X212598Y737768D01*
D11*
X212598Y737768D03*
X68834Y696334D03*
D15*
X68834Y582590D02*
X61192Y574948D01*
D11*
X61192Y574948D03*
D15*
X68834Y636900D02*
X68834Y696334D01*
X68834Y636900D02*
X68834Y582590D01*
D12*
X88900Y626500D03*
D15*
X79234Y626500D01*
X68834Y636900D01*
D11*
X58674Y645922D03*
X44704Y566928D03*
D15*
X44704Y631952D01*
X58674Y645922D01*
D12*
X89300Y639300D03*
D15*
X140100Y639300D01*
D12*
X140100Y639300D03*
D11*
X130810Y503428D03*
D13*
X130810Y481838D01*
X138938Y473710D01*
D11*
X138938Y473710D03*
D13*
X130810Y481838D02*
X116586Y467614D01*
X76200Y467614D01*
D11*
X76200Y467614D03*
D13*
X76200Y449072D02*
X55880Y428752D01*
D11*
X55880Y428752D03*
D13*
X55880Y393446D01*
X59436Y389890D01*
D11*
X59436Y389890D03*
D13*
X88138Y389890D01*
X96012Y397764D01*
D11*
X96012Y397764D03*
D13*
X100584Y393192D01*
X130048Y393192D01*
X150622Y413766D01*
X150622Y419862D01*
D11*
X150622Y419862D03*
D13*
X76200Y449072D02*
X76200Y467614D01*
D11*
X447040Y444500D03*
D16*
X448056Y443484D01*
X459232Y306578D02*
X449326Y296672D01*
X459232Y306578D02*
X459486Y306578D01*
X459486Y437134D01*
X453136Y443484D01*
X448056Y443484D01*
D11*
X485394Y221488D03*
D16*
X449326Y257556D01*
X449326Y296672D01*
X257530Y446278D02*
X125221Y578587D01*
X257530Y446278D02*
X299498Y446278D01*
D11*
X299498Y446278D03*
D16*
X103170Y608130D02*
X102921Y607881D01*
D11*
X103170Y608130D03*
D16*
X125221Y585581D02*
X125221Y578587D01*
X125221Y585581D02*
X102921Y607881D01*
D11*
X299498Y430022D03*
D16*
X112268Y577342D02*
X100275Y577342D01*
X259588Y430022D02*
X299498Y430022D01*
X259588Y430022D02*
X112268Y577342D01*
X87114Y590503D02*
X87114Y608152D01*
D11*
X87114Y608152D03*
D16*
X87114Y590503D02*
X100275Y577342D01*
D11*
X88039Y522323D03*
D16*
X154079Y522323D01*
X209042Y467360D01*
X209042Y297942D02*
X263652Y243332D01*
D11*
X263652Y243332D03*
D16*
X209042Y297942D02*
X209042Y467360D01*
D11*
X461518Y223774D03*
D16*
X461518Y212598D01*
X447548Y198628D01*
D11*
X447548Y198628D03*
X65532Y513080D03*
D16*
X68834Y513080D01*
X78486Y503428D01*
X111252Y503428D01*
X121920Y514096D01*
X147574Y514096D01*
X198120Y463550D01*
X198120Y288290D02*
X243840Y242570D01*
D11*
X243840Y242570D03*
D16*
X198120Y288290D02*
X198120Y463550D01*
D11*
X311912Y185166D03*
D16*
X352806Y470916D02*
X372110Y470916D01*
X352806Y470916D02*
X330200Y448310D01*
X299212Y255016D02*
X299212Y216408D01*
X311912Y203708D02*
X311912Y185166D01*
X311912Y203708D02*
X299212Y216408D01*
X373696Y469330D02*
X372110Y470916D01*
X373696Y469330D02*
X373696Y465774D01*
D11*
X373696Y465774D03*
D16*
X330200Y448310D02*
X330200Y395986D01*
X330454Y395732D01*
X278384Y343662D02*
X252476Y343662D01*
X247650Y338836D01*
X247650Y306578D02*
X299212Y255016D01*
X278384Y343662D02*
X330454Y395732D01*
X247650Y338836D02*
X247650Y306578D01*
D11*
X322710Y197358D03*
X359918Y456438D03*
D16*
X338201Y389255D02*
X284480Y335534D01*
X309626Y259334D02*
X309626Y222126D01*
X322710Y209042D02*
X322710Y197358D01*
X322710Y209042D02*
X309626Y222126D01*
X309626Y259334D02*
X258064Y310896D01*
X258064Y331724D01*
X261874Y335534D01*
X284480Y335534D01*
X338201Y434721D02*
X359918Y456438D01*
X338201Y434721D02*
X338201Y389255D01*
D11*
X298196Y196342D03*
D16*
X321340Y404398D02*
X321340Y454692D01*
X321594Y454946D01*
D11*
X321594Y454946D03*
D16*
X289560Y249936D02*
X289560Y204978D01*
X298196Y196342D01*
X270764Y353822D02*
X321340Y404398D01*
X243586Y353822D02*
X237998Y348234D01*
X237998Y321564D01*
X238252Y321310D01*
X243586Y353822D02*
X270764Y353822D01*
X238252Y301244D02*
X289560Y249936D01*
X238252Y301244D02*
X238252Y321310D01*
D11*
X220472Y331470D03*
D16*
X220472Y448564D02*
X221996Y450088D01*
X220472Y448564D02*
X220472Y331470D01*
D11*
X221996Y450088D03*
X389890Y513842D03*
D16*
X270002Y513842D01*
X269240Y513080D01*
D11*
X269240Y513080D03*
X309880Y289052D03*
D16*
X309880Y322580D01*
X338582Y351282D02*
X359664Y351282D01*
D11*
X359664Y351282D03*
D16*
X338582Y351282D02*
X309880Y322580D01*
D11*
X322834Y276860D03*
D16*
X322834Y319786D01*
X340868Y337820D01*
X369824Y337820D01*
X372322Y335322D02*
X372322Y321978D01*
D11*
X372322Y321978D03*
D16*
X372322Y335322D02*
X369824Y337820D01*
D11*
X347472Y276860D03*
D16*
X346456Y277876D02*
X346456Y321512D01*
X346456Y277876D02*
X347472Y276860D01*
X346456Y321512D02*
X346922Y321978D01*
D11*
X346922Y321978D03*
X265938Y365506D03*
D16*
X310134Y409702D01*
X310134Y467868D01*
D11*
X310134Y467868D03*
X165862Y72390D03*
D16*
X177800Y84328D01*
X262128Y84328D01*
X268224Y90424D01*
D11*
X345440Y362204D03*
D16*
X345948Y362204D01*
X346964Y363220D01*
X346964Y428498D01*
X364268Y445802D02*
X382866Y445802D01*
X364268Y445802D02*
X346964Y428498D01*
D11*
X221234Y313944D03*
D16*
X221234Y302768D01*
X382866Y445802D02*
X386842Y449778D01*
X386842Y455930D01*
D11*
X386842Y455930D03*
D16*
X221234Y302768D02*
X276606Y247396D01*
X276606Y235712D01*
D11*
X268224Y90424D03*
X267716Y215646D03*
D16*
X267716Y226822D01*
X276606Y235712D01*
D11*
X358394Y218186D03*
D16*
X319786Y256794D01*
X272542Y310388D02*
X272542Y313182D01*
D11*
X272542Y313182D03*
D16*
X319786Y263144D02*
X319786Y256794D01*
X319786Y263144D02*
X272542Y310388D01*
D11*
X305308Y627888D03*
X247618Y633984D03*
D13*
X303784Y598932D02*
X305308Y600456D01*
D11*
X303784Y598932D03*
D13*
X305308Y600456D02*
X305308Y627888D01*
D11*
X233172Y606806D03*
D14*
X233172Y619538D02*
X247618Y633984D01*
X233172Y619538D02*
X233172Y606806D01*
D11*
X406400Y337058D03*
D16*
X399034Y329692D01*
X399034Y279654D01*
X413004Y265684D01*
D11*
X413004Y265684D03*
X446786Y325628D03*
D16*
X433832Y312674D01*
X433832Y278384D02*
X434086Y278130D01*
D11*
X434086Y278130D03*
D16*
X433832Y278384D02*
X433832Y312674D01*
D11*
X283718Y499110D03*
D16*
X394208Y499110D01*
X424180Y469138D01*
D11*
X424180Y469138D03*
X411734Y512826D03*
X286766Y527050D03*
D16*
X397510Y527050D02*
X411734Y512826D01*
X397510Y527050D02*
X286766Y527050D01*
D11*
X453071Y238063D03*
D16*
X451677Y238063D01*
X431292Y217678D02*
X431292Y199898D01*
D11*
X431292Y199898D03*
D16*
X431292Y217678D02*
X451677Y238063D01*
D11*
X257588Y165608D03*
D16*
X299720Y165608D01*
X346202Y119126D01*
X457962Y119126D01*
X485394Y146558D01*
D11*
X485394Y146558D03*
X257588Y149352D03*
D16*
X294132Y149352D01*
X339344Y104140D01*
X473710Y104140D01*
X487680Y118110D01*
D11*
X487680Y118110D03*
X257588Y133096D03*
X489966Y70104D03*
D16*
X454914Y68580D02*
X437896Y85598D01*
X454914Y68580D02*
X488442Y68580D01*
X489966Y70104D01*
X292862Y133096D02*
X257588Y133096D01*
X292862Y133096D02*
X340360Y85598D01*
X437896Y85598D01*
D11*
X257588Y107696D03*
D16*
X295148Y107696D01*
X329184Y73660D01*
X476758Y29718D02*
X487934Y29718D01*
D11*
X487934Y29718D03*
D16*
X432816Y73660D02*
X329184Y73660D01*
X432816Y73660D02*
X476758Y29718D01*
D11*
X85009Y658287D03*
D15*
X105837Y658287D01*
X111760Y664210D01*
D11*
X111760Y664210D03*
M02*
