G04 EAGLE Gerber RS-274X export*
G75*
%MOMM*%
%FSLAX34Y34*%
%LPD*%
%INCopper Layer 15*%
%IPPOS*%
%AMOC8*
5,1,8,0,0,1.08239X$1,22.5*%
G01*
%ADD10C,4.032000*%
%ADD11C,0.457200*%
%ADD12C,0.525000*%

G36*
X509501Y10940D02*
X509501Y10940D01*
X509640Y10953D01*
X509659Y10960D01*
X509679Y10963D01*
X509808Y11014D01*
X509939Y11061D01*
X509956Y11072D01*
X509975Y11080D01*
X510087Y11161D01*
X510203Y11239D01*
X510216Y11255D01*
X510232Y11266D01*
X510321Y11374D01*
X510413Y11478D01*
X510422Y11496D01*
X510435Y11511D01*
X510494Y11637D01*
X510558Y11761D01*
X510562Y11781D01*
X510571Y11799D01*
X510597Y11935D01*
X510627Y12071D01*
X510627Y12092D01*
X510630Y12111D01*
X510622Y12250D01*
X510618Y12389D01*
X510612Y12409D01*
X510611Y12429D01*
X510568Y12561D01*
X510529Y12695D01*
X510519Y12712D01*
X510513Y12731D01*
X510438Y12849D01*
X510368Y12969D01*
X510349Y12990D01*
X510343Y13000D01*
X510328Y13014D01*
X510261Y13089D01*
X504172Y19179D01*
X500793Y27336D01*
X500793Y36164D01*
X504172Y44321D01*
X510415Y50564D01*
X515766Y52781D01*
X515886Y52849D01*
X516010Y52914D01*
X516025Y52928D01*
X516042Y52938D01*
X516142Y53035D01*
X516245Y53128D01*
X516256Y53145D01*
X516271Y53159D01*
X516343Y53278D01*
X516420Y53394D01*
X516426Y53413D01*
X516437Y53431D01*
X516478Y53563D01*
X516523Y53695D01*
X516525Y53715D01*
X516530Y53734D01*
X516537Y53873D01*
X516548Y54012D01*
X516545Y54032D01*
X516546Y54052D01*
X516518Y54188D01*
X516494Y54325D01*
X516485Y54344D01*
X516481Y54364D01*
X516420Y54489D01*
X516363Y54615D01*
X516351Y54631D01*
X516342Y54649D01*
X516251Y54755D01*
X516165Y54864D01*
X516148Y54876D01*
X516135Y54891D01*
X516021Y54971D01*
X515910Y55055D01*
X515885Y55067D01*
X515875Y55074D01*
X515856Y55082D01*
X515766Y55126D01*
X510923Y57132D01*
X504680Y63375D01*
X501301Y71532D01*
X501301Y80360D01*
X504680Y88517D01*
X510923Y94760D01*
X515893Y96819D01*
X516013Y96888D01*
X516137Y96953D01*
X516152Y96966D01*
X516169Y96976D01*
X516269Y97073D01*
X516372Y97167D01*
X516383Y97183D01*
X516398Y97198D01*
X516470Y97316D01*
X516547Y97432D01*
X516553Y97451D01*
X516564Y97469D01*
X516605Y97601D01*
X516650Y97733D01*
X516652Y97753D01*
X516657Y97773D01*
X516664Y97911D01*
X516675Y98050D01*
X516672Y98070D01*
X516673Y98090D01*
X516645Y98226D01*
X516621Y98363D01*
X516612Y98382D01*
X516608Y98402D01*
X516547Y98527D01*
X516490Y98653D01*
X516478Y98669D01*
X516469Y98687D01*
X516378Y98794D01*
X516292Y98902D01*
X516275Y98914D01*
X516262Y98929D01*
X516148Y99010D01*
X516037Y99093D01*
X516012Y99105D01*
X516002Y99113D01*
X515983Y99120D01*
X515893Y99164D01*
X510669Y101328D01*
X504426Y107571D01*
X501047Y115728D01*
X501047Y124556D01*
X504426Y132713D01*
X510669Y138956D01*
X516940Y141554D01*
X517060Y141622D01*
X517183Y141687D01*
X517198Y141701D01*
X517216Y141711D01*
X517316Y141808D01*
X517419Y141901D01*
X517430Y141918D01*
X517444Y141932D01*
X517517Y142051D01*
X517593Y142167D01*
X517600Y142186D01*
X517611Y142204D01*
X517651Y142336D01*
X517697Y142468D01*
X517698Y142488D01*
X517704Y142507D01*
X517711Y142646D01*
X517722Y142785D01*
X517718Y142805D01*
X517719Y142825D01*
X517691Y142961D01*
X517668Y143098D01*
X517659Y143117D01*
X517655Y143137D01*
X517594Y143262D01*
X517537Y143388D01*
X517524Y143404D01*
X517515Y143422D01*
X517425Y143528D01*
X517338Y143637D01*
X517322Y143649D01*
X517309Y143664D01*
X517195Y143744D01*
X517084Y143828D01*
X517059Y143840D01*
X517049Y143847D01*
X517030Y143855D01*
X516940Y143899D01*
X511177Y146286D01*
X504934Y152529D01*
X501555Y160686D01*
X501555Y169514D01*
X504934Y177671D01*
X511177Y183914D01*
X514772Y185403D01*
X514892Y185472D01*
X515015Y185537D01*
X515030Y185551D01*
X515048Y185561D01*
X515148Y185657D01*
X515251Y185751D01*
X515262Y185768D01*
X515276Y185782D01*
X515349Y185900D01*
X515425Y186017D01*
X515432Y186036D01*
X515443Y186053D01*
X515483Y186186D01*
X515529Y186317D01*
X515530Y186338D01*
X515536Y186357D01*
X515543Y186495D01*
X515554Y186634D01*
X515550Y186655D01*
X515551Y186675D01*
X515523Y186810D01*
X515500Y186948D01*
X515491Y186966D01*
X515487Y186986D01*
X515426Y187111D01*
X515369Y187238D01*
X515356Y187254D01*
X515347Y187272D01*
X515257Y187378D01*
X515170Y187486D01*
X515154Y187498D01*
X515141Y187514D01*
X515027Y187594D01*
X514916Y187677D01*
X514891Y187690D01*
X514881Y187697D01*
X514862Y187704D01*
X514772Y187748D01*
X509399Y189974D01*
X503156Y196217D01*
X499777Y204374D01*
X499777Y213202D01*
X503156Y221359D01*
X509399Y227602D01*
X514115Y229556D01*
X514235Y229624D01*
X514359Y229689D01*
X514374Y229703D01*
X514391Y229713D01*
X514491Y229810D01*
X514594Y229903D01*
X514605Y229920D01*
X514620Y229934D01*
X514692Y230053D01*
X514769Y230169D01*
X514775Y230188D01*
X514786Y230205D01*
X514827Y230338D01*
X514872Y230470D01*
X514874Y230490D01*
X514879Y230509D01*
X514886Y230648D01*
X514897Y230787D01*
X514894Y230807D01*
X514895Y230827D01*
X514867Y230963D01*
X514843Y231100D01*
X514834Y231119D01*
X514830Y231139D01*
X514769Y231264D01*
X514712Y231390D01*
X514700Y231406D01*
X514691Y231424D01*
X514600Y231531D01*
X514514Y231639D01*
X514497Y231651D01*
X514484Y231666D01*
X514370Y231747D01*
X514259Y231830D01*
X514234Y231842D01*
X514224Y231849D01*
X514205Y231857D01*
X514115Y231901D01*
X508637Y234170D01*
X502394Y240413D01*
X499015Y248570D01*
X499015Y257398D01*
X502394Y265555D01*
X508637Y271798D01*
X509441Y272131D01*
X509502Y272166D01*
X509567Y272192D01*
X509640Y272244D01*
X509718Y272289D01*
X509768Y272337D01*
X509824Y272378D01*
X509882Y272448D01*
X509946Y272510D01*
X509983Y272570D01*
X510027Y272623D01*
X510065Y272705D01*
X510112Y272781D01*
X510133Y272848D01*
X510163Y272911D01*
X510180Y272999D01*
X510206Y273085D01*
X510209Y273155D01*
X510222Y273224D01*
X510217Y273313D01*
X510221Y273403D01*
X510207Y273471D01*
X510203Y273541D01*
X510175Y273626D01*
X510157Y273714D01*
X510126Y273777D01*
X510105Y273843D01*
X510057Y273919D01*
X510017Y274000D01*
X509972Y274053D01*
X509935Y274112D01*
X509869Y274174D01*
X509811Y274242D01*
X509754Y274282D01*
X509703Y274330D01*
X509624Y274373D01*
X509551Y274425D01*
X509485Y274450D01*
X509424Y274484D01*
X509338Y274506D01*
X509253Y274538D01*
X509184Y274546D01*
X509116Y274563D01*
X508956Y274573D01*
X468629Y274573D01*
X468629Y519177D01*
X546608Y519177D01*
X546726Y519192D01*
X546845Y519199D01*
X546883Y519212D01*
X546924Y519217D01*
X547034Y519260D01*
X547147Y519297D01*
X547182Y519319D01*
X547219Y519334D01*
X547315Y519404D01*
X547416Y519467D01*
X547444Y519497D01*
X547477Y519520D01*
X547553Y519612D01*
X547634Y519699D01*
X547654Y519734D01*
X547679Y519765D01*
X547730Y519873D01*
X547788Y519977D01*
X547798Y520017D01*
X547815Y520053D01*
X547837Y520170D01*
X547867Y520285D01*
X547871Y520346D01*
X547875Y520366D01*
X547873Y520386D01*
X547877Y520446D01*
X547877Y749808D01*
X547862Y749926D01*
X547855Y750045D01*
X547842Y750083D01*
X547837Y750124D01*
X547794Y750234D01*
X547757Y750347D01*
X547735Y750382D01*
X547720Y750419D01*
X547651Y750515D01*
X547587Y750616D01*
X547557Y750644D01*
X547534Y750677D01*
X547442Y750753D01*
X547355Y750834D01*
X547320Y750854D01*
X547289Y750879D01*
X547181Y750930D01*
X547077Y750988D01*
X547037Y750998D01*
X547001Y751015D01*
X546884Y751037D01*
X546769Y751067D01*
X546709Y751071D01*
X546689Y751075D01*
X546668Y751073D01*
X546608Y751077D01*
X12192Y751077D01*
X12074Y751062D01*
X11955Y751055D01*
X11917Y751042D01*
X11876Y751037D01*
X11766Y750994D01*
X11653Y750957D01*
X11618Y750935D01*
X11581Y750920D01*
X11485Y750851D01*
X11384Y750787D01*
X11356Y750757D01*
X11323Y750734D01*
X11247Y750642D01*
X11166Y750555D01*
X11146Y750520D01*
X11121Y750489D01*
X11070Y750381D01*
X11012Y750277D01*
X11002Y750237D01*
X10985Y750201D01*
X10963Y750084D01*
X10933Y749969D01*
X10929Y749909D01*
X10925Y749889D01*
X10927Y749868D01*
X10923Y749808D01*
X10923Y339090D01*
X10938Y338972D01*
X10945Y338853D01*
X10958Y338815D01*
X10963Y338774D01*
X11006Y338664D01*
X11043Y338551D01*
X11065Y338516D01*
X11080Y338479D01*
X11149Y338383D01*
X11213Y338282D01*
X11243Y338254D01*
X11266Y338221D01*
X11358Y338146D01*
X11445Y338064D01*
X11480Y338044D01*
X11511Y338019D01*
X11619Y337968D01*
X11723Y337910D01*
X11763Y337900D01*
X11799Y337883D01*
X11916Y337861D01*
X12031Y337831D01*
X12091Y337827D01*
X12111Y337823D01*
X12132Y337825D01*
X12192Y337821D01*
X108459Y337821D01*
X108459Y12192D01*
X108474Y12074D01*
X108481Y11955D01*
X108494Y11917D01*
X108499Y11876D01*
X108542Y11766D01*
X108579Y11653D01*
X108601Y11618D01*
X108616Y11581D01*
X108686Y11485D01*
X108749Y11384D01*
X108779Y11356D01*
X108802Y11323D01*
X108894Y11247D01*
X108981Y11166D01*
X109016Y11146D01*
X109047Y11121D01*
X109155Y11070D01*
X109259Y11012D01*
X109299Y11002D01*
X109335Y10985D01*
X109452Y10963D01*
X109567Y10933D01*
X109628Y10929D01*
X109648Y10925D01*
X109668Y10927D01*
X109728Y10923D01*
X509364Y10923D01*
X509501Y10940D01*
G37*
%LPC*%
G36*
X510952Y578009D02*
X510952Y578009D01*
X502795Y581388D01*
X496552Y587631D01*
X493173Y595788D01*
X493173Y604616D01*
X496552Y612773D01*
X502795Y619016D01*
X510952Y622395D01*
X519780Y622395D01*
X527937Y619016D01*
X534180Y612773D01*
X537559Y604616D01*
X537559Y595788D01*
X534180Y587631D01*
X527937Y581388D01*
X519780Y578009D01*
X510952Y578009D01*
G37*
%LPD*%
%LPC*%
G36*
X510952Y530003D02*
X510952Y530003D01*
X502795Y533382D01*
X496552Y539625D01*
X493173Y547782D01*
X493173Y556610D01*
X496552Y564767D01*
X502795Y571010D01*
X510952Y574389D01*
X519780Y574389D01*
X527937Y571010D01*
X534180Y564767D01*
X537559Y556610D01*
X537559Y547782D01*
X534180Y539625D01*
X527937Y533382D01*
X519780Y530003D01*
X510952Y530003D01*
G37*
%LPD*%
%LPC*%
G36*
X97402Y680723D02*
X97402Y680723D01*
X92565Y682727D01*
X88863Y686429D01*
X86859Y691266D01*
X86859Y696502D01*
X88863Y701339D01*
X92565Y705041D01*
X97402Y707045D01*
X102638Y707045D01*
X107475Y705041D01*
X111177Y701339D01*
X113181Y696502D01*
X113181Y691266D01*
X111177Y686429D01*
X107475Y682727D01*
X102638Y680723D01*
X97402Y680723D01*
G37*
%LPD*%
%LPC*%
G36*
X39602Y680723D02*
X39602Y680723D01*
X34765Y682727D01*
X31063Y686429D01*
X29059Y691266D01*
X29059Y696502D01*
X31063Y701339D01*
X34765Y705041D01*
X39602Y707045D01*
X44838Y707045D01*
X49675Y705041D01*
X53377Y701339D01*
X55381Y696502D01*
X55381Y691266D01*
X53377Y686429D01*
X49675Y682727D01*
X44838Y680723D01*
X39602Y680723D01*
G37*
%LPD*%
%LPC*%
G36*
X89098Y633172D02*
X89098Y633172D01*
X89077Y633238D01*
X89065Y633307D01*
X89028Y633389D01*
X89000Y633474D01*
X88963Y633533D01*
X88934Y633597D01*
X88878Y633667D01*
X88830Y633743D01*
X88779Y633791D01*
X88735Y633845D01*
X88664Y633900D01*
X88598Y633961D01*
X88537Y633995D01*
X88481Y634037D01*
X88337Y634108D01*
X86374Y634921D01*
X84921Y636374D01*
X84134Y638272D01*
X84134Y640328D01*
X84921Y642226D01*
X86374Y643679D01*
X88272Y644466D01*
X90328Y644466D01*
X92226Y643679D01*
X93679Y642226D01*
X94466Y640328D01*
X94466Y638272D01*
X93679Y636374D01*
X92226Y634921D01*
X90318Y634130D01*
X90280Y634126D01*
X90210Y634127D01*
X90122Y634106D01*
X90033Y634094D01*
X89968Y634069D01*
X89901Y634052D01*
X89821Y634010D01*
X89738Y633977D01*
X89681Y633936D01*
X89619Y633904D01*
X89553Y633843D01*
X89480Y633791D01*
X89436Y633737D01*
X89384Y633690D01*
X89335Y633615D01*
X89278Y633546D01*
X89248Y633482D01*
X89209Y633424D01*
X89180Y633339D01*
X89142Y633258D01*
X89129Y633189D01*
X89106Y633123D01*
X89103Y633087D01*
X89098Y633172D01*
G37*
%LPD*%
%LPC*%
G36*
X87872Y621334D02*
X87872Y621334D01*
X85974Y622121D01*
X84521Y623574D01*
X83734Y625472D01*
X83734Y627528D01*
X84521Y629426D01*
X85974Y630879D01*
X87882Y631670D01*
X87920Y631674D01*
X87990Y631673D01*
X88078Y631694D01*
X88167Y631706D01*
X88232Y631731D01*
X88299Y631748D01*
X88379Y631790D01*
X88462Y631823D01*
X88519Y631864D01*
X88581Y631896D01*
X88647Y631957D01*
X88720Y632009D01*
X88764Y632063D01*
X88816Y632110D01*
X88865Y632185D01*
X88922Y632254D01*
X88952Y632318D01*
X88991Y632376D01*
X89020Y632461D01*
X89058Y632542D01*
X89071Y632611D01*
X89094Y632677D01*
X89097Y632713D01*
X89102Y632628D01*
X89123Y632562D01*
X89135Y632493D01*
X89172Y632411D01*
X89200Y632326D01*
X89237Y632267D01*
X89266Y632203D01*
X89322Y632133D01*
X89370Y632057D01*
X89421Y632009D01*
X89465Y631955D01*
X89536Y631900D01*
X89602Y631839D01*
X89663Y631805D01*
X89719Y631763D01*
X89863Y631692D01*
X91826Y630879D01*
X93279Y629426D01*
X94066Y627528D01*
X94066Y625472D01*
X93279Y623574D01*
X91826Y622121D01*
X89928Y621334D01*
X87872Y621334D01*
G37*
%LPD*%
%LPC*%
G36*
X139072Y634134D02*
X139072Y634134D01*
X137174Y634921D01*
X135721Y636374D01*
X134934Y638272D01*
X134934Y640328D01*
X135721Y642226D01*
X137174Y643679D01*
X139072Y644466D01*
X141128Y644466D01*
X143026Y643679D01*
X144479Y642226D01*
X145266Y640328D01*
X145266Y638272D01*
X144479Y636374D01*
X143026Y634921D01*
X141128Y634134D01*
X139072Y634134D01*
G37*
%LPD*%
%LPC*%
G36*
X211638Y732941D02*
X211638Y732941D01*
X209864Y733676D01*
X208506Y735034D01*
X207771Y736808D01*
X207771Y738728D01*
X208506Y740502D01*
X209864Y741860D01*
X211638Y742595D01*
X213558Y742595D01*
X215332Y741860D01*
X216690Y740502D01*
X217425Y738728D01*
X217425Y736808D01*
X216690Y735034D01*
X215332Y733676D01*
X213558Y732941D01*
X211638Y732941D01*
G37*
%LPD*%
%LPC*%
G36*
X176586Y711707D02*
X176586Y711707D01*
X174812Y712442D01*
X173454Y713800D01*
X172719Y715574D01*
X172719Y717494D01*
X173454Y719268D01*
X174812Y720626D01*
X176586Y721361D01*
X178506Y721361D01*
X180280Y720626D01*
X181638Y719268D01*
X182373Y717494D01*
X182373Y715574D01*
X181638Y713800D01*
X180280Y712442D01*
X178506Y711707D01*
X176586Y711707D01*
G37*
%LPD*%
%LPC*%
G36*
X67874Y691507D02*
X67874Y691507D01*
X66100Y692242D01*
X64742Y693600D01*
X64007Y695374D01*
X64007Y697294D01*
X64742Y699068D01*
X66100Y700426D01*
X67874Y701161D01*
X69794Y701161D01*
X71568Y700426D01*
X72926Y699068D01*
X73661Y697294D01*
X73661Y695374D01*
X72926Y693600D01*
X71568Y692242D01*
X69794Y691507D01*
X67874Y691507D01*
G37*
%LPD*%
%LPC*%
G36*
X110800Y659383D02*
X110800Y659383D01*
X109026Y660118D01*
X107668Y661476D01*
X106933Y663250D01*
X106933Y665170D01*
X107668Y666944D01*
X109026Y668302D01*
X110800Y669037D01*
X112720Y669037D01*
X114494Y668302D01*
X115852Y666944D01*
X116587Y665170D01*
X116587Y663250D01*
X115852Y661476D01*
X114494Y660118D01*
X112720Y659383D01*
X110800Y659383D01*
G37*
%LPD*%
%LPC*%
G36*
X84049Y653460D02*
X84049Y653460D01*
X82275Y654195D01*
X80917Y655553D01*
X80182Y657327D01*
X80182Y659247D01*
X80917Y661021D01*
X82275Y662379D01*
X84049Y663113D01*
X85969Y663113D01*
X87743Y662379D01*
X89101Y661021D01*
X89835Y659247D01*
X89835Y657327D01*
X89101Y655553D01*
X87743Y654195D01*
X85969Y653460D01*
X84049Y653460D01*
G37*
%LPD*%
%LPC*%
G36*
X57714Y641095D02*
X57714Y641095D01*
X55940Y641830D01*
X54582Y643188D01*
X53847Y644962D01*
X53847Y646882D01*
X54582Y648656D01*
X55940Y650014D01*
X57714Y650749D01*
X59634Y650749D01*
X61408Y650014D01*
X62766Y648656D01*
X63501Y646882D01*
X63501Y644962D01*
X62766Y643188D01*
X61408Y641830D01*
X59634Y641095D01*
X57714Y641095D01*
G37*
%LPD*%
%LPC*%
G36*
X246658Y629157D02*
X246658Y629157D01*
X244884Y629892D01*
X243526Y631250D01*
X242791Y633024D01*
X242791Y634944D01*
X243526Y636718D01*
X244884Y638076D01*
X246658Y638811D01*
X248578Y638811D01*
X250352Y638076D01*
X251710Y636718D01*
X252445Y634944D01*
X252445Y633024D01*
X251710Y631250D01*
X250352Y629892D01*
X248578Y629157D01*
X246658Y629157D01*
G37*
%LPD*%
%LPC*%
G36*
X304348Y623061D02*
X304348Y623061D01*
X302574Y623796D01*
X301216Y625154D01*
X300481Y626928D01*
X300481Y628848D01*
X301216Y630622D01*
X302574Y631980D01*
X304348Y632715D01*
X306268Y632715D01*
X308042Y631980D01*
X309400Y630622D01*
X310135Y628848D01*
X310135Y626928D01*
X309400Y625154D01*
X308042Y623796D01*
X306268Y623061D01*
X304348Y623061D01*
G37*
%LPD*%
%LPC*%
G36*
X86154Y603325D02*
X86154Y603325D01*
X84380Y604060D01*
X83022Y605418D01*
X82287Y607192D01*
X82287Y609112D01*
X83022Y610886D01*
X84380Y612244D01*
X86154Y612979D01*
X88074Y612979D01*
X89848Y612244D01*
X91206Y610886D01*
X91941Y609112D01*
X91941Y607192D01*
X91206Y605418D01*
X89848Y604060D01*
X88074Y603325D01*
X86154Y603325D01*
G37*
%LPD*%
%LPC*%
G36*
X102210Y603303D02*
X102210Y603303D01*
X100436Y604038D01*
X99078Y605396D01*
X98343Y607170D01*
X98343Y609090D01*
X99078Y610864D01*
X100436Y612222D01*
X102210Y612957D01*
X104130Y612957D01*
X105904Y612222D01*
X107262Y610864D01*
X107997Y609090D01*
X107997Y607170D01*
X107262Y605396D01*
X105904Y604038D01*
X104130Y603303D01*
X102210Y603303D01*
G37*
%LPD*%
%LPC*%
G36*
X232212Y601979D02*
X232212Y601979D01*
X230438Y602714D01*
X229080Y604072D01*
X228345Y605846D01*
X228345Y607766D01*
X229080Y609540D01*
X230438Y610898D01*
X232212Y611633D01*
X234132Y611633D01*
X235906Y610898D01*
X237264Y609540D01*
X237999Y607766D01*
X237999Y605846D01*
X237264Y604072D01*
X235906Y602714D01*
X234132Y601979D01*
X232212Y601979D01*
G37*
%LPD*%
%LPC*%
G36*
X302824Y594105D02*
X302824Y594105D01*
X301050Y594840D01*
X299692Y596198D01*
X298957Y597972D01*
X298957Y599892D01*
X299692Y601666D01*
X301050Y603024D01*
X302824Y603759D01*
X304744Y603759D01*
X306518Y603024D01*
X307876Y601666D01*
X308611Y599892D01*
X308611Y597972D01*
X307876Y596198D01*
X306518Y594840D01*
X304744Y594105D01*
X302824Y594105D01*
G37*
%LPD*%
%LPC*%
G36*
X310952Y575817D02*
X310952Y575817D01*
X309178Y576552D01*
X307820Y577910D01*
X307085Y579684D01*
X307085Y581604D01*
X307820Y583378D01*
X309178Y584736D01*
X310952Y585471D01*
X312872Y585471D01*
X314646Y584736D01*
X316004Y583378D01*
X316739Y581604D01*
X316739Y579684D01*
X316004Y577910D01*
X314646Y576552D01*
X312872Y575817D01*
X310952Y575817D01*
G37*
%LPD*%
%LPC*%
G36*
X60232Y570121D02*
X60232Y570121D01*
X58458Y570856D01*
X57100Y572214D01*
X56365Y573988D01*
X56365Y575908D01*
X57100Y577682D01*
X58458Y579040D01*
X60232Y579775D01*
X62152Y579775D01*
X63926Y579040D01*
X65284Y577682D01*
X66019Y575908D01*
X66019Y573988D01*
X65284Y572214D01*
X63926Y570856D01*
X62152Y570121D01*
X60232Y570121D01*
G37*
%LPD*%
%LPC*%
G36*
X43744Y562101D02*
X43744Y562101D01*
X41970Y562836D01*
X40612Y564194D01*
X39877Y565968D01*
X39877Y567888D01*
X40612Y569662D01*
X41970Y571020D01*
X43744Y571755D01*
X45664Y571755D01*
X47438Y571020D01*
X48796Y569662D01*
X49531Y567888D01*
X49531Y565968D01*
X48796Y564194D01*
X47438Y562836D01*
X45664Y562101D01*
X43744Y562101D01*
G37*
%LPD*%
%LPC*%
G36*
X486974Y24891D02*
X486974Y24891D01*
X485200Y25626D01*
X483842Y26984D01*
X483107Y28758D01*
X483107Y30678D01*
X483842Y32452D01*
X485200Y33810D01*
X486974Y34545D01*
X488894Y34545D01*
X490668Y33810D01*
X492026Y32452D01*
X492761Y30678D01*
X492761Y28758D01*
X492026Y26984D01*
X490668Y25626D01*
X488894Y24891D01*
X486974Y24891D01*
G37*
%LPD*%
%LPC*%
G36*
X285806Y522223D02*
X285806Y522223D01*
X284032Y522958D01*
X282674Y524316D01*
X281939Y526090D01*
X281939Y528010D01*
X282674Y529784D01*
X284032Y531142D01*
X285806Y531877D01*
X287726Y531877D01*
X289500Y531142D01*
X290858Y529784D01*
X291593Y528010D01*
X291593Y526090D01*
X290858Y524316D01*
X289500Y522958D01*
X287726Y522223D01*
X285806Y522223D01*
G37*
%LPD*%
%LPC*%
G36*
X87079Y517497D02*
X87079Y517497D01*
X85305Y518231D01*
X83947Y519589D01*
X83212Y521363D01*
X83212Y523283D01*
X83947Y525057D01*
X85305Y526415D01*
X87079Y527150D01*
X88999Y527150D01*
X90773Y526415D01*
X92131Y525057D01*
X92865Y523283D01*
X92865Y521363D01*
X92131Y519589D01*
X90773Y518231D01*
X88999Y517497D01*
X87079Y517497D01*
G37*
%LPD*%
%LPC*%
G36*
X388930Y509015D02*
X388930Y509015D01*
X387156Y509750D01*
X385798Y511108D01*
X385063Y512882D01*
X385063Y514802D01*
X385798Y516576D01*
X387156Y517934D01*
X388930Y518669D01*
X390850Y518669D01*
X392624Y517934D01*
X393982Y516576D01*
X394717Y514802D01*
X394717Y512882D01*
X393982Y511108D01*
X392624Y509750D01*
X390850Y509015D01*
X388930Y509015D01*
G37*
%LPD*%
%LPC*%
G36*
X268280Y508253D02*
X268280Y508253D01*
X266506Y508988D01*
X265148Y510346D01*
X264413Y512120D01*
X264413Y514040D01*
X265148Y515814D01*
X266506Y517172D01*
X268280Y517907D01*
X270200Y517907D01*
X271974Y517172D01*
X273332Y515814D01*
X274067Y514040D01*
X274067Y512120D01*
X273332Y510346D01*
X271974Y508988D01*
X270200Y508253D01*
X268280Y508253D01*
G37*
%LPD*%
%LPC*%
G36*
X64572Y508253D02*
X64572Y508253D01*
X62798Y508988D01*
X61440Y510346D01*
X60705Y512120D01*
X60705Y514040D01*
X61440Y515814D01*
X62798Y517172D01*
X64572Y517907D01*
X66492Y517907D01*
X68266Y517172D01*
X69624Y515814D01*
X70359Y514040D01*
X70359Y512120D01*
X69624Y510346D01*
X68266Y508988D01*
X66492Y508253D01*
X64572Y508253D01*
G37*
%LPD*%
%LPC*%
G36*
X410774Y507999D02*
X410774Y507999D01*
X409000Y508734D01*
X407642Y510092D01*
X406907Y511866D01*
X406907Y513786D01*
X407642Y515560D01*
X409000Y516918D01*
X410774Y517653D01*
X412694Y517653D01*
X414468Y516918D01*
X415826Y515560D01*
X416561Y513786D01*
X416561Y511866D01*
X415826Y510092D01*
X414468Y508734D01*
X412694Y507999D01*
X410774Y507999D01*
G37*
%LPD*%
%LPC*%
G36*
X129850Y498601D02*
X129850Y498601D01*
X128076Y499336D01*
X126718Y500694D01*
X125983Y502468D01*
X125983Y504388D01*
X126718Y506162D01*
X128076Y507520D01*
X129850Y508255D01*
X131770Y508255D01*
X133544Y507520D01*
X134902Y506162D01*
X135637Y504388D01*
X135637Y502468D01*
X134902Y500694D01*
X133544Y499336D01*
X131770Y498601D01*
X129850Y498601D01*
G37*
%LPD*%
%LPC*%
G36*
X282758Y494283D02*
X282758Y494283D01*
X280984Y495018D01*
X279626Y496376D01*
X278891Y498150D01*
X278891Y500070D01*
X279626Y501844D01*
X280984Y503202D01*
X282758Y503937D01*
X284678Y503937D01*
X286452Y503202D01*
X287810Y501844D01*
X288545Y500070D01*
X288545Y498150D01*
X287810Y496376D01*
X286452Y495018D01*
X284678Y494283D01*
X282758Y494283D01*
G37*
%LPD*%
%LPC*%
G36*
X41712Y473709D02*
X41712Y473709D01*
X39938Y474444D01*
X38580Y475802D01*
X37845Y477576D01*
X37845Y479496D01*
X38580Y481270D01*
X39938Y482628D01*
X41712Y483363D01*
X43632Y483363D01*
X45406Y482628D01*
X46764Y481270D01*
X47499Y479496D01*
X47499Y477576D01*
X46764Y475802D01*
X45406Y474444D01*
X43632Y473709D01*
X41712Y473709D01*
G37*
%LPD*%
%LPC*%
G36*
X137978Y468883D02*
X137978Y468883D01*
X136204Y469618D01*
X134846Y470976D01*
X134111Y472750D01*
X134111Y474670D01*
X134846Y476444D01*
X136204Y477802D01*
X137978Y478537D01*
X139898Y478537D01*
X141672Y477802D01*
X143030Y476444D01*
X143765Y474670D01*
X143765Y472750D01*
X143030Y470976D01*
X141672Y469618D01*
X139898Y468883D01*
X137978Y468883D01*
G37*
%LPD*%
%LPC*%
G36*
X448112Y465073D02*
X448112Y465073D01*
X446338Y465808D01*
X444980Y467166D01*
X444245Y468940D01*
X444245Y470860D01*
X444980Y472634D01*
X446338Y473992D01*
X448112Y474727D01*
X450032Y474727D01*
X451806Y473992D01*
X453164Y472634D01*
X453899Y470860D01*
X453899Y468940D01*
X453164Y467166D01*
X451806Y465808D01*
X450032Y465073D01*
X448112Y465073D01*
G37*
%LPD*%
%LPC*%
G36*
X423220Y464311D02*
X423220Y464311D01*
X421446Y465046D01*
X420088Y466404D01*
X419353Y468178D01*
X419353Y470098D01*
X420088Y471872D01*
X421446Y473230D01*
X423220Y473965D01*
X425140Y473965D01*
X426914Y473230D01*
X428272Y471872D01*
X429007Y470098D01*
X429007Y468178D01*
X428272Y466404D01*
X426914Y465046D01*
X425140Y464311D01*
X423220Y464311D01*
G37*
%LPD*%
%LPC*%
G36*
X309174Y463041D02*
X309174Y463041D01*
X307400Y463776D01*
X306042Y465134D01*
X305307Y466908D01*
X305307Y468828D01*
X306042Y470602D01*
X307400Y471960D01*
X309174Y472695D01*
X311094Y472695D01*
X312868Y471960D01*
X314226Y470602D01*
X314961Y468828D01*
X314961Y466908D01*
X314226Y465134D01*
X312868Y463776D01*
X311094Y463041D01*
X309174Y463041D01*
G37*
%LPD*%
%LPC*%
G36*
X75240Y462787D02*
X75240Y462787D01*
X73466Y463522D01*
X72108Y464880D01*
X71373Y466654D01*
X71373Y468574D01*
X72108Y470348D01*
X73466Y471706D01*
X75240Y472441D01*
X77160Y472441D01*
X78934Y471706D01*
X80292Y470348D01*
X81027Y468574D01*
X81027Y466654D01*
X80292Y464880D01*
X78934Y463522D01*
X77160Y462787D01*
X75240Y462787D01*
G37*
%LPD*%
%LPC*%
G36*
X372736Y460947D02*
X372736Y460947D01*
X370962Y461682D01*
X369604Y463040D01*
X368870Y464814D01*
X368870Y466734D01*
X369604Y468508D01*
X370962Y469866D01*
X372736Y470600D01*
X374656Y470600D01*
X376430Y469866D01*
X377788Y468508D01*
X378523Y466734D01*
X378523Y464814D01*
X377788Y463040D01*
X376430Y461682D01*
X374656Y460947D01*
X372736Y460947D01*
G37*
%LPD*%
%LPC*%
G36*
X358958Y451611D02*
X358958Y451611D01*
X357184Y452346D01*
X355826Y453704D01*
X355091Y455478D01*
X355091Y457398D01*
X355826Y459172D01*
X357184Y460530D01*
X358958Y461265D01*
X360878Y461265D01*
X362652Y460530D01*
X364010Y459172D01*
X364745Y457398D01*
X364745Y455478D01*
X364010Y453704D01*
X362652Y452346D01*
X360878Y451611D01*
X358958Y451611D01*
G37*
%LPD*%
%LPC*%
G36*
X385882Y451103D02*
X385882Y451103D01*
X384108Y451838D01*
X382750Y453196D01*
X382015Y454970D01*
X382015Y456890D01*
X382750Y458664D01*
X384108Y460022D01*
X385882Y460757D01*
X387802Y460757D01*
X389576Y460022D01*
X390934Y458664D01*
X391669Y456890D01*
X391669Y454970D01*
X390934Y453196D01*
X389576Y451838D01*
X387802Y451103D01*
X385882Y451103D01*
G37*
%LPD*%
%LPC*%
G36*
X320634Y450119D02*
X320634Y450119D01*
X318860Y450854D01*
X317502Y452212D01*
X316767Y453986D01*
X316767Y455906D01*
X317502Y457680D01*
X318860Y459038D01*
X320634Y459772D01*
X322554Y459772D01*
X324328Y459038D01*
X325686Y457680D01*
X326421Y455906D01*
X326421Y453986D01*
X325686Y452212D01*
X324328Y450854D01*
X322554Y450119D01*
X320634Y450119D01*
G37*
%LPD*%
%LPC*%
G36*
X221036Y445261D02*
X221036Y445261D01*
X219262Y445996D01*
X217904Y447354D01*
X217169Y449128D01*
X217169Y451048D01*
X217904Y452822D01*
X219262Y454180D01*
X221036Y454915D01*
X222956Y454915D01*
X224730Y454180D01*
X226088Y452822D01*
X226823Y451048D01*
X226823Y449128D01*
X226088Y447354D01*
X224730Y445996D01*
X222956Y445261D01*
X221036Y445261D01*
G37*
%LPD*%
%LPC*%
G36*
X298538Y441451D02*
X298538Y441451D01*
X296764Y442186D01*
X295406Y443544D01*
X294671Y445318D01*
X294671Y447238D01*
X295406Y449012D01*
X296764Y450370D01*
X298538Y451105D01*
X300458Y451105D01*
X302232Y450370D01*
X303590Y449012D01*
X304324Y447238D01*
X304324Y445318D01*
X303590Y443544D01*
X302232Y442186D01*
X300458Y441451D01*
X298538Y441451D01*
G37*
%LPD*%
%LPC*%
G36*
X446080Y439673D02*
X446080Y439673D01*
X444306Y440408D01*
X442948Y441766D01*
X442213Y443540D01*
X442213Y445460D01*
X442948Y447234D01*
X444306Y448592D01*
X446080Y449327D01*
X448000Y449327D01*
X449774Y448592D01*
X451132Y447234D01*
X451867Y445460D01*
X451867Y443540D01*
X451132Y441766D01*
X449774Y440408D01*
X448000Y439673D01*
X446080Y439673D01*
G37*
%LPD*%
%LPC*%
G36*
X298538Y425195D02*
X298538Y425195D01*
X296764Y425930D01*
X295406Y427288D01*
X294671Y429062D01*
X294671Y430982D01*
X295406Y432756D01*
X296764Y434114D01*
X298538Y434849D01*
X300458Y434849D01*
X302232Y434114D01*
X303590Y432756D01*
X304324Y430982D01*
X304324Y429062D01*
X303590Y427288D01*
X302232Y425930D01*
X300458Y425195D01*
X298538Y425195D01*
G37*
%LPD*%
%LPC*%
G36*
X54920Y423925D02*
X54920Y423925D01*
X53146Y424660D01*
X51788Y426018D01*
X51053Y427792D01*
X51053Y429712D01*
X51788Y431486D01*
X53146Y432844D01*
X54920Y433579D01*
X56840Y433579D01*
X58614Y432844D01*
X59972Y431486D01*
X60707Y429712D01*
X60707Y427792D01*
X59972Y426018D01*
X58614Y424660D01*
X56840Y423925D01*
X54920Y423925D01*
G37*
%LPD*%
%LPC*%
G36*
X177856Y423671D02*
X177856Y423671D01*
X176082Y424406D01*
X174724Y425764D01*
X173989Y427538D01*
X173989Y429458D01*
X174724Y431232D01*
X176082Y432590D01*
X177856Y433325D01*
X179776Y433325D01*
X181550Y432590D01*
X182908Y431232D01*
X183643Y429458D01*
X183643Y427538D01*
X182908Y425764D01*
X181550Y424406D01*
X179776Y423671D01*
X177856Y423671D01*
G37*
%LPD*%
%LPC*%
G36*
X149662Y415035D02*
X149662Y415035D01*
X147888Y415770D01*
X146530Y417128D01*
X145795Y418902D01*
X145795Y420822D01*
X146530Y422596D01*
X147888Y423954D01*
X149662Y424689D01*
X151582Y424689D01*
X153356Y423954D01*
X154714Y422596D01*
X155449Y420822D01*
X155449Y418902D01*
X154714Y417128D01*
X153356Y415770D01*
X151582Y415035D01*
X149662Y415035D01*
G37*
%LPD*%
%LPC*%
G36*
X95052Y392937D02*
X95052Y392937D01*
X93278Y393672D01*
X91920Y395030D01*
X91185Y396804D01*
X91185Y398724D01*
X91920Y400498D01*
X93278Y401856D01*
X95052Y402591D01*
X96972Y402591D01*
X98746Y401856D01*
X100104Y400498D01*
X100839Y398724D01*
X100839Y396804D01*
X100104Y395030D01*
X98746Y393672D01*
X96972Y392937D01*
X95052Y392937D01*
G37*
%LPD*%
%LPC*%
G36*
X58476Y385063D02*
X58476Y385063D01*
X56702Y385798D01*
X55344Y387156D01*
X54609Y388930D01*
X54609Y390850D01*
X55344Y392624D01*
X56702Y393982D01*
X58476Y394717D01*
X60396Y394717D01*
X62170Y393982D01*
X63528Y392624D01*
X64263Y390850D01*
X64263Y388930D01*
X63528Y387156D01*
X62170Y385798D01*
X60396Y385063D01*
X58476Y385063D01*
G37*
%LPD*%
%LPC*%
G36*
X155758Y376173D02*
X155758Y376173D01*
X153984Y376908D01*
X152626Y378266D01*
X151891Y380040D01*
X151891Y381960D01*
X152626Y383734D01*
X153984Y385092D01*
X155758Y385827D01*
X157678Y385827D01*
X159452Y385092D01*
X160810Y383734D01*
X161545Y381960D01*
X161545Y380040D01*
X160810Y378266D01*
X159452Y376908D01*
X157678Y376173D01*
X155758Y376173D01*
G37*
%LPD*%
%LPC*%
G36*
X45014Y374141D02*
X45014Y374141D01*
X43240Y374876D01*
X41882Y376234D01*
X41147Y378008D01*
X41147Y379928D01*
X41882Y381702D01*
X43240Y383060D01*
X45014Y383795D01*
X46934Y383795D01*
X48708Y383060D01*
X50066Y381702D01*
X50801Y379928D01*
X50801Y378008D01*
X50066Y376234D01*
X48708Y374876D01*
X46934Y374141D01*
X45014Y374141D01*
G37*
%LPD*%
%LPC*%
G36*
X264978Y360679D02*
X264978Y360679D01*
X263204Y361414D01*
X261846Y362772D01*
X261111Y364546D01*
X261111Y366466D01*
X261846Y368240D01*
X263204Y369598D01*
X264978Y370333D01*
X266898Y370333D01*
X268672Y369598D01*
X270030Y368240D01*
X270765Y366466D01*
X270765Y364546D01*
X270030Y362772D01*
X268672Y361414D01*
X266898Y360679D01*
X264978Y360679D01*
G37*
%LPD*%
%LPC*%
G36*
X344480Y357377D02*
X344480Y357377D01*
X342706Y358112D01*
X341348Y359470D01*
X340613Y361244D01*
X340613Y363164D01*
X341348Y364938D01*
X342706Y366296D01*
X344480Y367031D01*
X346400Y367031D01*
X348174Y366296D01*
X349532Y364938D01*
X350267Y363164D01*
X350267Y361244D01*
X349532Y359470D01*
X348174Y358112D01*
X346400Y357377D01*
X344480Y357377D01*
G37*
%LPD*%
%LPC*%
G36*
X358704Y346455D02*
X358704Y346455D01*
X356930Y347190D01*
X355572Y348548D01*
X354837Y350322D01*
X354837Y352242D01*
X355572Y354016D01*
X356930Y355374D01*
X358704Y356109D01*
X360624Y356109D01*
X362398Y355374D01*
X363756Y354016D01*
X364491Y352242D01*
X364491Y350322D01*
X363756Y348548D01*
X362398Y347190D01*
X360624Y346455D01*
X358704Y346455D01*
G37*
%LPD*%
%LPC*%
G36*
X405440Y332231D02*
X405440Y332231D01*
X403666Y332966D01*
X402308Y334324D01*
X401573Y336098D01*
X401573Y338018D01*
X402308Y339792D01*
X403666Y341150D01*
X405440Y341885D01*
X407360Y341885D01*
X409134Y341150D01*
X410492Y339792D01*
X411227Y338018D01*
X411227Y336098D01*
X410492Y334324D01*
X409134Y332966D01*
X407360Y332231D01*
X405440Y332231D01*
G37*
%LPD*%
%LPC*%
G36*
X219512Y326643D02*
X219512Y326643D01*
X217738Y327378D01*
X216380Y328736D01*
X215645Y330510D01*
X215645Y332430D01*
X216380Y334204D01*
X217738Y335562D01*
X219512Y336297D01*
X221432Y336297D01*
X223206Y335562D01*
X224564Y334204D01*
X225299Y332430D01*
X225299Y330510D01*
X224564Y328736D01*
X223206Y327378D01*
X221432Y326643D01*
X219512Y326643D01*
G37*
%LPD*%
%LPC*%
G36*
X445826Y320801D02*
X445826Y320801D01*
X444052Y321536D01*
X442694Y322894D01*
X441959Y324668D01*
X441959Y326588D01*
X442694Y328362D01*
X444052Y329720D01*
X445826Y330455D01*
X447746Y330455D01*
X449520Y329720D01*
X450878Y328362D01*
X451613Y326588D01*
X451613Y324668D01*
X450878Y322894D01*
X449520Y321536D01*
X447746Y320801D01*
X445826Y320801D01*
G37*
%LPD*%
%LPC*%
G36*
X371362Y317151D02*
X371362Y317151D01*
X369588Y317886D01*
X368230Y319244D01*
X367495Y321018D01*
X367495Y322938D01*
X368230Y324712D01*
X369588Y326070D01*
X371362Y326805D01*
X373282Y326805D01*
X375056Y326070D01*
X376414Y324712D01*
X377149Y322938D01*
X377149Y321018D01*
X376414Y319244D01*
X375056Y317886D01*
X373282Y317151D01*
X371362Y317151D01*
G37*
%LPD*%
%LPC*%
G36*
X345962Y317151D02*
X345962Y317151D01*
X344188Y317886D01*
X342830Y319244D01*
X342095Y321018D01*
X342095Y322938D01*
X342830Y324712D01*
X344188Y326070D01*
X345962Y326805D01*
X347882Y326805D01*
X349656Y326070D01*
X351014Y324712D01*
X351749Y322938D01*
X351749Y321018D01*
X351014Y319244D01*
X349656Y317886D01*
X347882Y317151D01*
X345962Y317151D01*
G37*
%LPD*%
%LPC*%
G36*
X220274Y309117D02*
X220274Y309117D01*
X218500Y309852D01*
X217142Y311210D01*
X216407Y312984D01*
X216407Y314904D01*
X217142Y316678D01*
X218500Y318036D01*
X220274Y318771D01*
X222194Y318771D01*
X223968Y318036D01*
X225326Y316678D01*
X226061Y314904D01*
X226061Y312984D01*
X225326Y311210D01*
X223968Y309852D01*
X222194Y309117D01*
X220274Y309117D01*
G37*
%LPD*%
%LPC*%
G36*
X271582Y308355D02*
X271582Y308355D01*
X269808Y309090D01*
X268450Y310448D01*
X267715Y312222D01*
X267715Y314142D01*
X268450Y315916D01*
X269808Y317274D01*
X271582Y318009D01*
X273502Y318009D01*
X275276Y317274D01*
X276634Y315916D01*
X277369Y314142D01*
X277369Y312222D01*
X276634Y310448D01*
X275276Y309090D01*
X273502Y308355D01*
X271582Y308355D01*
G37*
%LPD*%
%LPC*%
G36*
X308920Y284225D02*
X308920Y284225D01*
X307146Y284960D01*
X305788Y286318D01*
X305053Y288092D01*
X305053Y290012D01*
X305788Y291786D01*
X307146Y293144D01*
X308920Y293879D01*
X310840Y293879D01*
X312614Y293144D01*
X313972Y291786D01*
X314707Y290012D01*
X314707Y288092D01*
X313972Y286318D01*
X312614Y284960D01*
X310840Y284225D01*
X308920Y284225D01*
G37*
%LPD*%
%LPC*%
G36*
X433126Y273303D02*
X433126Y273303D01*
X431352Y274038D01*
X429994Y275396D01*
X429259Y277170D01*
X429259Y279090D01*
X429994Y280864D01*
X431352Y282222D01*
X433126Y282957D01*
X435046Y282957D01*
X436820Y282222D01*
X438178Y280864D01*
X438913Y279090D01*
X438913Y277170D01*
X438178Y275396D01*
X436820Y274038D01*
X435046Y273303D01*
X433126Y273303D01*
G37*
%LPD*%
%LPC*%
G36*
X346512Y272033D02*
X346512Y272033D01*
X344738Y272768D01*
X343380Y274126D01*
X342645Y275900D01*
X342645Y277820D01*
X343380Y279594D01*
X344738Y280952D01*
X346512Y281687D01*
X348432Y281687D01*
X350206Y280952D01*
X351564Y279594D01*
X352299Y277820D01*
X352299Y275900D01*
X351564Y274126D01*
X350206Y272768D01*
X348432Y272033D01*
X346512Y272033D01*
G37*
%LPD*%
%LPC*%
G36*
X321874Y272033D02*
X321874Y272033D01*
X320100Y272768D01*
X318742Y274126D01*
X318007Y275900D01*
X318007Y277820D01*
X318742Y279594D01*
X320100Y280952D01*
X321874Y281687D01*
X323794Y281687D01*
X325568Y280952D01*
X326926Y279594D01*
X327661Y277820D01*
X327661Y275900D01*
X326926Y274126D01*
X325568Y272768D01*
X323794Y272033D01*
X321874Y272033D01*
G37*
%LPD*%
%LPC*%
G36*
X412044Y260857D02*
X412044Y260857D01*
X410270Y261592D01*
X408912Y262950D01*
X408177Y264724D01*
X408177Y266644D01*
X408912Y268418D01*
X410270Y269776D01*
X412044Y270511D01*
X413964Y270511D01*
X415738Y269776D01*
X417096Y268418D01*
X417831Y266644D01*
X417831Y264724D01*
X417096Y262950D01*
X415738Y261592D01*
X413964Y260857D01*
X412044Y260857D01*
G37*
%LPD*%
%LPC*%
G36*
X262692Y238505D02*
X262692Y238505D01*
X260918Y239240D01*
X259560Y240598D01*
X258825Y242372D01*
X258825Y244292D01*
X259560Y246066D01*
X260918Y247424D01*
X262692Y248159D01*
X264612Y248159D01*
X266386Y247424D01*
X267744Y246066D01*
X268479Y244292D01*
X268479Y242372D01*
X267744Y240598D01*
X266386Y239240D01*
X264612Y238505D01*
X262692Y238505D01*
G37*
%LPD*%
%LPC*%
G36*
X242880Y237743D02*
X242880Y237743D01*
X241106Y238478D01*
X239748Y239836D01*
X239013Y241610D01*
X239013Y243530D01*
X239748Y245304D01*
X241106Y246662D01*
X242880Y247397D01*
X244800Y247397D01*
X246574Y246662D01*
X247932Y245304D01*
X248667Y243530D01*
X248667Y241610D01*
X247932Y239836D01*
X246574Y238478D01*
X244800Y237743D01*
X242880Y237743D01*
G37*
%LPD*%
%LPC*%
G36*
X452111Y233236D02*
X452111Y233236D01*
X450337Y233971D01*
X448979Y235329D01*
X448245Y237103D01*
X448245Y239023D01*
X448979Y240797D01*
X450337Y242155D01*
X452111Y242889D01*
X454031Y242889D01*
X455805Y242155D01*
X457163Y240797D01*
X457898Y239023D01*
X457898Y237103D01*
X457163Y235329D01*
X455805Y233971D01*
X454031Y233236D01*
X452111Y233236D01*
G37*
%LPD*%
%LPC*%
G36*
X460558Y218947D02*
X460558Y218947D01*
X458784Y219682D01*
X457426Y221040D01*
X456691Y222814D01*
X456691Y224734D01*
X457426Y226508D01*
X458784Y227866D01*
X460558Y228601D01*
X462478Y228601D01*
X464252Y227866D01*
X465610Y226508D01*
X466345Y224734D01*
X466345Y222814D01*
X465610Y221040D01*
X464252Y219682D01*
X462478Y218947D01*
X460558Y218947D01*
G37*
%LPD*%
%LPC*%
G36*
X484434Y216661D02*
X484434Y216661D01*
X482660Y217396D01*
X481302Y218754D01*
X480567Y220528D01*
X480567Y222448D01*
X481302Y224222D01*
X482660Y225580D01*
X484434Y226315D01*
X486354Y226315D01*
X488128Y225580D01*
X489486Y224222D01*
X490221Y222448D01*
X490221Y220528D01*
X489486Y218754D01*
X488128Y217396D01*
X486354Y216661D01*
X484434Y216661D01*
G37*
%LPD*%
%LPC*%
G36*
X357434Y213359D02*
X357434Y213359D01*
X355660Y214094D01*
X354302Y215452D01*
X353567Y217226D01*
X353567Y219146D01*
X354302Y220920D01*
X355660Y222278D01*
X357434Y223013D01*
X359354Y223013D01*
X361128Y222278D01*
X362486Y220920D01*
X363221Y219146D01*
X363221Y217226D01*
X362486Y215452D01*
X361128Y214094D01*
X359354Y213359D01*
X357434Y213359D01*
G37*
%LPD*%
%LPC*%
G36*
X266756Y210819D02*
X266756Y210819D01*
X264982Y211554D01*
X263624Y212912D01*
X262889Y214686D01*
X262889Y216606D01*
X263624Y218380D01*
X264982Y219738D01*
X266756Y220473D01*
X268676Y220473D01*
X270450Y219738D01*
X271808Y218380D01*
X272543Y216606D01*
X272543Y214686D01*
X271808Y212912D01*
X270450Y211554D01*
X268676Y210819D01*
X266756Y210819D01*
G37*
%LPD*%
%LPC*%
G36*
X339400Y196849D02*
X339400Y196849D01*
X337626Y197584D01*
X336268Y198942D01*
X335533Y200716D01*
X335533Y202636D01*
X336268Y204410D01*
X337626Y205768D01*
X339400Y206503D01*
X341320Y206503D01*
X343094Y205768D01*
X344452Y204410D01*
X345187Y202636D01*
X345187Y200716D01*
X344452Y198942D01*
X343094Y197584D01*
X341320Y196849D01*
X339400Y196849D01*
G37*
%LPD*%
%LPC*%
G36*
X430332Y195071D02*
X430332Y195071D01*
X428558Y195806D01*
X427200Y197164D01*
X426465Y198938D01*
X426465Y200858D01*
X427200Y202632D01*
X428558Y203990D01*
X430332Y204725D01*
X432252Y204725D01*
X434026Y203990D01*
X435384Y202632D01*
X436119Y200858D01*
X436119Y198938D01*
X435384Y197164D01*
X434026Y195806D01*
X432252Y195071D01*
X430332Y195071D01*
G37*
%LPD*%
%LPC*%
G36*
X446588Y193801D02*
X446588Y193801D01*
X444814Y194536D01*
X443456Y195894D01*
X442721Y197668D01*
X442721Y199588D01*
X443456Y201362D01*
X444814Y202720D01*
X446588Y203455D01*
X448508Y203455D01*
X450282Y202720D01*
X451640Y201362D01*
X452375Y199588D01*
X452375Y197668D01*
X451640Y195894D01*
X450282Y194536D01*
X448508Y193801D01*
X446588Y193801D01*
G37*
%LPD*%
%LPC*%
G36*
X321749Y192531D02*
X321749Y192531D01*
X319975Y193266D01*
X318618Y194624D01*
X317883Y196398D01*
X317883Y198318D01*
X318618Y200092D01*
X319975Y201450D01*
X321749Y202185D01*
X323670Y202185D01*
X325444Y201450D01*
X326801Y200092D01*
X327536Y198318D01*
X327536Y196398D01*
X326801Y194624D01*
X325444Y193266D01*
X323670Y192531D01*
X321749Y192531D01*
G37*
%LPD*%
%LPC*%
G36*
X297236Y191515D02*
X297236Y191515D01*
X295462Y192250D01*
X294104Y193608D01*
X293369Y195382D01*
X293369Y197302D01*
X294104Y199076D01*
X295462Y200434D01*
X297236Y201169D01*
X299156Y201169D01*
X300930Y200434D01*
X302288Y199076D01*
X303023Y197302D01*
X303023Y195382D01*
X302288Y193608D01*
X300930Y192250D01*
X299156Y191515D01*
X297236Y191515D01*
G37*
%LPD*%
%LPC*%
G36*
X310952Y180339D02*
X310952Y180339D01*
X309178Y181074D01*
X307820Y182432D01*
X307085Y184206D01*
X307085Y186126D01*
X307820Y187900D01*
X309178Y189258D01*
X310952Y189993D01*
X312872Y189993D01*
X314646Y189258D01*
X316004Y187900D01*
X316739Y186126D01*
X316739Y184206D01*
X316004Y182432D01*
X314646Y181074D01*
X312872Y180339D01*
X310952Y180339D01*
G37*
%LPD*%
%LPC*%
G36*
X256628Y160781D02*
X256628Y160781D01*
X254854Y161516D01*
X253496Y162874D01*
X252761Y164648D01*
X252761Y166568D01*
X253496Y168342D01*
X254854Y169700D01*
X256628Y170435D01*
X258548Y170435D01*
X260322Y169700D01*
X261680Y168342D01*
X262414Y166568D01*
X262414Y164648D01*
X261680Y162874D01*
X260322Y161516D01*
X258548Y160781D01*
X256628Y160781D01*
G37*
%LPD*%
%LPC*%
G36*
X256628Y144525D02*
X256628Y144525D01*
X254854Y145260D01*
X253496Y146618D01*
X252761Y148392D01*
X252761Y150312D01*
X253496Y152086D01*
X254854Y153444D01*
X256628Y154179D01*
X258548Y154179D01*
X260322Y153444D01*
X261680Y152086D01*
X262414Y150312D01*
X262414Y148392D01*
X261680Y146618D01*
X260322Y145260D01*
X258548Y144525D01*
X256628Y144525D01*
G37*
%LPD*%
%LPC*%
G36*
X484434Y141731D02*
X484434Y141731D01*
X482660Y142466D01*
X481302Y143824D01*
X480567Y145598D01*
X480567Y147518D01*
X481302Y149292D01*
X482660Y150650D01*
X484434Y151385D01*
X486354Y151385D01*
X488128Y150650D01*
X489486Y149292D01*
X490221Y147518D01*
X490221Y145598D01*
X489486Y143824D01*
X488128Y142466D01*
X486354Y141731D01*
X484434Y141731D01*
G37*
%LPD*%
%LPC*%
G36*
X256628Y128269D02*
X256628Y128269D01*
X254854Y129004D01*
X253496Y130362D01*
X252761Y132136D01*
X252761Y134056D01*
X253496Y135830D01*
X254854Y137188D01*
X256628Y137923D01*
X258548Y137923D01*
X260322Y137188D01*
X261680Y135830D01*
X262414Y134056D01*
X262414Y132136D01*
X261680Y130362D01*
X260322Y129004D01*
X258548Y128269D01*
X256628Y128269D01*
G37*
%LPD*%
%LPC*%
G36*
X486720Y113283D02*
X486720Y113283D01*
X484946Y114018D01*
X483588Y115376D01*
X482853Y117150D01*
X482853Y119070D01*
X483588Y120844D01*
X484946Y122202D01*
X486720Y122937D01*
X488640Y122937D01*
X490414Y122202D01*
X491772Y120844D01*
X492507Y119070D01*
X492507Y117150D01*
X491772Y115376D01*
X490414Y114018D01*
X488640Y113283D01*
X486720Y113283D01*
G37*
%LPD*%
%LPC*%
G36*
X256628Y102869D02*
X256628Y102869D01*
X254854Y103604D01*
X253496Y104962D01*
X252761Y106736D01*
X252761Y108656D01*
X253496Y110430D01*
X254854Y111788D01*
X256628Y112523D01*
X258548Y112523D01*
X260322Y111788D01*
X261680Y110430D01*
X262414Y108656D01*
X262414Y106736D01*
X261680Y104962D01*
X260322Y103604D01*
X258548Y102869D01*
X256628Y102869D01*
G37*
%LPD*%
%LPC*%
G36*
X267264Y85597D02*
X267264Y85597D01*
X265490Y86332D01*
X264132Y87690D01*
X263397Y89464D01*
X263397Y91384D01*
X264132Y93158D01*
X265490Y94516D01*
X267264Y95251D01*
X269184Y95251D01*
X270958Y94516D01*
X272316Y93158D01*
X273051Y91384D01*
X273051Y89464D01*
X272316Y87690D01*
X270958Y86332D01*
X269184Y85597D01*
X267264Y85597D01*
G37*
%LPD*%
%LPC*%
G36*
X164902Y67563D02*
X164902Y67563D01*
X163128Y68298D01*
X161770Y69656D01*
X161035Y71430D01*
X161035Y73350D01*
X161770Y75124D01*
X163128Y76482D01*
X164902Y77217D01*
X166822Y77217D01*
X168596Y76482D01*
X169954Y75124D01*
X170689Y73350D01*
X170689Y71430D01*
X169954Y69656D01*
X168596Y68298D01*
X166822Y67563D01*
X164902Y67563D01*
G37*
%LPD*%
%LPC*%
G36*
X489006Y65277D02*
X489006Y65277D01*
X487232Y66012D01*
X485874Y67370D01*
X485139Y69144D01*
X485139Y71064D01*
X485874Y72838D01*
X487232Y74196D01*
X489006Y74931D01*
X490926Y74931D01*
X492700Y74196D01*
X494058Y72838D01*
X494793Y71064D01*
X494793Y69144D01*
X494058Y67370D01*
X492700Y66012D01*
X490926Y65277D01*
X489006Y65277D01*
G37*
%LPD*%
%LPC*%
G36*
X440722Y529179D02*
X440722Y529179D01*
X438948Y529914D01*
X437590Y531272D01*
X436855Y533046D01*
X436855Y534966D01*
X437590Y536740D01*
X438948Y538098D01*
X440722Y538833D01*
X442642Y538833D01*
X444416Y538098D01*
X445774Y536740D01*
X446509Y534966D01*
X446509Y533046D01*
X445774Y531272D01*
X444416Y529914D01*
X442642Y529179D01*
X440722Y529179D01*
G37*
%LPD*%
D10*
X521208Y252984D03*
X521970Y208788D03*
X523748Y165100D03*
X523240Y120142D03*
X523494Y75946D03*
X522986Y31750D03*
X515366Y552196D03*
X515366Y600202D03*
D11*
X58928Y478790D03*
X247142Y94964D03*
X116840Y278384D03*
X154432Y256540D03*
X177038Y735212D03*
X264414Y713994D03*
X300736Y742950D03*
X187706Y675386D03*
X394208Y602234D03*
X287528Y596256D03*
X311912Y561848D03*
X144018Y604012D03*
X229108Y229616D03*
X462026Y287020D03*
X453136Y86614D03*
X296418Y726440D03*
X290830Y467360D03*
X26162Y632714D03*
X26162Y614934D03*
X135636Y693166D03*
X261315Y54661D03*
X469392Y530962D03*
X123139Y378562D03*
X164389Y443789D03*
D12*
X180400Y556300D03*
X364000Y419100D03*
X376700Y419200D03*
X388900Y419000D03*
X404700Y418900D03*
X400600Y409300D03*
X384200Y409100D03*
X371300Y409600D03*
X363900Y398900D03*
X378600Y399200D03*
X394000Y399400D03*
X406000Y399200D03*
X399500Y389300D03*
X386600Y388100D03*
X372900Y387900D03*
X365500Y377600D03*
X380100Y377100D03*
X394500Y376800D03*
X405900Y377400D03*
X126300Y200600D03*
X149400Y197200D03*
X176000Y196600D03*
X195300Y195500D03*
X208400Y176100D03*
X188000Y176200D03*
X163700Y174600D03*
X142800Y174900D03*
X127300Y150600D03*
X159900Y153300D03*
X179500Y153500D03*
X203500Y154400D03*
X191000Y134600D03*
X172500Y137200D03*
X148000Y134000D03*
X122900Y131700D03*
X124000Y183500D03*
D11*
X441682Y534006D03*
X449072Y469900D03*
X42672Y478536D03*
X45974Y378968D03*
X156718Y381000D03*
X178816Y428498D03*
X311912Y580644D03*
X340360Y201676D03*
X177546Y716534D03*
X212598Y737768D03*
X68834Y696334D03*
X61192Y574948D03*
D12*
X88900Y626500D03*
D11*
X58674Y645922D03*
X44704Y566928D03*
D12*
X89300Y639300D03*
X140100Y639300D03*
D11*
X130810Y503428D03*
X138938Y473710D03*
X76200Y467614D03*
X55880Y428752D03*
X59436Y389890D03*
X96012Y397764D03*
X150622Y419862D03*
X447040Y444500D03*
X485394Y221488D03*
X299498Y446278D03*
X103170Y608130D03*
X299498Y430022D03*
X87114Y608152D03*
X88039Y522323D03*
X263652Y243332D03*
X461518Y223774D03*
X447548Y198628D03*
X65532Y513080D03*
X243840Y242570D03*
X311912Y185166D03*
X373696Y465774D03*
X322710Y197358D03*
X359918Y456438D03*
X298196Y196342D03*
X321594Y454946D03*
X220472Y331470D03*
X221996Y450088D03*
X389890Y513842D03*
X269240Y513080D03*
X309880Y289052D03*
X359664Y351282D03*
X322834Y276860D03*
X372322Y321978D03*
X347472Y276860D03*
X346922Y321978D03*
X265938Y365506D03*
X310134Y467868D03*
X165862Y72390D03*
X345440Y362204D03*
X221234Y313944D03*
X386842Y455930D03*
X268224Y90424D03*
X267716Y215646D03*
X358394Y218186D03*
X272542Y313182D03*
X305308Y627888D03*
X247618Y633984D03*
X303784Y598932D03*
X233172Y606806D03*
X406400Y337058D03*
X413004Y265684D03*
X446786Y325628D03*
X434086Y278130D03*
X283718Y499110D03*
X424180Y469138D03*
X411734Y512826D03*
X286766Y527050D03*
X453071Y238063D03*
X431292Y199898D03*
X257588Y165608D03*
X485394Y146558D03*
X257588Y149352D03*
X487680Y118110D03*
X257588Y133096D03*
X489966Y70104D03*
X257588Y107696D03*
X487934Y29718D03*
X85009Y658287D03*
X111760Y664210D03*
M02*
