G04 EAGLE Gerber RS-274X export*
G75*
%MOMM*%
%FSLAX34Y34*%
%LPD*%
%INTop Copper*%
%IPPOS*%
%AMOC8*
5,1,8,0,0,1.08239X$1,22.5*%
G01*
%ADD10R,1.016000X1.143000*%
%ADD11R,0.650000X0.460000*%
%ADD12R,0.900000X0.800000*%
%ADD13R,1.200000X0.550000*%
%ADD14R,0.900000X1.500000*%
%ADD15R,1.500000X0.900000*%
%ADD16R,6.000000X6.000000*%
%ADD17R,0.700000X0.600000*%
%ADD18R,0.600000X0.700000*%
%ADD19R,0.460000X0.650000*%
%ADD20R,1.000000X1.100000*%
%ADD21R,1.100000X1.000000*%
%ADD22R,1.900000X1.000000*%
%ADD23R,1.000000X1.350000*%
%ADD24R,1.060000X0.650000*%
%ADD25R,3.499994X1.799997*%
%ADD26R,2.699994X0.999997*%
%ADD27R,2.450000X1.000000*%
%ADD28R,1.000000X2.450000*%
%ADD29R,11.000000X9.000000*%
%ADD30C,4.032000*%
%ADD31R,0.300000X1.140000*%
%ADD32R,0.500000X1.140000*%
%ADD33R,0.500000X1.150000*%
%ADD34R,0.500000X1.050000*%
%ADD35R,0.850000X0.400000*%
%ADD36R,0.700000X1.800000*%
%ADD37R,0.800000X0.800000*%
%ADD38R,0.200000X0.100000*%
%ADD39R,0.100000X0.200000*%
%ADD40R,0.100000X0.100000*%
%ADD41C,0.254000*%
%ADD42C,0.508000*%
%ADD43C,0.457200*%
%ADD44C,0.349250*%
%ADD45C,1.016000*%
%ADD46C,0.762000*%
%ADD47C,0.525000*%
%ADD48C,0.152400*%

G36*
X90700Y444496D02*
X90700Y444496D01*
X90701Y444496D01*
X90892Y444534D01*
X90893Y444535D01*
X90894Y444535D01*
X91056Y444643D01*
X91056Y444644D01*
X91057Y444644D01*
X91165Y444806D01*
X91165Y444807D01*
X91166Y444808D01*
X91166Y444810D01*
X91167Y444810D01*
X91166Y444810D01*
X91167Y444814D01*
X91168Y444818D01*
X91169Y444822D01*
X91169Y444823D01*
X91170Y444827D01*
X91171Y444831D01*
X91172Y444835D01*
X91181Y444882D01*
X91182Y444886D01*
X91183Y444890D01*
X91183Y444891D01*
X91183Y444895D01*
X91184Y444899D01*
X91185Y444903D01*
X91186Y444907D01*
X91186Y444908D01*
X91187Y444912D01*
X91188Y444916D01*
X91196Y444958D01*
X91196Y444959D01*
X91197Y444963D01*
X91198Y444967D01*
X91199Y444971D01*
X91199Y444975D01*
X91199Y444976D01*
X91200Y444980D01*
X91201Y444984D01*
X91202Y444988D01*
X91203Y444992D01*
X91203Y444993D01*
X91204Y444997D01*
X91204Y444999D01*
X91204Y445000D01*
X91204Y450000D01*
X91204Y450001D01*
X91166Y450192D01*
X91165Y450193D01*
X91165Y450194D01*
X91057Y450356D01*
X91056Y450356D01*
X91056Y450357D01*
X90894Y450465D01*
X90893Y450465D01*
X90892Y450466D01*
X90701Y450504D01*
X90700Y450504D01*
X89700Y450504D01*
X89699Y450504D01*
X89508Y450466D01*
X89507Y450465D01*
X89506Y450465D01*
X89344Y450357D01*
X89344Y450356D01*
X89343Y450356D01*
X89235Y450194D01*
X89235Y450193D01*
X89234Y450192D01*
X89230Y450170D01*
X89229Y450170D01*
X89230Y450170D01*
X89229Y450166D01*
X89228Y450162D01*
X89227Y450157D01*
X89226Y450153D01*
X89225Y450149D01*
X89224Y450145D01*
X89224Y450140D01*
X89223Y450136D01*
X89214Y450094D01*
X89213Y450089D01*
X89213Y450085D01*
X89212Y450081D01*
X89211Y450077D01*
X89210Y450072D01*
X89209Y450068D01*
X89208Y450064D01*
X89208Y450060D01*
X89207Y450055D01*
X89198Y450013D01*
X89197Y450009D01*
X89197Y450004D01*
X89196Y450001D01*
X89196Y450000D01*
X89196Y445000D01*
X89196Y444999D01*
X89234Y444808D01*
X89235Y444807D01*
X89235Y444806D01*
X89343Y444644D01*
X89344Y444644D01*
X89344Y444643D01*
X89506Y444535D01*
X89507Y444535D01*
X89508Y444534D01*
X89699Y444496D01*
X89700Y444496D01*
X90700Y444496D01*
X90700Y444496D01*
G37*
G36*
X94700Y444496D02*
X94700Y444496D01*
X94701Y444496D01*
X94892Y444534D01*
X94893Y444535D01*
X94894Y444535D01*
X95056Y444643D01*
X95056Y444644D01*
X95057Y444644D01*
X95165Y444806D01*
X95165Y444807D01*
X95166Y444808D01*
X95166Y444810D01*
X95167Y444810D01*
X95166Y444810D01*
X95167Y444814D01*
X95168Y444818D01*
X95169Y444822D01*
X95169Y444823D01*
X95170Y444827D01*
X95171Y444831D01*
X95172Y444835D01*
X95181Y444882D01*
X95182Y444886D01*
X95183Y444890D01*
X95183Y444891D01*
X95183Y444895D01*
X95184Y444899D01*
X95185Y444903D01*
X95186Y444907D01*
X95186Y444908D01*
X95187Y444912D01*
X95188Y444916D01*
X95196Y444958D01*
X95196Y444959D01*
X95197Y444963D01*
X95198Y444967D01*
X95199Y444971D01*
X95199Y444975D01*
X95199Y444976D01*
X95200Y444980D01*
X95201Y444984D01*
X95202Y444988D01*
X95203Y444992D01*
X95203Y444993D01*
X95204Y444997D01*
X95204Y444999D01*
X95204Y445000D01*
X95204Y450000D01*
X95204Y450001D01*
X95166Y450192D01*
X95165Y450193D01*
X95165Y450194D01*
X95057Y450356D01*
X95056Y450356D01*
X95056Y450357D01*
X94894Y450465D01*
X94893Y450465D01*
X94892Y450466D01*
X94701Y450504D01*
X94700Y450504D01*
X93700Y450504D01*
X93699Y450504D01*
X93508Y450466D01*
X93507Y450465D01*
X93506Y450465D01*
X93344Y450357D01*
X93344Y450356D01*
X93343Y450356D01*
X93235Y450194D01*
X93235Y450193D01*
X93234Y450192D01*
X93230Y450170D01*
X93229Y450170D01*
X93230Y450170D01*
X93229Y450166D01*
X93228Y450162D01*
X93227Y450157D01*
X93226Y450153D01*
X93225Y450149D01*
X93224Y450145D01*
X93224Y450140D01*
X93223Y450136D01*
X93214Y450094D01*
X93213Y450089D01*
X93213Y450085D01*
X93212Y450081D01*
X93211Y450077D01*
X93210Y450072D01*
X93209Y450068D01*
X93208Y450064D01*
X93208Y450060D01*
X93207Y450055D01*
X93198Y450013D01*
X93197Y450009D01*
X93197Y450004D01*
X93196Y450001D01*
X93196Y450000D01*
X93196Y445000D01*
X93196Y444999D01*
X93234Y444808D01*
X93235Y444807D01*
X93235Y444806D01*
X93343Y444644D01*
X93344Y444644D01*
X93344Y444643D01*
X93506Y444535D01*
X93507Y444535D01*
X93508Y444534D01*
X93699Y444496D01*
X93700Y444496D01*
X94700Y444496D01*
X94700Y444496D01*
G37*
G36*
X86700Y444496D02*
X86700Y444496D01*
X86701Y444496D01*
X86892Y444534D01*
X86893Y444535D01*
X86894Y444535D01*
X87056Y444643D01*
X87056Y444644D01*
X87057Y444644D01*
X87165Y444806D01*
X87165Y444807D01*
X87166Y444808D01*
X87166Y444810D01*
X87167Y444810D01*
X87166Y444810D01*
X87167Y444814D01*
X87168Y444818D01*
X87169Y444822D01*
X87169Y444823D01*
X87170Y444827D01*
X87171Y444831D01*
X87172Y444835D01*
X87181Y444882D01*
X87182Y444886D01*
X87183Y444890D01*
X87183Y444891D01*
X87183Y444895D01*
X87184Y444899D01*
X87185Y444903D01*
X87186Y444907D01*
X87186Y444908D01*
X87187Y444912D01*
X87188Y444916D01*
X87196Y444958D01*
X87196Y444959D01*
X87197Y444963D01*
X87198Y444967D01*
X87199Y444971D01*
X87199Y444975D01*
X87199Y444976D01*
X87200Y444980D01*
X87201Y444984D01*
X87202Y444988D01*
X87203Y444992D01*
X87203Y444993D01*
X87204Y444997D01*
X87204Y444999D01*
X87204Y445000D01*
X87204Y450000D01*
X87204Y450001D01*
X87166Y450192D01*
X87165Y450193D01*
X87165Y450194D01*
X87057Y450356D01*
X87056Y450356D01*
X87056Y450357D01*
X86894Y450465D01*
X86893Y450465D01*
X86892Y450466D01*
X86701Y450504D01*
X86700Y450504D01*
X85700Y450504D01*
X85699Y450504D01*
X85508Y450466D01*
X85507Y450465D01*
X85506Y450465D01*
X85344Y450357D01*
X85344Y450356D01*
X85343Y450356D01*
X85235Y450194D01*
X85235Y450193D01*
X85234Y450192D01*
X85230Y450170D01*
X85229Y450170D01*
X85230Y450170D01*
X85229Y450166D01*
X85228Y450162D01*
X85227Y450157D01*
X85226Y450153D01*
X85225Y450149D01*
X85224Y450145D01*
X85224Y450140D01*
X85223Y450136D01*
X85214Y450094D01*
X85213Y450089D01*
X85213Y450085D01*
X85212Y450081D01*
X85211Y450077D01*
X85210Y450072D01*
X85209Y450068D01*
X85208Y450064D01*
X85208Y450060D01*
X85207Y450055D01*
X85198Y450013D01*
X85197Y450009D01*
X85197Y450004D01*
X85196Y450001D01*
X85196Y450000D01*
X85196Y445000D01*
X85196Y444999D01*
X85234Y444808D01*
X85235Y444807D01*
X85235Y444806D01*
X85343Y444644D01*
X85344Y444644D01*
X85344Y444643D01*
X85506Y444535D01*
X85507Y444535D01*
X85508Y444534D01*
X85699Y444496D01*
X85700Y444496D01*
X86700Y444496D01*
X86700Y444496D01*
G37*
G36*
X98700Y444496D02*
X98700Y444496D01*
X98701Y444496D01*
X98892Y444534D01*
X98893Y444535D01*
X98894Y444535D01*
X99056Y444643D01*
X99056Y444644D01*
X99057Y444644D01*
X99165Y444806D01*
X99165Y444807D01*
X99166Y444808D01*
X99166Y444810D01*
X99167Y444810D01*
X99166Y444810D01*
X99167Y444814D01*
X99168Y444818D01*
X99169Y444822D01*
X99169Y444823D01*
X99170Y444827D01*
X99171Y444831D01*
X99172Y444835D01*
X99181Y444882D01*
X99182Y444886D01*
X99183Y444890D01*
X99183Y444891D01*
X99183Y444895D01*
X99184Y444899D01*
X99185Y444903D01*
X99186Y444907D01*
X99186Y444908D01*
X99187Y444912D01*
X99188Y444916D01*
X99196Y444958D01*
X99196Y444959D01*
X99197Y444963D01*
X99198Y444967D01*
X99199Y444971D01*
X99199Y444975D01*
X99199Y444976D01*
X99200Y444980D01*
X99201Y444984D01*
X99202Y444988D01*
X99203Y444992D01*
X99203Y444993D01*
X99204Y444997D01*
X99204Y444999D01*
X99204Y445000D01*
X99204Y450000D01*
X99204Y450001D01*
X99166Y450192D01*
X99165Y450193D01*
X99165Y450194D01*
X99057Y450356D01*
X99056Y450356D01*
X99056Y450357D01*
X98894Y450465D01*
X98893Y450465D01*
X98892Y450466D01*
X98701Y450504D01*
X98700Y450504D01*
X97700Y450504D01*
X97699Y450504D01*
X97508Y450466D01*
X97507Y450465D01*
X97506Y450465D01*
X97344Y450357D01*
X97344Y450356D01*
X97343Y450356D01*
X97235Y450194D01*
X97235Y450193D01*
X97234Y450192D01*
X97230Y450170D01*
X97229Y450170D01*
X97230Y450170D01*
X97229Y450166D01*
X97228Y450162D01*
X97227Y450157D01*
X97226Y450153D01*
X97225Y450149D01*
X97224Y450145D01*
X97224Y450140D01*
X97223Y450136D01*
X97214Y450094D01*
X97213Y450089D01*
X97213Y450085D01*
X97212Y450081D01*
X97211Y450077D01*
X97210Y450072D01*
X97209Y450068D01*
X97208Y450064D01*
X97208Y450060D01*
X97207Y450055D01*
X97198Y450013D01*
X97197Y450009D01*
X97197Y450004D01*
X97196Y450001D01*
X97196Y450000D01*
X97196Y445000D01*
X97196Y444999D01*
X97234Y444808D01*
X97235Y444807D01*
X97235Y444806D01*
X97343Y444644D01*
X97344Y444644D01*
X97344Y444643D01*
X97506Y444535D01*
X97507Y444535D01*
X97508Y444534D01*
X97699Y444496D01*
X97700Y444496D01*
X98700Y444496D01*
X98700Y444496D01*
G37*
G36*
X94700Y414496D02*
X94700Y414496D01*
X94701Y414496D01*
X94892Y414534D01*
X94893Y414535D01*
X94894Y414535D01*
X95056Y414643D01*
X95056Y414644D01*
X95057Y414644D01*
X95165Y414806D01*
X95165Y414807D01*
X95166Y414808D01*
X95166Y414810D01*
X95167Y414810D01*
X95166Y414810D01*
X95167Y414814D01*
X95168Y414818D01*
X95169Y414822D01*
X95169Y414823D01*
X95170Y414827D01*
X95171Y414831D01*
X95172Y414835D01*
X95181Y414882D01*
X95182Y414886D01*
X95183Y414890D01*
X95183Y414891D01*
X95183Y414895D01*
X95184Y414899D01*
X95185Y414903D01*
X95186Y414907D01*
X95186Y414908D01*
X95187Y414912D01*
X95188Y414916D01*
X95196Y414958D01*
X95196Y414959D01*
X95197Y414963D01*
X95198Y414967D01*
X95199Y414971D01*
X95199Y414975D01*
X95199Y414976D01*
X95200Y414980D01*
X95201Y414984D01*
X95202Y414988D01*
X95203Y414992D01*
X95203Y414993D01*
X95204Y414997D01*
X95204Y414999D01*
X95204Y415000D01*
X95204Y420000D01*
X95204Y420001D01*
X95166Y420192D01*
X95165Y420193D01*
X95165Y420194D01*
X95057Y420356D01*
X95056Y420356D01*
X95056Y420357D01*
X94894Y420465D01*
X94893Y420465D01*
X94892Y420466D01*
X94701Y420504D01*
X94700Y420504D01*
X93700Y420504D01*
X93699Y420504D01*
X93508Y420466D01*
X93507Y420465D01*
X93506Y420465D01*
X93344Y420357D01*
X93344Y420356D01*
X93343Y420356D01*
X93235Y420194D01*
X93235Y420193D01*
X93234Y420192D01*
X93230Y420170D01*
X93229Y420170D01*
X93230Y420170D01*
X93229Y420166D01*
X93228Y420162D01*
X93227Y420157D01*
X93226Y420153D01*
X93225Y420149D01*
X93224Y420145D01*
X93224Y420140D01*
X93223Y420136D01*
X93214Y420094D01*
X93213Y420089D01*
X93213Y420085D01*
X93212Y420081D01*
X93211Y420077D01*
X93210Y420072D01*
X93209Y420068D01*
X93208Y420064D01*
X93208Y420060D01*
X93207Y420055D01*
X93198Y420013D01*
X93197Y420009D01*
X93197Y420004D01*
X93196Y420001D01*
X93196Y420000D01*
X93196Y415000D01*
X93196Y414999D01*
X93234Y414808D01*
X93235Y414807D01*
X93235Y414806D01*
X93343Y414644D01*
X93344Y414644D01*
X93344Y414643D01*
X93506Y414535D01*
X93507Y414535D01*
X93508Y414534D01*
X93699Y414496D01*
X93700Y414496D01*
X94700Y414496D01*
X94700Y414496D01*
G37*
G36*
X90700Y414496D02*
X90700Y414496D01*
X90701Y414496D01*
X90892Y414534D01*
X90893Y414535D01*
X90894Y414535D01*
X91056Y414643D01*
X91056Y414644D01*
X91057Y414644D01*
X91165Y414806D01*
X91165Y414807D01*
X91166Y414808D01*
X91166Y414810D01*
X91167Y414810D01*
X91166Y414810D01*
X91167Y414814D01*
X91168Y414818D01*
X91169Y414822D01*
X91169Y414823D01*
X91170Y414827D01*
X91171Y414831D01*
X91172Y414835D01*
X91181Y414882D01*
X91182Y414886D01*
X91183Y414890D01*
X91183Y414891D01*
X91183Y414895D01*
X91184Y414899D01*
X91185Y414903D01*
X91186Y414907D01*
X91186Y414908D01*
X91187Y414912D01*
X91188Y414916D01*
X91196Y414958D01*
X91196Y414959D01*
X91197Y414963D01*
X91198Y414967D01*
X91199Y414971D01*
X91199Y414975D01*
X91199Y414976D01*
X91200Y414980D01*
X91201Y414984D01*
X91202Y414988D01*
X91203Y414992D01*
X91203Y414993D01*
X91204Y414997D01*
X91204Y414999D01*
X91204Y415000D01*
X91204Y420000D01*
X91204Y420001D01*
X91166Y420192D01*
X91165Y420193D01*
X91165Y420194D01*
X91057Y420356D01*
X91056Y420356D01*
X91056Y420357D01*
X90894Y420465D01*
X90893Y420465D01*
X90892Y420466D01*
X90701Y420504D01*
X90700Y420504D01*
X89700Y420504D01*
X89699Y420504D01*
X89508Y420466D01*
X89507Y420465D01*
X89506Y420465D01*
X89344Y420357D01*
X89344Y420356D01*
X89343Y420356D01*
X89235Y420194D01*
X89235Y420193D01*
X89234Y420192D01*
X89230Y420170D01*
X89229Y420170D01*
X89230Y420170D01*
X89229Y420166D01*
X89228Y420162D01*
X89227Y420157D01*
X89226Y420153D01*
X89225Y420149D01*
X89224Y420145D01*
X89224Y420140D01*
X89223Y420136D01*
X89214Y420094D01*
X89213Y420089D01*
X89213Y420085D01*
X89212Y420081D01*
X89211Y420077D01*
X89210Y420072D01*
X89209Y420068D01*
X89208Y420064D01*
X89208Y420060D01*
X89207Y420055D01*
X89198Y420013D01*
X89197Y420009D01*
X89197Y420004D01*
X89196Y420001D01*
X89196Y420000D01*
X89196Y415000D01*
X89196Y414999D01*
X89234Y414808D01*
X89235Y414807D01*
X89235Y414806D01*
X89343Y414644D01*
X89344Y414644D01*
X89344Y414643D01*
X89506Y414535D01*
X89507Y414535D01*
X89508Y414534D01*
X89699Y414496D01*
X89700Y414496D01*
X90700Y414496D01*
X90700Y414496D01*
G37*
G36*
X98700Y414496D02*
X98700Y414496D01*
X98701Y414496D01*
X98892Y414534D01*
X98893Y414535D01*
X98894Y414535D01*
X99056Y414643D01*
X99056Y414644D01*
X99057Y414644D01*
X99165Y414806D01*
X99165Y414807D01*
X99166Y414808D01*
X99166Y414810D01*
X99167Y414810D01*
X99166Y414810D01*
X99167Y414814D01*
X99168Y414818D01*
X99169Y414822D01*
X99169Y414823D01*
X99170Y414827D01*
X99171Y414831D01*
X99172Y414835D01*
X99181Y414882D01*
X99182Y414886D01*
X99183Y414890D01*
X99183Y414891D01*
X99183Y414895D01*
X99184Y414899D01*
X99185Y414903D01*
X99186Y414907D01*
X99186Y414908D01*
X99187Y414912D01*
X99188Y414916D01*
X99196Y414958D01*
X99196Y414959D01*
X99197Y414963D01*
X99198Y414967D01*
X99199Y414971D01*
X99199Y414975D01*
X99199Y414976D01*
X99200Y414980D01*
X99201Y414984D01*
X99202Y414988D01*
X99203Y414992D01*
X99203Y414993D01*
X99204Y414997D01*
X99204Y414999D01*
X99204Y415000D01*
X99204Y420000D01*
X99204Y420001D01*
X99166Y420192D01*
X99165Y420193D01*
X99165Y420194D01*
X99057Y420356D01*
X99056Y420356D01*
X99056Y420357D01*
X98894Y420465D01*
X98893Y420465D01*
X98892Y420466D01*
X98701Y420504D01*
X98700Y420504D01*
X97700Y420504D01*
X97699Y420504D01*
X97508Y420466D01*
X97507Y420465D01*
X97506Y420465D01*
X97344Y420357D01*
X97344Y420356D01*
X97343Y420356D01*
X97235Y420194D01*
X97235Y420193D01*
X97234Y420192D01*
X97230Y420170D01*
X97229Y420170D01*
X97230Y420170D01*
X97229Y420166D01*
X97228Y420162D01*
X97227Y420157D01*
X97226Y420153D01*
X97225Y420149D01*
X97224Y420145D01*
X97224Y420140D01*
X97223Y420136D01*
X97214Y420094D01*
X97213Y420089D01*
X97213Y420085D01*
X97212Y420081D01*
X97211Y420077D01*
X97210Y420072D01*
X97209Y420068D01*
X97208Y420064D01*
X97208Y420060D01*
X97207Y420055D01*
X97198Y420013D01*
X97197Y420009D01*
X97197Y420004D01*
X97196Y420001D01*
X97196Y420000D01*
X97196Y415000D01*
X97196Y414999D01*
X97234Y414808D01*
X97235Y414807D01*
X97235Y414806D01*
X97343Y414644D01*
X97344Y414644D01*
X97344Y414643D01*
X97506Y414535D01*
X97507Y414535D01*
X97508Y414534D01*
X97699Y414496D01*
X97700Y414496D01*
X98700Y414496D01*
X98700Y414496D01*
G37*
G36*
X86700Y414496D02*
X86700Y414496D01*
X86701Y414496D01*
X86892Y414534D01*
X86893Y414535D01*
X86894Y414535D01*
X87056Y414643D01*
X87056Y414644D01*
X87057Y414644D01*
X87165Y414806D01*
X87165Y414807D01*
X87166Y414808D01*
X87166Y414810D01*
X87167Y414810D01*
X87166Y414810D01*
X87167Y414814D01*
X87168Y414818D01*
X87169Y414822D01*
X87169Y414823D01*
X87170Y414827D01*
X87171Y414831D01*
X87172Y414835D01*
X87181Y414882D01*
X87182Y414886D01*
X87183Y414890D01*
X87183Y414891D01*
X87183Y414895D01*
X87184Y414899D01*
X87185Y414903D01*
X87186Y414907D01*
X87186Y414908D01*
X87187Y414912D01*
X87188Y414916D01*
X87196Y414958D01*
X87196Y414959D01*
X87197Y414963D01*
X87198Y414967D01*
X87199Y414971D01*
X87199Y414975D01*
X87199Y414976D01*
X87200Y414980D01*
X87201Y414984D01*
X87202Y414988D01*
X87203Y414992D01*
X87203Y414993D01*
X87204Y414997D01*
X87204Y414999D01*
X87204Y415000D01*
X87204Y420000D01*
X87204Y420001D01*
X87166Y420192D01*
X87165Y420193D01*
X87165Y420194D01*
X87057Y420356D01*
X87056Y420356D01*
X87056Y420357D01*
X86894Y420465D01*
X86893Y420465D01*
X86892Y420466D01*
X86701Y420504D01*
X86700Y420504D01*
X85700Y420504D01*
X85699Y420504D01*
X85508Y420466D01*
X85507Y420465D01*
X85506Y420465D01*
X85344Y420357D01*
X85344Y420356D01*
X85343Y420356D01*
X85235Y420194D01*
X85235Y420193D01*
X85234Y420192D01*
X85230Y420170D01*
X85229Y420170D01*
X85230Y420170D01*
X85229Y420166D01*
X85228Y420162D01*
X85227Y420157D01*
X85226Y420153D01*
X85225Y420149D01*
X85224Y420145D01*
X85224Y420140D01*
X85223Y420136D01*
X85214Y420094D01*
X85213Y420089D01*
X85213Y420085D01*
X85212Y420081D01*
X85211Y420077D01*
X85210Y420072D01*
X85209Y420068D01*
X85208Y420064D01*
X85208Y420060D01*
X85207Y420055D01*
X85198Y420013D01*
X85197Y420009D01*
X85197Y420004D01*
X85196Y420001D01*
X85196Y420000D01*
X85196Y415000D01*
X85196Y414999D01*
X85234Y414808D01*
X85235Y414807D01*
X85235Y414806D01*
X85343Y414644D01*
X85344Y414644D01*
X85344Y414643D01*
X85506Y414535D01*
X85507Y414535D01*
X85508Y414534D01*
X85699Y414496D01*
X85700Y414496D01*
X86700Y414496D01*
X86700Y414496D01*
G37*
G36*
X109700Y437496D02*
X109700Y437496D01*
X109701Y437496D01*
X109892Y437534D01*
X109893Y437535D01*
X109894Y437535D01*
X110056Y437643D01*
X110056Y437644D01*
X110057Y437644D01*
X110165Y437806D01*
X110165Y437807D01*
X110166Y437808D01*
X110166Y437810D01*
X110167Y437810D01*
X110166Y437810D01*
X110167Y437814D01*
X110168Y437818D01*
X110169Y437822D01*
X110169Y437823D01*
X110170Y437827D01*
X110171Y437831D01*
X110172Y437835D01*
X110181Y437882D01*
X110182Y437886D01*
X110183Y437890D01*
X110183Y437891D01*
X110183Y437895D01*
X110184Y437899D01*
X110185Y437903D01*
X110186Y437907D01*
X110186Y437908D01*
X110187Y437912D01*
X110188Y437916D01*
X110196Y437958D01*
X110196Y437959D01*
X110197Y437963D01*
X110198Y437967D01*
X110199Y437971D01*
X110199Y437975D01*
X110199Y437976D01*
X110200Y437980D01*
X110201Y437984D01*
X110202Y437988D01*
X110203Y437992D01*
X110203Y437993D01*
X110204Y437997D01*
X110204Y437999D01*
X110204Y438000D01*
X110204Y439000D01*
X110204Y439001D01*
X110166Y439192D01*
X110165Y439193D01*
X110165Y439194D01*
X110057Y439356D01*
X110056Y439356D01*
X110056Y439357D01*
X109894Y439465D01*
X109893Y439465D01*
X109892Y439466D01*
X109701Y439504D01*
X109700Y439504D01*
X104700Y439504D01*
X104699Y439504D01*
X104508Y439466D01*
X104507Y439465D01*
X104506Y439465D01*
X104344Y439357D01*
X104344Y439356D01*
X104343Y439356D01*
X104235Y439194D01*
X104235Y439193D01*
X104234Y439192D01*
X104233Y439188D01*
X104232Y439184D01*
X104231Y439179D01*
X104231Y439175D01*
X104230Y439175D01*
X104231Y439175D01*
X104230Y439171D01*
X104229Y439167D01*
X104228Y439162D01*
X104227Y439158D01*
X104226Y439154D01*
X104218Y439111D01*
X104217Y439107D01*
X104216Y439103D01*
X104215Y439099D01*
X104214Y439094D01*
X104214Y439090D01*
X104213Y439086D01*
X104212Y439082D01*
X104211Y439077D01*
X104210Y439073D01*
X104202Y439031D01*
X104201Y439026D01*
X104200Y439022D01*
X104199Y439018D01*
X104198Y439014D01*
X104198Y439009D01*
X104197Y439005D01*
X104196Y439001D01*
X104196Y439000D01*
X104196Y438000D01*
X104196Y437999D01*
X104234Y437808D01*
X104235Y437807D01*
X104235Y437806D01*
X104343Y437644D01*
X104344Y437644D01*
X104344Y437643D01*
X104506Y437535D01*
X104507Y437535D01*
X104508Y437534D01*
X104699Y437496D01*
X104700Y437496D01*
X109700Y437496D01*
X109700Y437496D01*
G37*
G36*
X79700Y437496D02*
X79700Y437496D01*
X79701Y437496D01*
X79892Y437534D01*
X79893Y437535D01*
X79894Y437535D01*
X80056Y437643D01*
X80056Y437644D01*
X80057Y437644D01*
X80165Y437806D01*
X80165Y437807D01*
X80166Y437808D01*
X80166Y437810D01*
X80167Y437810D01*
X80166Y437810D01*
X80167Y437814D01*
X80168Y437818D01*
X80169Y437822D01*
X80169Y437823D01*
X80170Y437827D01*
X80171Y437831D01*
X80172Y437835D01*
X80181Y437882D01*
X80182Y437886D01*
X80183Y437890D01*
X80183Y437891D01*
X80183Y437895D01*
X80184Y437899D01*
X80185Y437903D01*
X80186Y437907D01*
X80186Y437908D01*
X80187Y437912D01*
X80188Y437916D01*
X80196Y437958D01*
X80196Y437959D01*
X80197Y437963D01*
X80198Y437967D01*
X80199Y437971D01*
X80199Y437975D01*
X80199Y437976D01*
X80200Y437980D01*
X80201Y437984D01*
X80202Y437988D01*
X80203Y437992D01*
X80203Y437993D01*
X80204Y437997D01*
X80204Y437999D01*
X80204Y438000D01*
X80204Y439000D01*
X80204Y439001D01*
X80166Y439192D01*
X80165Y439193D01*
X80165Y439194D01*
X80057Y439356D01*
X80056Y439356D01*
X80056Y439357D01*
X79894Y439465D01*
X79893Y439465D01*
X79892Y439466D01*
X79701Y439504D01*
X79700Y439504D01*
X74700Y439504D01*
X74699Y439504D01*
X74508Y439466D01*
X74507Y439465D01*
X74506Y439465D01*
X74344Y439357D01*
X74344Y439356D01*
X74343Y439356D01*
X74235Y439194D01*
X74235Y439193D01*
X74234Y439192D01*
X74233Y439188D01*
X74232Y439184D01*
X74231Y439179D01*
X74231Y439175D01*
X74230Y439175D01*
X74231Y439175D01*
X74230Y439171D01*
X74229Y439167D01*
X74228Y439162D01*
X74227Y439158D01*
X74226Y439154D01*
X74218Y439111D01*
X74217Y439107D01*
X74216Y439103D01*
X74215Y439099D01*
X74214Y439094D01*
X74214Y439090D01*
X74213Y439086D01*
X74212Y439082D01*
X74211Y439077D01*
X74210Y439073D01*
X74202Y439031D01*
X74201Y439026D01*
X74200Y439022D01*
X74199Y439018D01*
X74198Y439014D01*
X74198Y439009D01*
X74197Y439005D01*
X74196Y439001D01*
X74196Y439000D01*
X74196Y438000D01*
X74196Y437999D01*
X74234Y437808D01*
X74235Y437807D01*
X74235Y437806D01*
X74343Y437644D01*
X74344Y437644D01*
X74344Y437643D01*
X74506Y437535D01*
X74507Y437535D01*
X74508Y437534D01*
X74699Y437496D01*
X74700Y437496D01*
X79700Y437496D01*
X79700Y437496D01*
G37*
G36*
X109700Y433496D02*
X109700Y433496D01*
X109701Y433496D01*
X109892Y433534D01*
X109893Y433535D01*
X109894Y433535D01*
X110056Y433643D01*
X110056Y433644D01*
X110057Y433644D01*
X110165Y433806D01*
X110165Y433807D01*
X110166Y433808D01*
X110166Y433810D01*
X110167Y433810D01*
X110166Y433810D01*
X110167Y433814D01*
X110168Y433818D01*
X110169Y433822D01*
X110169Y433823D01*
X110170Y433827D01*
X110171Y433831D01*
X110172Y433835D01*
X110181Y433882D01*
X110182Y433886D01*
X110183Y433890D01*
X110183Y433891D01*
X110183Y433895D01*
X110184Y433899D01*
X110185Y433903D01*
X110186Y433907D01*
X110186Y433908D01*
X110187Y433912D01*
X110188Y433916D01*
X110196Y433958D01*
X110196Y433959D01*
X110197Y433963D01*
X110198Y433967D01*
X110199Y433971D01*
X110199Y433975D01*
X110199Y433976D01*
X110200Y433980D01*
X110201Y433984D01*
X110202Y433988D01*
X110203Y433992D01*
X110203Y433993D01*
X110204Y433997D01*
X110204Y433999D01*
X110204Y434000D01*
X110204Y435000D01*
X110204Y435001D01*
X110166Y435192D01*
X110165Y435193D01*
X110165Y435194D01*
X110057Y435356D01*
X110056Y435356D01*
X110056Y435357D01*
X109894Y435465D01*
X109893Y435465D01*
X109892Y435466D01*
X109701Y435504D01*
X109700Y435504D01*
X104700Y435504D01*
X104699Y435504D01*
X104508Y435466D01*
X104507Y435465D01*
X104506Y435465D01*
X104344Y435357D01*
X104344Y435356D01*
X104343Y435356D01*
X104235Y435194D01*
X104235Y435193D01*
X104234Y435192D01*
X104233Y435188D01*
X104232Y435184D01*
X104231Y435179D01*
X104231Y435175D01*
X104230Y435175D01*
X104231Y435175D01*
X104230Y435171D01*
X104229Y435167D01*
X104228Y435162D01*
X104227Y435158D01*
X104226Y435154D01*
X104218Y435111D01*
X104217Y435107D01*
X104216Y435103D01*
X104215Y435099D01*
X104214Y435094D01*
X104214Y435090D01*
X104213Y435086D01*
X104212Y435082D01*
X104211Y435077D01*
X104210Y435073D01*
X104202Y435031D01*
X104201Y435026D01*
X104200Y435022D01*
X104199Y435018D01*
X104198Y435014D01*
X104198Y435009D01*
X104197Y435005D01*
X104196Y435001D01*
X104196Y435000D01*
X104196Y434000D01*
X104196Y433999D01*
X104234Y433808D01*
X104235Y433807D01*
X104235Y433806D01*
X104343Y433644D01*
X104344Y433644D01*
X104344Y433643D01*
X104506Y433535D01*
X104507Y433535D01*
X104508Y433534D01*
X104699Y433496D01*
X104700Y433496D01*
X109700Y433496D01*
X109700Y433496D01*
G37*
G36*
X79700Y433496D02*
X79700Y433496D01*
X79701Y433496D01*
X79892Y433534D01*
X79893Y433535D01*
X79894Y433535D01*
X80056Y433643D01*
X80056Y433644D01*
X80057Y433644D01*
X80165Y433806D01*
X80165Y433807D01*
X80166Y433808D01*
X80166Y433810D01*
X80167Y433810D01*
X80166Y433810D01*
X80167Y433814D01*
X80168Y433818D01*
X80169Y433822D01*
X80169Y433823D01*
X80170Y433827D01*
X80171Y433831D01*
X80172Y433835D01*
X80181Y433882D01*
X80182Y433886D01*
X80183Y433890D01*
X80183Y433891D01*
X80183Y433895D01*
X80184Y433899D01*
X80185Y433903D01*
X80186Y433907D01*
X80186Y433908D01*
X80187Y433912D01*
X80188Y433916D01*
X80196Y433958D01*
X80196Y433959D01*
X80197Y433963D01*
X80198Y433967D01*
X80199Y433971D01*
X80199Y433975D01*
X80199Y433976D01*
X80200Y433980D01*
X80201Y433984D01*
X80202Y433988D01*
X80203Y433992D01*
X80203Y433993D01*
X80204Y433997D01*
X80204Y433999D01*
X80204Y434000D01*
X80204Y435000D01*
X80204Y435001D01*
X80166Y435192D01*
X80165Y435193D01*
X80165Y435194D01*
X80057Y435356D01*
X80056Y435356D01*
X80056Y435357D01*
X79894Y435465D01*
X79893Y435465D01*
X79892Y435466D01*
X79701Y435504D01*
X79700Y435504D01*
X74700Y435504D01*
X74699Y435504D01*
X74508Y435466D01*
X74507Y435465D01*
X74506Y435465D01*
X74344Y435357D01*
X74344Y435356D01*
X74343Y435356D01*
X74235Y435194D01*
X74235Y435193D01*
X74234Y435192D01*
X74233Y435188D01*
X74232Y435184D01*
X74231Y435179D01*
X74231Y435175D01*
X74230Y435175D01*
X74231Y435175D01*
X74230Y435171D01*
X74229Y435167D01*
X74228Y435162D01*
X74227Y435158D01*
X74226Y435154D01*
X74218Y435111D01*
X74217Y435107D01*
X74216Y435103D01*
X74215Y435099D01*
X74214Y435094D01*
X74214Y435090D01*
X74213Y435086D01*
X74212Y435082D01*
X74211Y435077D01*
X74210Y435073D01*
X74202Y435031D01*
X74201Y435026D01*
X74200Y435022D01*
X74199Y435018D01*
X74198Y435014D01*
X74198Y435009D01*
X74197Y435005D01*
X74196Y435001D01*
X74196Y435000D01*
X74196Y434000D01*
X74196Y433999D01*
X74234Y433808D01*
X74235Y433807D01*
X74235Y433806D01*
X74343Y433644D01*
X74344Y433644D01*
X74344Y433643D01*
X74506Y433535D01*
X74507Y433535D01*
X74508Y433534D01*
X74699Y433496D01*
X74700Y433496D01*
X79700Y433496D01*
X79700Y433496D01*
G37*
G36*
X109700Y429496D02*
X109700Y429496D01*
X109701Y429496D01*
X109892Y429534D01*
X109893Y429535D01*
X109894Y429535D01*
X110056Y429643D01*
X110056Y429644D01*
X110057Y429644D01*
X110165Y429806D01*
X110165Y429807D01*
X110166Y429808D01*
X110166Y429810D01*
X110167Y429810D01*
X110166Y429810D01*
X110167Y429814D01*
X110168Y429818D01*
X110169Y429822D01*
X110169Y429823D01*
X110170Y429827D01*
X110171Y429831D01*
X110172Y429835D01*
X110181Y429882D01*
X110182Y429886D01*
X110183Y429890D01*
X110183Y429891D01*
X110183Y429895D01*
X110184Y429899D01*
X110185Y429903D01*
X110186Y429907D01*
X110186Y429908D01*
X110187Y429912D01*
X110188Y429916D01*
X110196Y429958D01*
X110196Y429959D01*
X110197Y429963D01*
X110198Y429967D01*
X110199Y429971D01*
X110199Y429975D01*
X110199Y429976D01*
X110200Y429980D01*
X110201Y429984D01*
X110202Y429988D01*
X110203Y429992D01*
X110203Y429993D01*
X110204Y429997D01*
X110204Y429999D01*
X110204Y430000D01*
X110204Y431000D01*
X110204Y431001D01*
X110166Y431192D01*
X110165Y431193D01*
X110165Y431194D01*
X110057Y431356D01*
X110056Y431356D01*
X110056Y431357D01*
X109894Y431465D01*
X109893Y431465D01*
X109892Y431466D01*
X109701Y431504D01*
X109700Y431504D01*
X104700Y431504D01*
X104699Y431504D01*
X104508Y431466D01*
X104507Y431465D01*
X104506Y431465D01*
X104344Y431357D01*
X104344Y431356D01*
X104343Y431356D01*
X104235Y431194D01*
X104235Y431193D01*
X104234Y431192D01*
X104233Y431188D01*
X104232Y431184D01*
X104231Y431179D01*
X104231Y431175D01*
X104230Y431175D01*
X104231Y431175D01*
X104230Y431171D01*
X104229Y431167D01*
X104228Y431162D01*
X104227Y431158D01*
X104226Y431154D01*
X104218Y431111D01*
X104217Y431107D01*
X104216Y431103D01*
X104215Y431099D01*
X104214Y431094D01*
X104214Y431090D01*
X104213Y431086D01*
X104212Y431082D01*
X104211Y431077D01*
X104210Y431073D01*
X104202Y431031D01*
X104201Y431026D01*
X104200Y431022D01*
X104199Y431018D01*
X104198Y431014D01*
X104198Y431009D01*
X104197Y431005D01*
X104196Y431001D01*
X104196Y431000D01*
X104196Y430000D01*
X104196Y429999D01*
X104234Y429808D01*
X104235Y429807D01*
X104235Y429806D01*
X104343Y429644D01*
X104344Y429644D01*
X104344Y429643D01*
X104506Y429535D01*
X104507Y429535D01*
X104508Y429534D01*
X104699Y429496D01*
X104700Y429496D01*
X109700Y429496D01*
X109700Y429496D01*
G37*
G36*
X79700Y429496D02*
X79700Y429496D01*
X79701Y429496D01*
X79892Y429534D01*
X79893Y429535D01*
X79894Y429535D01*
X80056Y429643D01*
X80056Y429644D01*
X80057Y429644D01*
X80165Y429806D01*
X80165Y429807D01*
X80166Y429808D01*
X80166Y429810D01*
X80167Y429810D01*
X80166Y429810D01*
X80167Y429814D01*
X80168Y429818D01*
X80169Y429822D01*
X80169Y429823D01*
X80170Y429827D01*
X80171Y429831D01*
X80172Y429835D01*
X80181Y429882D01*
X80182Y429886D01*
X80183Y429890D01*
X80183Y429891D01*
X80183Y429895D01*
X80184Y429899D01*
X80185Y429903D01*
X80186Y429907D01*
X80186Y429908D01*
X80187Y429912D01*
X80188Y429916D01*
X80196Y429958D01*
X80196Y429959D01*
X80197Y429963D01*
X80198Y429967D01*
X80199Y429971D01*
X80199Y429975D01*
X80199Y429976D01*
X80200Y429980D01*
X80201Y429984D01*
X80202Y429988D01*
X80203Y429992D01*
X80203Y429993D01*
X80204Y429997D01*
X80204Y429999D01*
X80204Y430000D01*
X80204Y431000D01*
X80204Y431001D01*
X80166Y431192D01*
X80165Y431193D01*
X80165Y431194D01*
X80057Y431356D01*
X80056Y431356D01*
X80056Y431357D01*
X79894Y431465D01*
X79893Y431465D01*
X79892Y431466D01*
X79701Y431504D01*
X79700Y431504D01*
X74700Y431504D01*
X74699Y431504D01*
X74508Y431466D01*
X74507Y431465D01*
X74506Y431465D01*
X74344Y431357D01*
X74344Y431356D01*
X74343Y431356D01*
X74235Y431194D01*
X74235Y431193D01*
X74234Y431192D01*
X74233Y431188D01*
X74232Y431184D01*
X74231Y431179D01*
X74231Y431175D01*
X74230Y431175D01*
X74231Y431175D01*
X74230Y431171D01*
X74229Y431167D01*
X74228Y431162D01*
X74227Y431158D01*
X74226Y431154D01*
X74218Y431111D01*
X74217Y431107D01*
X74216Y431103D01*
X74215Y431099D01*
X74214Y431094D01*
X74214Y431090D01*
X74213Y431086D01*
X74212Y431082D01*
X74211Y431077D01*
X74210Y431073D01*
X74202Y431031D01*
X74201Y431026D01*
X74200Y431022D01*
X74199Y431018D01*
X74198Y431014D01*
X74198Y431009D01*
X74197Y431005D01*
X74196Y431001D01*
X74196Y431000D01*
X74196Y430000D01*
X74196Y429999D01*
X74234Y429808D01*
X74235Y429807D01*
X74235Y429806D01*
X74343Y429644D01*
X74344Y429644D01*
X74344Y429643D01*
X74506Y429535D01*
X74507Y429535D01*
X74508Y429534D01*
X74699Y429496D01*
X74700Y429496D01*
X79700Y429496D01*
X79700Y429496D01*
G37*
G36*
X109700Y425496D02*
X109700Y425496D01*
X109701Y425496D01*
X109892Y425534D01*
X109893Y425535D01*
X109894Y425535D01*
X110056Y425643D01*
X110056Y425644D01*
X110057Y425644D01*
X110165Y425806D01*
X110165Y425807D01*
X110166Y425808D01*
X110166Y425810D01*
X110167Y425810D01*
X110166Y425810D01*
X110167Y425814D01*
X110168Y425818D01*
X110169Y425822D01*
X110169Y425823D01*
X110170Y425827D01*
X110171Y425831D01*
X110172Y425835D01*
X110181Y425882D01*
X110182Y425886D01*
X110183Y425890D01*
X110183Y425891D01*
X110183Y425895D01*
X110184Y425899D01*
X110185Y425903D01*
X110186Y425907D01*
X110186Y425908D01*
X110187Y425912D01*
X110188Y425916D01*
X110196Y425958D01*
X110196Y425959D01*
X110197Y425963D01*
X110198Y425967D01*
X110199Y425971D01*
X110199Y425975D01*
X110199Y425976D01*
X110200Y425980D01*
X110201Y425984D01*
X110202Y425988D01*
X110203Y425992D01*
X110203Y425993D01*
X110204Y425997D01*
X110204Y425999D01*
X110204Y426000D01*
X110204Y427000D01*
X110204Y427001D01*
X110166Y427192D01*
X110165Y427193D01*
X110165Y427194D01*
X110057Y427356D01*
X110056Y427356D01*
X110056Y427357D01*
X109894Y427465D01*
X109893Y427465D01*
X109892Y427466D01*
X109701Y427504D01*
X109700Y427504D01*
X104700Y427504D01*
X104699Y427504D01*
X104508Y427466D01*
X104507Y427465D01*
X104506Y427465D01*
X104344Y427357D01*
X104344Y427356D01*
X104343Y427356D01*
X104235Y427194D01*
X104235Y427193D01*
X104234Y427192D01*
X104233Y427188D01*
X104232Y427184D01*
X104231Y427179D01*
X104231Y427175D01*
X104230Y427175D01*
X104231Y427175D01*
X104230Y427171D01*
X104229Y427167D01*
X104228Y427162D01*
X104227Y427158D01*
X104226Y427154D01*
X104218Y427111D01*
X104217Y427107D01*
X104216Y427103D01*
X104215Y427099D01*
X104214Y427094D01*
X104214Y427090D01*
X104213Y427086D01*
X104212Y427082D01*
X104211Y427077D01*
X104210Y427073D01*
X104202Y427031D01*
X104201Y427026D01*
X104200Y427022D01*
X104199Y427018D01*
X104198Y427014D01*
X104198Y427009D01*
X104197Y427005D01*
X104196Y427001D01*
X104196Y427000D01*
X104196Y426000D01*
X104196Y425999D01*
X104234Y425808D01*
X104235Y425807D01*
X104235Y425806D01*
X104343Y425644D01*
X104344Y425644D01*
X104344Y425643D01*
X104506Y425535D01*
X104507Y425535D01*
X104508Y425534D01*
X104699Y425496D01*
X104700Y425496D01*
X109700Y425496D01*
X109700Y425496D01*
G37*
G36*
X79700Y425496D02*
X79700Y425496D01*
X79701Y425496D01*
X79892Y425534D01*
X79893Y425535D01*
X79894Y425535D01*
X80056Y425643D01*
X80056Y425644D01*
X80057Y425644D01*
X80165Y425806D01*
X80165Y425807D01*
X80166Y425808D01*
X80166Y425810D01*
X80167Y425810D01*
X80166Y425810D01*
X80167Y425814D01*
X80168Y425818D01*
X80169Y425822D01*
X80169Y425823D01*
X80170Y425827D01*
X80171Y425831D01*
X80172Y425835D01*
X80181Y425882D01*
X80182Y425886D01*
X80183Y425890D01*
X80183Y425891D01*
X80183Y425895D01*
X80184Y425899D01*
X80185Y425903D01*
X80186Y425907D01*
X80186Y425908D01*
X80187Y425912D01*
X80188Y425916D01*
X80196Y425958D01*
X80196Y425959D01*
X80197Y425963D01*
X80198Y425967D01*
X80199Y425971D01*
X80199Y425975D01*
X80199Y425976D01*
X80200Y425980D01*
X80201Y425984D01*
X80202Y425988D01*
X80203Y425992D01*
X80203Y425993D01*
X80204Y425997D01*
X80204Y425999D01*
X80204Y426000D01*
X80204Y427000D01*
X80204Y427001D01*
X80166Y427192D01*
X80165Y427193D01*
X80165Y427194D01*
X80057Y427356D01*
X80056Y427356D01*
X80056Y427357D01*
X79894Y427465D01*
X79893Y427465D01*
X79892Y427466D01*
X79701Y427504D01*
X79700Y427504D01*
X74700Y427504D01*
X74699Y427504D01*
X74508Y427466D01*
X74507Y427465D01*
X74506Y427465D01*
X74344Y427357D01*
X74344Y427356D01*
X74343Y427356D01*
X74235Y427194D01*
X74235Y427193D01*
X74234Y427192D01*
X74233Y427188D01*
X74232Y427184D01*
X74231Y427179D01*
X74231Y427175D01*
X74230Y427175D01*
X74231Y427175D01*
X74230Y427171D01*
X74229Y427167D01*
X74228Y427162D01*
X74227Y427158D01*
X74226Y427154D01*
X74218Y427111D01*
X74217Y427107D01*
X74216Y427103D01*
X74215Y427099D01*
X74214Y427094D01*
X74214Y427090D01*
X74213Y427086D01*
X74212Y427082D01*
X74211Y427077D01*
X74210Y427073D01*
X74202Y427031D01*
X74201Y427026D01*
X74200Y427022D01*
X74199Y427018D01*
X74198Y427014D01*
X74198Y427009D01*
X74197Y427005D01*
X74196Y427001D01*
X74196Y427000D01*
X74196Y426000D01*
X74196Y425999D01*
X74234Y425808D01*
X74235Y425807D01*
X74235Y425806D01*
X74343Y425644D01*
X74344Y425644D01*
X74344Y425643D01*
X74506Y425535D01*
X74507Y425535D01*
X74508Y425534D01*
X74699Y425496D01*
X74700Y425496D01*
X79700Y425496D01*
X79700Y425496D01*
G37*
G36*
X82700Y414496D02*
X82700Y414496D01*
X82701Y414496D01*
X82892Y414534D01*
X82893Y414535D01*
X82894Y414535D01*
X83056Y414643D01*
X83056Y414644D01*
X83057Y414644D01*
X83165Y414806D01*
X83165Y414807D01*
X83166Y414808D01*
X83166Y414810D01*
X83167Y414810D01*
X83166Y414810D01*
X83167Y414814D01*
X83168Y414818D01*
X83169Y414822D01*
X83169Y414823D01*
X83170Y414827D01*
X83171Y414831D01*
X83172Y414835D01*
X83181Y414882D01*
X83182Y414886D01*
X83183Y414890D01*
X83183Y414891D01*
X83183Y414895D01*
X83184Y414899D01*
X83185Y414903D01*
X83186Y414907D01*
X83186Y414908D01*
X83187Y414912D01*
X83188Y414916D01*
X83196Y414958D01*
X83196Y414959D01*
X83197Y414963D01*
X83198Y414967D01*
X83199Y414971D01*
X83199Y414975D01*
X83199Y414976D01*
X83200Y414980D01*
X83201Y414984D01*
X83202Y414988D01*
X83203Y414992D01*
X83203Y414993D01*
X83204Y414997D01*
X83204Y414999D01*
X83204Y415000D01*
X83204Y420000D01*
X83203Y420001D01*
X83203Y420003D01*
X83202Y420003D01*
X83201Y420004D01*
X83200Y420004D01*
X83199Y420003D01*
X83197Y420003D01*
X81197Y418003D01*
X81197Y418001D01*
X81196Y418000D01*
X81196Y415000D01*
X81196Y414999D01*
X81234Y414808D01*
X81235Y414807D01*
X81235Y414806D01*
X81343Y414644D01*
X81344Y414644D01*
X81344Y414643D01*
X81506Y414535D01*
X81507Y414535D01*
X81508Y414534D01*
X81699Y414496D01*
X81700Y414496D01*
X82700Y414496D01*
X82700Y414496D01*
G37*
G36*
X101201Y444997D02*
X101201Y444997D01*
X101203Y444997D01*
X103203Y446997D01*
X103203Y446999D01*
X103204Y447000D01*
X103204Y450000D01*
X103204Y450001D01*
X103166Y450192D01*
X103165Y450193D01*
X103165Y450194D01*
X103057Y450356D01*
X103056Y450356D01*
X103056Y450357D01*
X102894Y450465D01*
X102893Y450465D01*
X102892Y450466D01*
X102701Y450504D01*
X102700Y450504D01*
X101700Y450504D01*
X101699Y450504D01*
X101508Y450466D01*
X101507Y450465D01*
X101506Y450465D01*
X101344Y450357D01*
X101344Y450356D01*
X101343Y450356D01*
X101235Y450194D01*
X101235Y450193D01*
X101234Y450192D01*
X101233Y450190D01*
X101233Y450186D01*
X101232Y450181D01*
X101231Y450177D01*
X101222Y450135D01*
X101222Y450130D01*
X101221Y450126D01*
X101220Y450122D01*
X101219Y450118D01*
X101218Y450113D01*
X101217Y450109D01*
X101217Y450105D01*
X101216Y450101D01*
X101215Y450096D01*
X101206Y450054D01*
X101206Y450050D01*
X101205Y450045D01*
X101204Y450041D01*
X101203Y450037D01*
X101202Y450033D01*
X101201Y450028D01*
X101200Y450024D01*
X101200Y450020D01*
X101196Y450001D01*
X101196Y450000D01*
X101196Y445000D01*
X101197Y444999D01*
X101197Y444997D01*
X101198Y444997D01*
X101199Y444996D01*
X101201Y444997D01*
G37*
G36*
X79701Y441497D02*
X79701Y441497D01*
X79703Y441497D01*
X79703Y441498D01*
X79704Y441499D01*
X79703Y441501D01*
X79703Y441503D01*
X77703Y443503D01*
X77701Y443503D01*
X77700Y443504D01*
X74700Y443504D01*
X74699Y443504D01*
X74508Y443466D01*
X74507Y443465D01*
X74506Y443465D01*
X74344Y443357D01*
X74344Y443356D01*
X74343Y443356D01*
X74235Y443194D01*
X74235Y443193D01*
X74234Y443192D01*
X74233Y443188D01*
X74232Y443184D01*
X74231Y443179D01*
X74231Y443175D01*
X74230Y443175D01*
X74231Y443175D01*
X74230Y443171D01*
X74229Y443167D01*
X74228Y443162D01*
X74227Y443158D01*
X74226Y443154D01*
X74218Y443111D01*
X74217Y443107D01*
X74216Y443103D01*
X74215Y443099D01*
X74214Y443094D01*
X74214Y443090D01*
X74213Y443086D01*
X74212Y443082D01*
X74211Y443077D01*
X74210Y443073D01*
X74202Y443031D01*
X74201Y443026D01*
X74200Y443022D01*
X74199Y443018D01*
X74198Y443014D01*
X74198Y443009D01*
X74197Y443005D01*
X74196Y443001D01*
X74196Y443000D01*
X74196Y442000D01*
X74196Y441999D01*
X74234Y441808D01*
X74235Y441807D01*
X74235Y441806D01*
X74343Y441644D01*
X74344Y441644D01*
X74344Y441643D01*
X74506Y441535D01*
X74507Y441535D01*
X74508Y441534D01*
X74699Y441496D01*
X74700Y441496D01*
X79700Y441496D01*
X79701Y441497D01*
G37*
G36*
X109700Y421496D02*
X109700Y421496D01*
X109701Y421496D01*
X109892Y421534D01*
X109893Y421535D01*
X109894Y421535D01*
X110056Y421643D01*
X110056Y421644D01*
X110057Y421644D01*
X110165Y421806D01*
X110165Y421807D01*
X110166Y421808D01*
X110166Y421810D01*
X110167Y421810D01*
X110166Y421810D01*
X110167Y421814D01*
X110168Y421818D01*
X110169Y421822D01*
X110169Y421823D01*
X110170Y421827D01*
X110171Y421831D01*
X110172Y421835D01*
X110181Y421882D01*
X110182Y421886D01*
X110183Y421890D01*
X110183Y421891D01*
X110183Y421895D01*
X110184Y421899D01*
X110185Y421903D01*
X110186Y421907D01*
X110186Y421908D01*
X110187Y421912D01*
X110188Y421916D01*
X110196Y421958D01*
X110196Y421959D01*
X110197Y421963D01*
X110198Y421967D01*
X110199Y421971D01*
X110199Y421975D01*
X110199Y421976D01*
X110200Y421980D01*
X110201Y421984D01*
X110202Y421988D01*
X110203Y421992D01*
X110203Y421993D01*
X110204Y421997D01*
X110204Y421999D01*
X110204Y422000D01*
X110204Y423000D01*
X110204Y423001D01*
X110166Y423192D01*
X110165Y423193D01*
X110165Y423194D01*
X110057Y423356D01*
X110056Y423356D01*
X110056Y423357D01*
X109894Y423465D01*
X109893Y423465D01*
X109892Y423466D01*
X109701Y423504D01*
X109700Y423504D01*
X104700Y423504D01*
X104699Y423503D01*
X104697Y423503D01*
X104697Y423502D01*
X104696Y423501D01*
X104697Y423499D01*
X104697Y423497D01*
X106697Y421497D01*
X106699Y421497D01*
X106700Y421496D01*
X109700Y421496D01*
X109700Y421496D01*
G37*
G36*
X77702Y421497D02*
X77702Y421497D01*
X77703Y421497D01*
X79703Y423497D01*
X79703Y423498D01*
X79704Y423499D01*
X79703Y423501D01*
X79703Y423503D01*
X79701Y423503D01*
X79700Y423504D01*
X74700Y423504D01*
X74699Y423504D01*
X74508Y423466D01*
X74507Y423465D01*
X74506Y423465D01*
X74344Y423357D01*
X74344Y423356D01*
X74343Y423356D01*
X74235Y423194D01*
X74235Y423193D01*
X74234Y423192D01*
X74196Y423001D01*
X74196Y423000D01*
X74196Y422000D01*
X74196Y421999D01*
X74234Y421808D01*
X74235Y421807D01*
X74235Y421806D01*
X74343Y421644D01*
X74344Y421644D01*
X74344Y421643D01*
X74506Y421535D01*
X74507Y421535D01*
X74508Y421534D01*
X74699Y421496D01*
X74700Y421496D01*
X77700Y421496D01*
X77702Y421497D01*
G37*
G36*
X83201Y444997D02*
X83201Y444997D01*
X83203Y444997D01*
X83203Y444999D01*
X83204Y445000D01*
X83204Y450000D01*
X83204Y450001D01*
X83166Y450192D01*
X83165Y450193D01*
X83165Y450194D01*
X83057Y450356D01*
X83056Y450356D01*
X83056Y450357D01*
X82894Y450465D01*
X82893Y450465D01*
X82892Y450466D01*
X82701Y450504D01*
X82700Y450504D01*
X81700Y450504D01*
X81699Y450504D01*
X81508Y450466D01*
X81507Y450465D01*
X81506Y450465D01*
X81344Y450357D01*
X81344Y450356D01*
X81343Y450356D01*
X81235Y450194D01*
X81235Y450193D01*
X81234Y450192D01*
X81196Y450001D01*
X81196Y450000D01*
X81196Y447000D01*
X81197Y446998D01*
X81197Y446997D01*
X83197Y444997D01*
X83198Y444997D01*
X83199Y444996D01*
X83201Y444997D01*
G37*
G36*
X109700Y441496D02*
X109700Y441496D01*
X109701Y441496D01*
X109892Y441534D01*
X109893Y441535D01*
X109894Y441535D01*
X110056Y441643D01*
X110056Y441644D01*
X110057Y441644D01*
X110165Y441806D01*
X110165Y441807D01*
X110166Y441808D01*
X110204Y441999D01*
X110204Y442000D01*
X110204Y443000D01*
X110204Y443001D01*
X110166Y443192D01*
X110165Y443193D01*
X110165Y443194D01*
X110057Y443356D01*
X110056Y443356D01*
X110056Y443357D01*
X109894Y443465D01*
X109893Y443465D01*
X109892Y443466D01*
X109701Y443504D01*
X109700Y443504D01*
X106700Y443504D01*
X106698Y443503D01*
X106697Y443503D01*
X104697Y441503D01*
X104697Y441502D01*
X104696Y441501D01*
X104697Y441499D01*
X104697Y441497D01*
X104699Y441497D01*
X104700Y441496D01*
X109700Y441496D01*
X109700Y441496D01*
G37*
G36*
X102700Y414496D02*
X102700Y414496D01*
X102701Y414496D01*
X102892Y414534D01*
X102893Y414535D01*
X102894Y414535D01*
X103056Y414643D01*
X103056Y414644D01*
X103057Y414644D01*
X103165Y414806D01*
X103165Y414807D01*
X103166Y414808D01*
X103204Y414999D01*
X103204Y415000D01*
X103204Y418000D01*
X103203Y418002D01*
X103203Y418003D01*
X101203Y420003D01*
X101202Y420003D01*
X101201Y420004D01*
X101199Y420003D01*
X101197Y420003D01*
X101197Y420001D01*
X101196Y420000D01*
X101196Y415000D01*
X101196Y414999D01*
X101234Y414808D01*
X101235Y414807D01*
X101235Y414806D01*
X101343Y414644D01*
X101344Y414644D01*
X101344Y414643D01*
X101506Y414535D01*
X101507Y414535D01*
X101508Y414534D01*
X101699Y414496D01*
X101700Y414496D01*
X102700Y414496D01*
X102700Y414496D01*
G37*
D10*
X412360Y162430D03*
X402860Y182750D03*
X421860Y182750D03*
D11*
X42926Y439924D03*
X42926Y449924D03*
X31426Y444924D03*
D12*
X205646Y657454D03*
X205646Y638454D03*
X226646Y647954D03*
D10*
X466208Y158366D03*
X456708Y178686D03*
X475708Y178686D03*
D13*
X251507Y723798D03*
X251507Y733298D03*
X251507Y742798D03*
X225505Y742798D03*
X225505Y723798D03*
D14*
X462238Y485722D03*
X449538Y485722D03*
X436838Y485722D03*
X424138Y485722D03*
X411438Y485722D03*
X398738Y485722D03*
X386038Y485722D03*
X373338Y485722D03*
X360638Y485722D03*
X347938Y485722D03*
X335238Y485722D03*
X322538Y485722D03*
X309838Y485722D03*
X297138Y485722D03*
D15*
X282238Y452872D03*
X282238Y440172D03*
X282238Y427472D03*
X282238Y414772D03*
X282238Y402072D03*
X282238Y389372D03*
X282238Y376672D03*
X282238Y363972D03*
X282238Y351272D03*
X282238Y338572D03*
D14*
X297138Y305722D03*
X309838Y305722D03*
X322538Y305722D03*
X335238Y305722D03*
X347938Y305722D03*
X360638Y305722D03*
X373338Y305722D03*
X386038Y305722D03*
X398738Y305722D03*
X411438Y305722D03*
X424138Y305722D03*
X436838Y305722D03*
X449538Y305722D03*
X462238Y305722D03*
D16*
X385238Y395722D03*
D17*
X56564Y450178D03*
X56564Y440178D03*
D18*
X32768Y463720D03*
X42768Y463720D03*
D11*
X146402Y405474D03*
X146402Y395474D03*
X157902Y400474D03*
D17*
X134034Y395728D03*
X134034Y405728D03*
X171118Y399886D03*
X171118Y389886D03*
D19*
X82900Y386328D03*
X72900Y386328D03*
X77900Y374828D03*
D18*
X72900Y398188D03*
X82900Y398188D03*
D17*
X94410Y374994D03*
X94410Y364994D03*
D11*
X43180Y403856D03*
X43180Y413856D03*
X31680Y408856D03*
D17*
X55294Y413856D03*
X55294Y403856D03*
D18*
X30482Y389044D03*
X40482Y389044D03*
D11*
X142592Y459576D03*
X142592Y449576D03*
X154092Y454576D03*
D17*
X130224Y449830D03*
X130224Y459830D03*
X178484Y454750D03*
X178484Y444750D03*
D19*
X105666Y477866D03*
X115666Y477866D03*
X110666Y489366D03*
D18*
X115666Y463466D03*
X105666Y463466D03*
X109824Y504360D03*
X99824Y504360D03*
D20*
X410346Y240538D03*
X427346Y240538D03*
X384692Y208026D03*
X401692Y208026D03*
D21*
X195326Y741290D03*
X195326Y724290D03*
D17*
X173482Y666162D03*
X173482Y656162D03*
X236384Y558188D03*
X236384Y568188D03*
D20*
X340360Y159382D03*
X357360Y159382D03*
D21*
X338706Y51308D03*
X338706Y34308D03*
D20*
X142494Y569858D03*
X142494Y586858D03*
X160274Y721496D03*
X160274Y738496D03*
D21*
X279264Y696976D03*
X262264Y696976D03*
D20*
X459362Y41148D03*
X459362Y58148D03*
D22*
X433900Y33462D03*
X433900Y72462D03*
X361900Y72462D03*
X361900Y33462D03*
X362644Y140274D03*
X362644Y101274D03*
X434644Y101274D03*
X434644Y140274D03*
D23*
X354212Y630936D03*
X371212Y630936D03*
D24*
X339168Y602132D03*
X339168Y621132D03*
X317168Y621132D03*
X317168Y611632D03*
X317168Y602132D03*
D21*
X361324Y602488D03*
X378324Y602488D03*
X191126Y589534D03*
X174126Y589534D03*
D20*
X293116Y580000D03*
X293116Y563000D03*
X270764Y580762D03*
X270764Y563762D03*
D24*
X271350Y600862D03*
X271350Y619862D03*
X249350Y619862D03*
X249350Y610362D03*
X249350Y600862D03*
X271350Y610362D03*
D18*
X261446Y640842D03*
X271446Y640842D03*
D20*
X216662Y611242D03*
X216662Y594242D03*
X287782Y626228D03*
X287782Y609228D03*
X177410Y696468D03*
X160410Y696468D03*
D25*
X360578Y737080D03*
X360578Y670080D03*
D26*
X316078Y713580D03*
X316078Y693580D03*
D27*
X238030Y131542D03*
X238030Y117542D03*
X238030Y145542D03*
X238030Y159542D03*
X238030Y173542D03*
X238030Y187542D03*
X238030Y201542D03*
X238030Y215542D03*
D28*
X210030Y103542D03*
X196030Y103542D03*
X182030Y103542D03*
X168030Y103542D03*
X154030Y103542D03*
X140030Y103542D03*
X210030Y229542D03*
X196030Y229542D03*
X182030Y229542D03*
X168030Y229542D03*
X154030Y229542D03*
X126030Y229542D03*
X140030Y229542D03*
X126030Y103542D03*
X112030Y103542D03*
X112030Y229542D03*
D29*
X163030Y166542D03*
D20*
X282180Y71862D03*
X282180Y54862D03*
X241554Y71492D03*
X241554Y54492D03*
X219964Y72000D03*
X219964Y55000D03*
D21*
X144297Y46092D03*
X144297Y29092D03*
X121158Y34154D03*
X121158Y17154D03*
X166878Y57268D03*
X166878Y40268D03*
X139192Y285868D03*
X139192Y268868D03*
D30*
X521208Y252984D03*
X521970Y208788D03*
X523748Y165100D03*
X523240Y120142D03*
X523494Y75946D03*
X522986Y31750D03*
X515366Y552196D03*
X515366Y600202D03*
D31*
X68620Y683014D03*
X73620Y683014D03*
X63620Y683014D03*
X58620Y683014D03*
X53620Y683014D03*
X78620Y683014D03*
X83620Y683014D03*
X88620Y683014D03*
D32*
X95120Y683014D03*
D33*
X47120Y683014D03*
D32*
X39120Y683014D03*
X103120Y683014D03*
D18*
X135302Y670560D03*
X125302Y670560D03*
X31830Y649478D03*
X41830Y649478D03*
D34*
X173533Y618337D03*
X173533Y641097D03*
D20*
X199136Y71898D03*
X199136Y54898D03*
D21*
X444636Y510438D03*
X461636Y510438D03*
D20*
X111150Y402505D03*
X111150Y385505D03*
X90627Y465972D03*
X90627Y482972D03*
D21*
X131505Y434645D03*
X148505Y434645D03*
D35*
X109216Y626468D03*
X109216Y639468D03*
X109216Y632968D03*
X127716Y626468D03*
X127716Y632968D03*
X127716Y639468D03*
D36*
X75450Y591700D03*
X62750Y591700D03*
X75450Y549700D03*
X62750Y549700D03*
X88150Y591700D03*
X50050Y591700D03*
X50050Y549700D03*
X88150Y549700D03*
X100850Y591700D03*
X100850Y549700D03*
X37350Y549700D03*
X37350Y591700D03*
X113550Y549700D03*
X113550Y591700D03*
X24650Y549700D03*
X24650Y591700D03*
D37*
X220020Y696600D03*
X205020Y696600D03*
X200400Y557000D03*
X215400Y557000D03*
D38*
X77200Y430500D03*
X77200Y426500D03*
D39*
X86200Y417500D03*
X90200Y417500D03*
X94200Y417500D03*
D38*
X107700Y426500D03*
X107200Y430500D03*
X107200Y434500D03*
X107200Y438500D03*
D39*
X98200Y417500D03*
X98200Y447500D03*
X94200Y447500D03*
X90200Y447500D03*
X86200Y447500D03*
D38*
X77200Y434500D03*
X77200Y438500D03*
D40*
X108200Y442500D03*
X102200Y448500D03*
X82200Y448500D03*
X76200Y442500D03*
X76200Y422500D03*
X82200Y416500D03*
X102200Y416500D03*
X108200Y422500D03*
D41*
X69772Y440098D02*
X69772Y454830D01*
D42*
X315644Y610108D02*
X317168Y611632D01*
D43*
X58928Y478790D03*
D44*
X58928Y465328D01*
X69426Y454830D02*
X69772Y454830D01*
X69426Y454830D02*
X58928Y465328D01*
X210030Y103542D02*
X218608Y94964D01*
X247142Y94964D01*
D43*
X247142Y94964D03*
D44*
X282180Y54862D02*
X282064Y54746D01*
X116332Y261112D02*
X116332Y277876D01*
X116840Y278384D01*
D43*
X116840Y278384D03*
D44*
X124324Y285868D02*
X139192Y285868D01*
X124324Y285868D02*
X116840Y278384D01*
D43*
X154432Y256540D03*
D44*
X118872Y593098D02*
X118872Y630174D01*
X116454Y632592D01*
D45*
X177038Y741290D02*
X195326Y741290D01*
X176784Y741544D02*
X163322Y741544D01*
X160274Y738496D01*
X176784Y741544D02*
X177038Y741290D01*
X177038Y735212D01*
D43*
X177038Y735212D03*
D42*
X251507Y733298D02*
X259588Y733298D01*
X264414Y728472D01*
X264414Y713994D01*
D43*
X264414Y713994D03*
D42*
X264414Y699126D01*
X262264Y696976D01*
X316078Y713580D02*
X316078Y727042D01*
X300736Y742384D01*
X300736Y742950D01*
D43*
X300736Y742950D03*
D42*
X182706Y675386D02*
X173482Y666162D01*
X182706Y675386D02*
X187706Y675386D01*
D43*
X187706Y675386D03*
D42*
X378324Y602488D02*
X393954Y602488D01*
X394208Y602234D01*
D43*
X394208Y602234D03*
D46*
X288916Y610362D02*
X287782Y609228D01*
X290186Y611632D02*
X317168Y611632D01*
X288916Y610362D02*
X271350Y610362D01*
X288916Y610362D02*
X290186Y611632D01*
X287782Y609228D02*
X287782Y596510D01*
X287528Y596256D01*
D43*
X287528Y596256D03*
X311912Y561848D03*
D45*
X171450Y586858D02*
X142494Y586858D01*
X171450Y586858D02*
X174126Y589534D01*
X142494Y586858D02*
X136254Y593098D01*
X144018Y600862D01*
X144018Y604012D01*
D43*
X144018Y604012D03*
D45*
X229108Y224464D02*
X238030Y215542D01*
X229108Y224464D02*
X229108Y229616D01*
D43*
X229108Y229616D03*
D44*
X462238Y287232D02*
X462238Y305722D01*
X462238Y287232D02*
X462026Y287020D01*
D43*
X462026Y287020D03*
D45*
X436412Y72462D02*
X433900Y72462D01*
X436412Y72462D02*
X450726Y58148D01*
X459362Y58148D01*
X434644Y73206D02*
X433900Y72462D01*
X434644Y73478D02*
X434644Y89916D01*
X434644Y101274D01*
X362644Y73206D02*
X361900Y72462D01*
X434644Y89916D02*
X437946Y86614D01*
X453136Y86614D01*
D43*
X453136Y86614D03*
D45*
X316078Y713580D02*
X309278Y713580D01*
X296418Y726440D01*
D43*
X296418Y726440D03*
D45*
X362644Y101274D02*
X362644Y82228D01*
X420746Y87376D02*
X434644Y101274D01*
X420746Y87376D02*
X367792Y87376D01*
X362644Y92524D01*
X362644Y101274D01*
X367792Y87376D02*
X362644Y82228D01*
X362644Y73206D01*
X420746Y87376D02*
X432104Y87376D01*
X434644Y89916D01*
X420746Y87376D02*
X434644Y73478D01*
X434644Y73206D01*
D46*
X282180Y54862D02*
X281846Y54862D01*
X281810Y54898D01*
X220472Y54492D02*
X219964Y55000D01*
X219202Y54238D01*
D45*
X294268Y561848D02*
X311912Y561848D01*
X294268Y561848D02*
X293116Y563000D01*
X271526Y563000D01*
X270764Y563762D01*
X290830Y467360D02*
X282238Y458768D01*
D43*
X290830Y467360D03*
D46*
X282238Y458768D02*
X282238Y452872D01*
D44*
X154432Y256540D02*
X154030Y256138D01*
X153924Y256032D01*
X154030Y256138D02*
X154030Y229542D01*
X126030Y251414D02*
X116332Y261112D01*
X126030Y251414D02*
X126030Y229542D01*
X112030Y229542D01*
D42*
X39120Y675390D02*
X39120Y683014D01*
X39120Y675390D02*
X29718Y665988D01*
X29718Y651590D01*
X31830Y649478D01*
X31830Y638382D01*
X26162Y632714D01*
D43*
X26162Y632714D03*
D42*
X26162Y614934D01*
D43*
X26162Y614934D03*
D42*
X135302Y670560D02*
X135302Y692832D01*
X135636Y693166D01*
D43*
X135636Y693166D03*
D45*
X199238Y55000D02*
X219964Y55000D01*
X199238Y55000D02*
X199136Y54898D01*
X219964Y55000D02*
X241046Y55000D01*
X241554Y54492D01*
X261146Y54492D01*
X261315Y54661D01*
D43*
X261315Y54661D03*
D45*
X281810Y54492D02*
X282180Y54862D01*
X281810Y54492D02*
X261146Y54492D01*
X462238Y485722D02*
X462238Y509836D01*
X461636Y510438D01*
X461636Y523206D01*
X469392Y530962D01*
D43*
X469392Y530962D03*
D46*
X118094Y378562D02*
X111150Y385505D01*
X118094Y378562D02*
X123139Y378562D01*
D43*
X123139Y378562D03*
D46*
X58928Y478790D02*
X63110Y482972D01*
X90627Y482972D01*
X148505Y434645D02*
X155245Y434645D01*
X164389Y443789D01*
D43*
X164389Y443789D03*
D41*
X116078Y632968D02*
X109216Y632968D01*
X116078Y632968D02*
X116454Y632592D01*
D45*
X118872Y593098D02*
X136254Y593098D01*
D42*
X114948Y593098D02*
X113550Y591700D01*
X114948Y593098D02*
X118872Y593098D01*
D44*
X199700Y556300D02*
X200400Y557000D01*
D47*
X180400Y556300D03*
D41*
X69772Y440098D02*
X71370Y438500D01*
X77200Y438500D01*
X82200Y448500D02*
X82200Y453600D01*
X80970Y454830D02*
X69426Y454830D01*
X80970Y454830D02*
X82200Y453600D01*
D44*
X200000Y556300D02*
X200400Y557000D01*
X200000Y556300D02*
X180400Y556300D01*
D48*
X364000Y416960D02*
X385238Y395722D01*
X364000Y416960D02*
X364000Y419100D01*
D47*
X364000Y419100D03*
X376700Y419200D03*
D48*
X388700Y419200D01*
X388900Y419000D01*
D47*
X388900Y419000D03*
X404700Y418900D03*
D48*
X404700Y413400D01*
X400600Y409300D01*
D47*
X400600Y409300D03*
X384200Y409100D03*
D48*
X371800Y409100D01*
X371300Y409600D01*
D47*
X371300Y409600D03*
X363900Y398900D03*
D48*
X378300Y398900D01*
X378600Y399200D01*
D47*
X378600Y399200D03*
X394000Y399400D03*
D48*
X405800Y399400D01*
X406000Y399200D01*
D47*
X406000Y399200D03*
X399500Y389300D03*
D48*
X387800Y389300D01*
X386600Y388100D01*
D47*
X386600Y388100D03*
X372900Y387900D03*
D48*
X365500Y380500D01*
X365500Y377600D01*
D47*
X365500Y377600D03*
X380100Y377100D03*
D48*
X380400Y376800D01*
X394500Y376800D01*
D47*
X394500Y376800D03*
X405900Y377400D03*
D42*
X126030Y229542D02*
X126030Y200870D01*
X126300Y200600D01*
D47*
X126300Y200600D03*
X149400Y197200D03*
D42*
X175400Y197200D01*
X176000Y196600D01*
D47*
X176000Y196600D03*
X195300Y195500D03*
D42*
X208400Y182400D01*
X208400Y176100D01*
D47*
X208400Y176100D03*
X188000Y176200D03*
D42*
X165300Y176200D01*
X163700Y174600D01*
D47*
X163700Y174600D03*
X142800Y174900D03*
D42*
X122900Y155000D01*
X127300Y150600D01*
D47*
X127300Y150600D03*
X159900Y153300D03*
D42*
X179300Y153300D01*
X179500Y153500D01*
D47*
X179500Y153500D03*
X203500Y154400D03*
D42*
X203500Y147100D01*
X191000Y134600D01*
D47*
X191000Y134600D03*
X172500Y137200D03*
D42*
X169300Y134000D01*
X148000Y134000D01*
D47*
X148000Y134000D03*
X122900Y131700D03*
D42*
X126300Y185800D02*
X126300Y200600D01*
X126300Y185800D02*
X124000Y183500D01*
D47*
X124000Y183500D03*
D45*
X270764Y580762D02*
X271096Y581094D01*
X270764Y580762D02*
X266376Y576374D01*
X262818Y576374D01*
D46*
X271350Y581348D02*
X271350Y600862D01*
X271350Y581348D02*
X270764Y580762D01*
D43*
X441682Y534006D03*
D45*
X449538Y470366D02*
X449072Y469900D01*
D43*
X449072Y469900D03*
D45*
X330708Y211328D02*
X284988Y211328D01*
X42588Y478620D02*
X42588Y492506D01*
X42588Y478620D02*
X42672Y478536D01*
D43*
X42672Y478536D03*
X45974Y378968D03*
D45*
X60960Y363982D01*
D43*
X156718Y381000D03*
X178816Y428498D03*
D45*
X271096Y581094D02*
X292022Y581094D01*
X293116Y580000D01*
X311268Y580000D01*
X311912Y580644D01*
D43*
X311912Y580644D03*
D45*
X330708Y211328D02*
X340360Y201676D01*
X340360Y159382D01*
X338706Y51308D02*
X338582Y49146D01*
X340360Y50924D02*
X340360Y159382D01*
X340360Y50924D02*
X338582Y49146D01*
D43*
X340360Y201676D03*
D45*
X241046Y72000D02*
X219964Y72000D01*
X241046Y72000D02*
X241554Y71492D01*
X178816Y428498D02*
X184150Y433832D01*
X184150Y439084D01*
X162232Y381000D02*
X156718Y381000D01*
X142494Y569858D02*
X182762Y569858D01*
X186182Y573278D02*
X231294Y573278D01*
X186182Y573278D02*
X182762Y569858D01*
X48684Y498602D02*
X42588Y492506D01*
X48684Y498602D02*
X93954Y498602D01*
X42768Y478440D02*
X42672Y478536D01*
X254632Y568188D02*
X262818Y576374D01*
X93398Y363982D02*
X60960Y363982D01*
X282180Y84623D02*
X282180Y71862D01*
X282180Y84623D02*
X282194Y84637D01*
X282194Y208534D01*
X284988Y211328D01*
X282180Y71862D02*
X241924Y71862D01*
X241554Y71492D01*
X182030Y103542D02*
X168030Y103542D01*
X182030Y103542D02*
X196030Y103542D01*
X182030Y103542D02*
X181522Y103034D01*
X181522Y78828D01*
D46*
X184150Y439084D02*
X178484Y444750D01*
X99712Y504472D02*
X99712Y513478D01*
X99712Y504472D02*
X99824Y504360D01*
X99712Y504360D01*
X93954Y498602D01*
X42768Y478440D02*
X42768Y463720D01*
X40482Y384460D02*
X45974Y378968D01*
X40482Y384460D02*
X40482Y389044D01*
X162232Y381000D02*
X171118Y389886D01*
X236384Y568188D02*
X231294Y573278D01*
X236384Y568188D02*
X254632Y568188D01*
X94410Y364994D02*
X93398Y363982D01*
D45*
X219964Y72000D02*
X219862Y71898D01*
X199136Y71898D01*
X188452Y71898D01*
X181522Y78828D01*
X444636Y531052D02*
X441682Y534006D01*
X444636Y531052D02*
X444636Y510438D01*
X444636Y505121D01*
X449538Y500219D02*
X449538Y485722D01*
X449538Y500219D02*
X444636Y505121D01*
X449538Y485722D02*
X449538Y470366D01*
X142494Y569858D02*
X122336Y549700D01*
X113550Y549700D01*
X113550Y527316D01*
X99712Y513478D01*
X113550Y549700D02*
X113550Y563150D01*
X106400Y570300D02*
X81100Y570300D01*
X75450Y575950D01*
X75450Y591700D01*
X106400Y570300D02*
X113550Y563150D01*
D42*
X133858Y647700D02*
X140716Y654558D01*
X133858Y647700D02*
X111760Y647700D01*
D45*
X140716Y654558D02*
X142208Y656050D01*
X153162Y656050D01*
X153162Y689220D01*
X160410Y696468D01*
X160410Y721360D01*
X160274Y721496D01*
D43*
X177546Y716534D03*
D45*
X172267Y721496D02*
X160274Y721496D01*
X172267Y721496D02*
X172521Y721242D01*
X172838Y721242D01*
X177546Y716534D01*
D43*
X212598Y737768D03*
D45*
X220475Y737768D01*
X225505Y742798D01*
D42*
X111760Y647700D02*
X95120Y664340D01*
X95120Y683014D01*
D45*
X153162Y656050D02*
X153384Y655828D01*
X163068Y655828D01*
X203512Y655320D02*
X205646Y657454D01*
X203512Y655320D02*
X183642Y655320D01*
D46*
X173148Y655828D02*
X163068Y655828D01*
X173148Y655828D02*
X173482Y656162D01*
X174324Y655320D02*
X183642Y655320D01*
X174324Y655320D02*
X173482Y656162D01*
X173533Y656111D01*
X173533Y641097D01*
D42*
X111760Y647700D02*
X109216Y645156D01*
X109216Y642112D01*
D44*
X109216Y639468D01*
D41*
X63620Y683014D02*
X63620Y689884D01*
X65752Y692016D01*
X68834Y692016D02*
X71488Y692016D01*
X68834Y692016D02*
X65752Y692016D01*
X71488Y692016D02*
X73620Y689884D01*
X73620Y683014D01*
X68834Y692016D02*
X68834Y696334D01*
D43*
X68834Y696334D03*
X61192Y574948D03*
D41*
X61192Y590142D01*
X62750Y591700D01*
X88932Y626468D02*
X109216Y626468D01*
X88932Y626468D02*
X88900Y626500D01*
D47*
X88900Y626500D03*
D41*
X68620Y676144D02*
X68620Y683014D01*
X68620Y676144D02*
X70752Y674012D01*
X74168Y674012D02*
X76488Y674012D01*
X74168Y674012D02*
X70752Y674012D01*
X76488Y674012D02*
X78620Y676144D01*
X78620Y683014D01*
D43*
X58674Y645922D03*
X44704Y566928D03*
D41*
X69326Y656574D02*
X74168Y661416D01*
X69326Y656574D02*
X58674Y645922D01*
X74168Y661416D02*
X74168Y674012D01*
X50050Y572274D02*
X44704Y566928D01*
X50050Y572274D02*
X50050Y591700D01*
X86600Y639300D02*
X69326Y656574D01*
X86600Y639300D02*
X89300Y639300D01*
D47*
X89300Y639300D03*
X140100Y639300D03*
D41*
X127884Y639300D01*
X127716Y639468D01*
D46*
X134034Y405728D02*
X146148Y405728D01*
X146402Y405474D01*
X56564Y440178D02*
X56310Y439924D01*
X42926Y439924D01*
D41*
X101870Y459670D02*
X105666Y463466D01*
D45*
X371212Y621656D02*
X371212Y630936D01*
X361324Y611768D02*
X361324Y602488D01*
X361324Y611768D02*
X371212Y621656D01*
X146304Y541020D02*
X130810Y525526D01*
X130810Y503428D01*
D43*
X130810Y503428D03*
X138938Y473710D03*
X76200Y467614D03*
X55880Y428752D03*
D45*
X55880Y439494D01*
X56310Y439924D01*
D43*
X59436Y389890D03*
X96012Y397764D03*
X150622Y419862D03*
D45*
X152146Y418338D01*
X152146Y411726D01*
X146148Y405728D01*
X361324Y563762D02*
X361324Y602488D01*
X338582Y541020D02*
X146304Y541020D01*
X338582Y541020D02*
X361324Y563762D01*
X142592Y459576D02*
X142338Y459830D01*
X136652Y459830D01*
X138938Y463230D02*
X142592Y459576D01*
X138938Y463230D02*
X138938Y473710D01*
D46*
X55294Y403856D02*
X43180Y403856D01*
X82900Y398188D02*
X82900Y386328D01*
X83324Y397764D02*
X96012Y397764D01*
X83324Y397764D02*
X82900Y398188D01*
X130224Y459830D02*
X136652Y459830D01*
X55294Y403856D02*
X55294Y394032D01*
X59436Y389890D01*
D45*
X96012Y397764D02*
X100753Y402505D01*
X111150Y402505D01*
D41*
X115214Y417373D02*
X115214Y424628D01*
X115214Y417373D02*
X113386Y415544D01*
D42*
X111150Y413309D01*
X111150Y402505D01*
D45*
X88985Y467614D02*
X76200Y467614D01*
X88985Y467614D02*
X90627Y465972D01*
D46*
X103160Y465972D01*
X105666Y463466D01*
X105666Y477866D01*
D41*
X113342Y426500D02*
X115214Y424628D01*
X113342Y426500D02*
X107700Y426500D01*
X102200Y448500D02*
X102200Y459340D01*
X101870Y459670D01*
D45*
X282660Y693580D02*
X316078Y693580D01*
X282660Y693580D02*
X279264Y696976D01*
X279264Y739784D01*
X275336Y743712D01*
X226646Y656922D02*
X226646Y647954D01*
X244348Y674624D02*
X279400Y674624D01*
X279400Y696840D01*
X279264Y696976D01*
X244348Y674624D02*
X226646Y656922D01*
D46*
X252421Y743712D02*
X275336Y743712D01*
X252421Y743712D02*
X251507Y742798D01*
D45*
X361710Y33652D02*
X361900Y33462D01*
X361710Y33652D02*
X339454Y33652D01*
X338706Y34308D01*
X433900Y33462D02*
X441008Y33462D01*
X448694Y41148D02*
X459362Y41148D01*
X448694Y41148D02*
X441008Y33462D01*
X459362Y41148D02*
X468884Y41148D01*
X475996Y48260D02*
X475996Y101600D01*
X456692Y120904D01*
X454914Y120904D01*
X455050Y158366D02*
X466208Y158366D01*
X455050Y158366D02*
X454914Y158230D01*
X475996Y48260D02*
X468884Y41148D01*
X454914Y120904D02*
X454914Y158230D01*
D43*
X447040Y444500D03*
D44*
X436838Y454702D01*
X436838Y485722D01*
D43*
X485394Y221488D03*
D44*
X480184Y158366D02*
X466208Y158366D01*
X480184Y158366D02*
X485394Y163576D01*
X485394Y221488D01*
D45*
X433900Y33462D02*
X361900Y33462D01*
D43*
X299498Y446278D03*
D44*
X424138Y319744D02*
X432054Y327660D01*
X432054Y434416D01*
X421970Y444500D01*
D43*
X103170Y608130D03*
D44*
X409702Y444500D02*
X421970Y444500D01*
X409702Y444500D02*
X405892Y448310D01*
X397510Y448310D02*
X392684Y443484D01*
X397510Y448310D02*
X405892Y448310D01*
X302292Y443484D02*
X299498Y446278D01*
X353060Y443484D02*
X392684Y443484D01*
X329692Y443484D02*
X302292Y443484D01*
X347218Y449326D02*
X353060Y443484D01*
X347218Y449326D02*
X335534Y449326D01*
X329692Y443484D01*
X103170Y608130D02*
X101150Y606110D01*
X424138Y319744D02*
X424138Y305722D01*
X101150Y589000D02*
X101150Y606110D01*
X100850Y589300D02*
X101150Y589000D01*
X100850Y589300D02*
X100850Y591700D01*
D43*
X299498Y430022D03*
D44*
X411438Y317038D02*
X423581Y329181D01*
X423581Y424754D01*
X413900Y434435D01*
X301017Y434435D01*
X299498Y430022D01*
X299498Y430022D01*
X299498Y430022D01*
D43*
X87114Y608152D03*
D44*
X88450Y606816D01*
X411438Y317038D02*
X411438Y305722D01*
X88450Y592000D02*
X88450Y606816D01*
X88450Y592000D02*
X88150Y591700D01*
D43*
X88039Y522323D03*
X263652Y243332D03*
D44*
X264160Y242824D01*
X408060Y242824D02*
X410346Y240538D01*
X408060Y242824D02*
X264160Y242824D01*
X410346Y240538D02*
X410346Y222504D01*
X460248Y222504D01*
X461518Y223774D01*
D43*
X461518Y223774D03*
X447548Y198628D03*
D44*
X447548Y187846D01*
X456708Y178686D01*
X88150Y522435D02*
X88150Y549700D01*
X88150Y522435D02*
X88039Y522323D01*
X73368Y537098D02*
X72860Y536590D01*
X72860Y520408D01*
X65532Y513080D01*
D43*
X65532Y513080D03*
X243840Y242570D03*
D44*
X256286Y230124D01*
X362594Y230124D01*
X384692Y208026D01*
X382465Y205799D01*
X384810Y203454D02*
X384810Y203200D01*
X402860Y185150D02*
X402860Y182750D01*
X402860Y185150D02*
X384810Y203200D01*
X384810Y203454D02*
X382465Y205799D01*
X75450Y539180D02*
X75450Y549700D01*
X75450Y539180D02*
X73368Y537098D01*
X144805Y29600D02*
X292490Y29600D01*
X144805Y29600D02*
X144297Y29092D01*
X292490Y29600D02*
X311404Y48514D01*
X311404Y184658D02*
X311912Y185166D01*
X311404Y184658D02*
X311404Y48514D01*
D43*
X311912Y185166D03*
X373696Y465774D03*
D44*
X373696Y485364D01*
X373338Y485722D01*
X121666Y17662D02*
X121158Y17154D01*
X121666Y17662D02*
X295538Y17662D01*
X323088Y45212D01*
X323088Y196980D01*
X322710Y197358D01*
D43*
X322710Y197358D03*
X359918Y456438D03*
D44*
X359918Y485002D01*
X360638Y485722D01*
X288680Y39252D02*
X167894Y39252D01*
X166878Y40268D01*
X297688Y195834D02*
X298196Y196342D01*
X297688Y195834D02*
X297688Y48260D01*
D43*
X298196Y196342D03*
X321594Y454946D03*
D44*
X297688Y48260D02*
X288680Y39252D01*
X321594Y454946D02*
X321594Y484778D01*
X322538Y485722D01*
X143120Y272796D02*
X139192Y268868D01*
X139192Y230380D01*
X140030Y229542D01*
X161798Y272796D02*
X220472Y331470D01*
D43*
X220472Y331470D03*
D44*
X161798Y272796D02*
X143120Y272796D01*
D43*
X221996Y450088D03*
D44*
X263144Y491236D01*
X263144Y506984D01*
X269240Y513080D01*
X398738Y485722D02*
X399288Y486272D01*
X399288Y504444D02*
X389890Y513842D01*
D43*
X389890Y513842D03*
X269240Y513080D03*
D44*
X399288Y504444D02*
X399288Y486272D01*
X168030Y252612D02*
X168030Y229542D01*
X309626Y288798D02*
X309880Y289052D01*
D43*
X309880Y289052D03*
X359664Y351282D03*
D44*
X359664Y322020D01*
X360638Y321046D01*
X360638Y305722D01*
X309626Y288798D02*
X204216Y288798D01*
X168030Y252612D01*
X182030Y250610D02*
X182030Y229542D01*
D43*
X322834Y276860D03*
X372322Y321978D03*
D44*
X372322Y306738D01*
X373338Y305722D01*
X322834Y276860D02*
X208280Y276860D01*
X182030Y250610D01*
X449538Y294344D02*
X449538Y305722D01*
X444500Y289306D02*
X336042Y289306D01*
X444500Y289306D02*
X449538Y294344D01*
X333470Y272454D02*
X327240Y266224D01*
X211868Y266224D01*
X196030Y250386D02*
X196030Y229542D01*
X196030Y250386D02*
X211868Y266224D01*
X333470Y286734D02*
X336042Y289306D01*
X333470Y286734D02*
X333470Y272454D01*
X347472Y276860D02*
X347472Y266654D01*
D43*
X347472Y276860D03*
X346922Y321978D03*
D44*
X347938Y320962D01*
X347938Y305722D01*
X210030Y250162D02*
X210030Y229542D01*
X336850Y256032D02*
X347472Y266654D01*
X215900Y256032D02*
X210030Y250162D01*
X215900Y256032D02*
X336850Y256032D01*
D41*
X31426Y444924D02*
X31426Y462378D01*
X32768Y463720D01*
D44*
X31426Y444924D02*
X16568Y430066D01*
X15508Y429006D01*
X13970Y359664D02*
X31496Y342138D01*
X271008Y351272D02*
X282238Y351272D01*
X261874Y342138D02*
X31496Y342138D01*
X261874Y342138D02*
X271008Y351272D01*
X13970Y359664D02*
X13970Y427468D01*
X15508Y429006D01*
X40894Y352044D02*
X252476Y352044D01*
X265938Y365506D01*
D43*
X265938Y365506D03*
X310134Y467868D03*
D44*
X310134Y485426D01*
X309838Y485722D01*
X31680Y408856D02*
X31680Y397694D01*
X29464Y395478D01*
X30482Y362456D02*
X40894Y352044D01*
X29464Y390062D02*
X29464Y395478D01*
X29464Y390062D02*
X30482Y389044D01*
X30482Y362456D01*
D41*
X77900Y374828D02*
X94410Y374994D01*
D44*
X102526Y374994D01*
X268224Y383540D02*
X268224Y433324D01*
X275072Y440172D01*
X282238Y440172D01*
X114554Y362966D02*
X102526Y374994D01*
X114554Y362966D02*
X247650Y362966D01*
X268224Y383540D01*
X158672Y399704D02*
X157902Y400474D01*
X158672Y399704D02*
X171118Y399886D01*
X235548Y399886D01*
X257810Y422148D01*
X257810Y460502D01*
X283030Y485722D01*
X297138Y485722D01*
D41*
X131505Y434645D02*
X131418Y434732D01*
X131186Y434500D02*
X107200Y434500D01*
X131186Y434500D02*
X131418Y434732D01*
D44*
X56564Y450178D02*
X43180Y450178D01*
X42926Y449924D01*
D41*
X64692Y450004D02*
X64692Y436034D01*
X64692Y450004D02*
X64518Y450178D01*
X56564Y450178D01*
X70226Y430500D02*
X77200Y430500D01*
X70226Y430500D02*
X64692Y436034D01*
D44*
X55294Y413856D02*
X43180Y413856D01*
D41*
X55294Y413856D02*
X56232Y414794D01*
X55294Y413856D02*
X67938Y426500D01*
X77200Y426500D01*
D44*
X72900Y398188D02*
X72900Y386328D01*
D41*
X70614Y399204D02*
X70614Y417255D01*
X71630Y398188D02*
X72900Y398188D01*
X71630Y398188D02*
X70614Y399204D01*
X70614Y417255D02*
X75859Y422500D01*
X76200Y422500D01*
D44*
X134034Y395728D02*
X146148Y395728D01*
X146402Y395474D01*
D41*
X120796Y427380D02*
X120796Y427682D01*
X120796Y427380D02*
X121080Y427096D01*
X121080Y405808D01*
X131160Y395728D01*
X134034Y395728D01*
X117978Y430500D02*
X107200Y430500D01*
X117978Y430500D02*
X120796Y427682D01*
D44*
X115666Y463466D02*
X115666Y477866D01*
D41*
X115666Y463466D02*
X115666Y446374D01*
X111792Y442500D02*
X108200Y442500D01*
X111792Y442500D02*
X115666Y446374D01*
X129794Y449400D02*
X130224Y449830D01*
X129794Y449400D02*
X125048Y449400D01*
X115024Y439376D01*
X114380Y438732D01*
D42*
X130478Y449576D02*
X142592Y449576D01*
X130478Y449576D02*
X130224Y449830D01*
D41*
X114380Y438732D02*
X114148Y438500D01*
X107200Y438500D01*
D44*
X154030Y103542D02*
X154030Y84222D01*
X165862Y72390D01*
D43*
X165862Y72390D03*
X345440Y362204D03*
D44*
X345440Y351028D01*
X320294Y325882D01*
D43*
X221234Y313944D03*
D44*
X233172Y325882D01*
X320294Y325882D01*
D43*
X386842Y455930D03*
D44*
X386038Y456734D01*
X386038Y485722D01*
D43*
X268224Y90424D03*
D44*
X268224Y215138D01*
X267716Y215646D01*
D43*
X267716Y215646D03*
D45*
X423340Y140274D02*
X434644Y140274D01*
X423340Y140274D02*
X412360Y151254D01*
X412360Y162430D01*
X362644Y145462D02*
X357360Y150746D01*
X357360Y159382D01*
X362644Y145462D02*
X362644Y140274D01*
D44*
X358394Y159382D02*
X357360Y159382D01*
X358394Y159382D02*
X358394Y218186D01*
D43*
X358394Y218186D03*
X272542Y313182D03*
D44*
X289678Y313182D01*
X297138Y305722D01*
D45*
X362644Y140274D02*
X390204Y140274D01*
X412360Y162430D01*
D44*
X401692Y208026D02*
X406264Y212598D01*
X475488Y212598D01*
X475708Y212378D02*
X475708Y178686D01*
X475708Y212378D02*
X475488Y212598D01*
D46*
X204888Y696468D02*
X205020Y696600D01*
X177542Y696600D01*
X177410Y696468D01*
D45*
X195818Y723798D02*
X225505Y723798D01*
X195818Y723798D02*
X195326Y724290D01*
D46*
X251507Y723798D02*
X251507Y713707D01*
X234400Y696600D01*
X220020Y696600D01*
D45*
X205646Y627286D02*
X191770Y613410D01*
X205646Y627286D02*
X205646Y638454D01*
X191770Y613410D02*
X191770Y590178D01*
X191126Y589534D01*
X210116Y633984D02*
X205646Y638454D01*
X284734Y655828D02*
X287782Y652780D01*
X287782Y626228D01*
X311404Y626896D02*
X311404Y627888D01*
X305308Y627888D01*
X289442Y627888D01*
X287782Y626228D01*
D43*
X305308Y627888D03*
X247618Y633984D03*
X303784Y598932D03*
D46*
X317168Y621132D02*
X311404Y626896D01*
D43*
X233172Y606806D03*
D46*
X248942Y609954D02*
X249350Y610362D01*
X248942Y609954D02*
X241630Y609954D01*
X238482Y606806D01*
X233172Y606806D01*
D42*
X316992Y601956D02*
X317168Y602132D01*
X316992Y601956D02*
X316992Y596900D01*
D45*
X316738Y596646D01*
X306070Y596646D01*
X303784Y598932D01*
X284734Y655828D02*
X267208Y655828D01*
X261334Y649954D01*
X254588Y633984D02*
X247618Y633984D01*
X210116Y633984D01*
D46*
X261334Y640954D02*
X261334Y649954D01*
X261334Y640954D02*
X261446Y640842D01*
X254588Y633984D01*
X178460Y613410D02*
X173533Y618337D01*
X178460Y613410D02*
X191770Y613410D01*
D44*
X398738Y329396D02*
X398738Y305722D01*
X398738Y329396D02*
X406400Y337058D01*
D43*
X406400Y337058D03*
X413004Y265684D03*
D44*
X447294Y265684D01*
X486410Y244348D02*
X521970Y208788D01*
X468630Y244348D02*
X447294Y265684D01*
X468630Y244348D02*
X486410Y244348D01*
X436838Y305722D02*
X436838Y315680D01*
X446786Y325628D01*
D43*
X446786Y325628D03*
X434086Y278130D03*
D44*
X450596Y278130D02*
X464566Y264160D01*
X450596Y278130D02*
X434086Y278130D01*
X518922Y252984D02*
X521208Y252984D01*
X518922Y252984D02*
X507746Y264160D01*
X464566Y264160D01*
X283718Y497840D02*
X283718Y499110D01*
D43*
X283718Y499110D03*
X424180Y469138D03*
D44*
X283718Y497840D02*
X240628Y454750D01*
X240628Y442558D01*
X215646Y437642D02*
X198538Y454750D01*
X215646Y437642D02*
X235712Y437642D01*
X240628Y442558D01*
X424138Y485722D02*
X424180Y485680D01*
X424180Y469138D01*
X198538Y454750D02*
X178484Y454750D01*
X154266Y454750D01*
X154092Y454576D01*
X143002Y497586D02*
X143002Y517398D01*
X143002Y497586D02*
X133258Y487842D01*
D43*
X411734Y512826D03*
D44*
X153924Y528320D02*
X143002Y517398D01*
X153924Y528320D02*
X285496Y528320D01*
X286766Y527050D01*
D43*
X286766Y527050D03*
D44*
X133258Y487842D02*
X112190Y487842D01*
X110666Y489366D01*
X411438Y485722D02*
X411438Y512530D01*
X411734Y512826D01*
X110666Y503518D02*
X110666Y489366D01*
X110666Y503518D02*
X109824Y504360D01*
X347938Y512276D02*
X347938Y485722D01*
X347938Y512276D02*
X415798Y580136D01*
X487426Y580136D02*
X515366Y552196D01*
X487426Y580136D02*
X415798Y580136D01*
X335238Y515070D02*
X335238Y485722D01*
X335238Y515070D02*
X410464Y590296D01*
X450088Y600202D02*
X515366Y600202D01*
X440182Y590296D02*
X410464Y590296D01*
X440182Y590296D02*
X450088Y600202D01*
X450596Y240538D02*
X427346Y240538D01*
X450596Y240538D02*
X453071Y238063D01*
D43*
X453071Y238063D03*
X431292Y199898D03*
D44*
X431292Y192182D01*
X421860Y182750D01*
D45*
X339168Y621132D02*
X348972Y630936D01*
X354212Y630936D01*
X339168Y621132D02*
X339168Y602132D01*
D42*
X271350Y619862D02*
X271350Y640746D01*
X271446Y640842D01*
X217662Y612242D02*
X216662Y611242D01*
D46*
X229514Y619862D02*
X249350Y619862D01*
X229514Y619862D02*
X229362Y620014D01*
X225434Y620014D01*
X217662Y612242D01*
X216662Y594242D02*
X218322Y592582D01*
D42*
X249350Y596978D02*
X249350Y600862D01*
X249350Y596978D02*
X249428Y596900D01*
D46*
X245110Y592582D01*
X218322Y592582D01*
D44*
X112030Y103542D02*
X112030Y84090D01*
X111760Y83820D01*
X111760Y43552D01*
X121158Y34154D01*
X125522Y103034D02*
X126030Y103542D01*
X125522Y103034D02*
X125522Y49484D01*
X128914Y46092D02*
X144297Y46092D01*
X128914Y46092D02*
X125522Y49484D01*
X139522Y103034D02*
X140030Y103542D01*
X139522Y103034D02*
X139522Y60630D01*
X142884Y57268D02*
X166878Y57268D01*
X142884Y57268D02*
X139522Y60630D01*
D43*
X257588Y165608D03*
X485394Y146558D03*
D44*
X505206Y146558D01*
X523748Y165100D01*
X251522Y159542D02*
X238030Y159542D01*
X251522Y159542D02*
X257588Y165608D01*
X241840Y149352D02*
X238030Y145542D01*
X241840Y149352D02*
X257588Y149352D01*
D43*
X257588Y149352D03*
X487680Y118110D03*
D44*
X521208Y118110D01*
X523240Y120142D01*
X239584Y133096D02*
X238030Y131542D01*
X239584Y133096D02*
X257588Y133096D01*
D43*
X257588Y133096D03*
X489966Y70104D03*
D44*
X517652Y70104D01*
X523494Y75946D01*
X247742Y117542D02*
X238030Y117542D01*
X247742Y117542D02*
X257588Y107696D01*
D43*
X257588Y107696D03*
X487934Y29718D03*
D44*
X520954Y29718D01*
X522986Y31750D01*
D41*
X53620Y658413D02*
X41830Y649478D01*
X53620Y658413D02*
X53620Y683014D01*
X83620Y683014D02*
X83620Y659676D01*
X85009Y658287D01*
D43*
X85009Y658287D03*
X111760Y664210D03*
D41*
X118110Y670560D01*
X125302Y670560D01*
D44*
X216888Y558188D02*
X236384Y558188D01*
X216888Y558188D02*
X215400Y557000D01*
M02*
