G04 EAGLE Gerber RS-274X export*
G75*
%MOMM*%
%FSLAX34Y34*%
%LPD*%
%INSoldermask Top*%
%IPPOS*%
%AMOC8*
5,1,8,0,0,1.08239X$1,22.5*%
G01*
%ADD10R,1.219200X1.346200*%
%ADD11R,0.853200X0.663200*%
%ADD12R,1.103200X1.003200*%
%ADD13R,1.403200X0.753200*%
%ADD14R,1.103200X1.703200*%
%ADD15R,1.703200X1.103200*%
%ADD16R,6.203200X6.203200*%
%ADD17R,0.903200X0.803200*%
%ADD18R,0.803200X0.903200*%
%ADD19R,0.663200X0.853200*%
%ADD20R,1.203200X1.303200*%
%ADD21R,1.303200X1.203200*%
%ADD22R,2.103200X1.203200*%
%ADD23R,1.203200X1.553200*%
%ADD24R,1.263200X0.853200*%
%ADD25R,3.703194X2.003197*%
%ADD26R,2.903194X1.203197*%
%ADD27R,2.653200X1.203200*%
%ADD28R,1.203200X2.653200*%
%ADD29R,11.203200X9.203200*%
%ADD30C,4.235200*%
%ADD31C,0.803200*%
%ADD32R,0.700000X1.300000*%
%ADD33R,0.400000X1.300000*%
%ADD34R,0.703200X1.253200*%
%ADD35R,1.053200X0.603200*%
%ADD36R,0.903200X2.003200*%
%ADD37R,1.003200X1.003200*%
%ADD38C,0.660400*%
%ADD39C,0.728200*%

G36*
X98700Y443996D02*
X98700Y443996D01*
X98701Y443996D01*
X99010Y444045D01*
X99011Y444045D01*
X99290Y444187D01*
X99290Y444188D01*
X99291Y444188D01*
X99512Y444409D01*
X99512Y444410D01*
X99513Y444410D01*
X99655Y444689D01*
X99655Y444690D01*
X99656Y444692D01*
X99656Y444696D01*
X99656Y444697D01*
X99657Y444701D01*
X99658Y444705D01*
X99658Y444709D01*
X99659Y444713D01*
X99659Y444714D01*
X99660Y444718D01*
X99660Y444722D01*
X99661Y444726D01*
X99662Y444730D01*
X99662Y444735D01*
X99664Y444743D01*
X99664Y444747D01*
X99664Y444748D01*
X99665Y444752D01*
X99666Y444756D01*
X99666Y444760D01*
X99667Y444764D01*
X99667Y444765D01*
X99668Y444769D01*
X99668Y444773D01*
X99669Y444777D01*
X99670Y444781D01*
X99670Y444782D01*
X99670Y444786D01*
X99671Y444790D01*
X99672Y444798D01*
X99672Y444799D01*
X99674Y444807D01*
X99674Y444811D01*
X99675Y444815D01*
X99675Y444816D01*
X99676Y444820D01*
X99676Y444824D01*
X99677Y444828D01*
X99678Y444832D01*
X99678Y444833D01*
X99678Y444837D01*
X99679Y444841D01*
X99680Y444845D01*
X99681Y444854D01*
X99682Y444862D01*
X99683Y444862D01*
X99682Y444862D01*
X99683Y444866D01*
X99683Y444867D01*
X99684Y444871D01*
X99685Y444875D01*
X99685Y444879D01*
X99686Y444883D01*
X99686Y444884D01*
X99687Y444888D01*
X99687Y444892D01*
X99688Y444896D01*
X99689Y444900D01*
X99689Y444901D01*
X99689Y444905D01*
X99690Y444909D01*
X99691Y444917D01*
X99691Y444918D01*
X99692Y444922D01*
X99693Y444926D01*
X99693Y444930D01*
X99694Y444934D01*
X99694Y444935D01*
X99695Y444939D01*
X99695Y444943D01*
X99696Y444947D01*
X99697Y444951D01*
X99697Y444952D01*
X99697Y444956D01*
X99698Y444960D01*
X99699Y444964D01*
X99700Y444973D01*
X99701Y444981D01*
X99702Y444985D01*
X99702Y444986D01*
X99703Y444990D01*
X99703Y444994D01*
X99704Y444998D01*
X99704Y444999D01*
X99704Y445000D01*
X99704Y450000D01*
X99704Y450001D01*
X99655Y450310D01*
X99655Y450311D01*
X99513Y450590D01*
X99512Y450590D01*
X99512Y450591D01*
X99291Y450812D01*
X99290Y450812D01*
X99290Y450813D01*
X99011Y450955D01*
X99010Y450955D01*
X98701Y451004D01*
X98700Y451004D01*
X97700Y451004D01*
X97699Y451004D01*
X97390Y450955D01*
X97389Y450955D01*
X97110Y450813D01*
X97110Y450812D01*
X97109Y450812D01*
X96888Y450591D01*
X96888Y450590D01*
X96887Y450590D01*
X96745Y450311D01*
X96745Y450310D01*
X96744Y450308D01*
X96744Y450303D01*
X96743Y450299D01*
X96742Y450291D01*
X96740Y450282D01*
X96740Y450278D01*
X96739Y450274D01*
X96738Y450269D01*
X96738Y450265D01*
X96737Y450261D01*
X96736Y450257D01*
X96736Y450252D01*
X96735Y450248D01*
X96734Y450244D01*
X96733Y450235D01*
X96732Y450227D01*
X96731Y450223D01*
X96730Y450218D01*
X96730Y450214D01*
X96729Y450210D01*
X96728Y450206D01*
X96728Y450201D01*
X96727Y450197D01*
X96726Y450193D01*
X96726Y450189D01*
X96725Y450184D01*
X96724Y450180D01*
X96723Y450172D01*
X96722Y450167D01*
X96722Y450163D01*
X96721Y450159D01*
X96720Y450155D01*
X96720Y450150D01*
X96719Y450150D01*
X96720Y450150D01*
X96719Y450146D01*
X96718Y450142D01*
X96718Y450138D01*
X96717Y450138D01*
X96718Y450138D01*
X96717Y450133D01*
X96716Y450129D01*
X96715Y450125D01*
X96714Y450116D01*
X96713Y450108D01*
X96712Y450104D01*
X96711Y450099D01*
X96711Y450095D01*
X96710Y450091D01*
X96709Y450087D01*
X96709Y450082D01*
X96708Y450078D01*
X96707Y450074D01*
X96707Y450070D01*
X96705Y450061D01*
X96704Y450053D01*
X96703Y450048D01*
X96703Y450044D01*
X96702Y450040D01*
X96701Y450036D01*
X96701Y450031D01*
X96700Y450027D01*
X96699Y450023D01*
X96699Y450019D01*
X96698Y450014D01*
X96697Y450010D01*
X96697Y450006D01*
X96696Y450001D01*
X96696Y450000D01*
X96696Y445000D01*
X96696Y444999D01*
X96745Y444690D01*
X96745Y444689D01*
X96887Y444410D01*
X96888Y444410D01*
X96888Y444409D01*
X97109Y444188D01*
X97110Y444188D01*
X97110Y444187D01*
X97389Y444045D01*
X97390Y444045D01*
X97699Y443996D01*
X97700Y443996D01*
X98700Y443996D01*
X98700Y443996D01*
G37*
G36*
X94700Y443996D02*
X94700Y443996D01*
X94701Y443996D01*
X95010Y444045D01*
X95011Y444045D01*
X95290Y444187D01*
X95290Y444188D01*
X95291Y444188D01*
X95512Y444409D01*
X95512Y444410D01*
X95513Y444410D01*
X95655Y444689D01*
X95655Y444690D01*
X95656Y444692D01*
X95656Y444696D01*
X95656Y444697D01*
X95657Y444701D01*
X95658Y444705D01*
X95658Y444709D01*
X95659Y444713D01*
X95659Y444714D01*
X95660Y444718D01*
X95660Y444722D01*
X95661Y444726D01*
X95662Y444730D01*
X95662Y444735D01*
X95664Y444743D01*
X95664Y444747D01*
X95664Y444748D01*
X95665Y444752D01*
X95666Y444756D01*
X95666Y444760D01*
X95667Y444764D01*
X95667Y444765D01*
X95668Y444769D01*
X95668Y444773D01*
X95669Y444777D01*
X95670Y444781D01*
X95670Y444782D01*
X95670Y444786D01*
X95671Y444790D01*
X95672Y444798D01*
X95672Y444799D01*
X95674Y444807D01*
X95674Y444811D01*
X95675Y444815D01*
X95675Y444816D01*
X95676Y444820D01*
X95676Y444824D01*
X95677Y444828D01*
X95678Y444832D01*
X95678Y444833D01*
X95678Y444837D01*
X95679Y444841D01*
X95680Y444845D01*
X95681Y444854D01*
X95682Y444862D01*
X95683Y444862D01*
X95682Y444862D01*
X95683Y444866D01*
X95683Y444867D01*
X95684Y444871D01*
X95685Y444875D01*
X95685Y444879D01*
X95686Y444883D01*
X95686Y444884D01*
X95687Y444888D01*
X95687Y444892D01*
X95688Y444896D01*
X95689Y444900D01*
X95689Y444901D01*
X95689Y444905D01*
X95690Y444909D01*
X95691Y444917D01*
X95691Y444918D01*
X95692Y444922D01*
X95693Y444926D01*
X95693Y444930D01*
X95694Y444934D01*
X95694Y444935D01*
X95695Y444939D01*
X95695Y444943D01*
X95696Y444947D01*
X95697Y444951D01*
X95697Y444952D01*
X95697Y444956D01*
X95698Y444960D01*
X95699Y444964D01*
X95700Y444973D01*
X95701Y444981D01*
X95702Y444985D01*
X95702Y444986D01*
X95703Y444990D01*
X95703Y444994D01*
X95704Y444998D01*
X95704Y444999D01*
X95704Y445000D01*
X95704Y450000D01*
X95704Y450001D01*
X95655Y450310D01*
X95655Y450311D01*
X95513Y450590D01*
X95512Y450590D01*
X95512Y450591D01*
X95291Y450812D01*
X95290Y450812D01*
X95290Y450813D01*
X95011Y450955D01*
X95010Y450955D01*
X94701Y451004D01*
X94700Y451004D01*
X93700Y451004D01*
X93699Y451004D01*
X93390Y450955D01*
X93389Y450955D01*
X93110Y450813D01*
X93110Y450812D01*
X93109Y450812D01*
X92888Y450591D01*
X92888Y450590D01*
X92887Y450590D01*
X92745Y450311D01*
X92745Y450310D01*
X92744Y450308D01*
X92744Y450303D01*
X92743Y450299D01*
X92742Y450291D01*
X92740Y450282D01*
X92740Y450278D01*
X92739Y450274D01*
X92738Y450269D01*
X92738Y450265D01*
X92737Y450261D01*
X92736Y450257D01*
X92736Y450252D01*
X92735Y450248D01*
X92734Y450244D01*
X92733Y450235D01*
X92732Y450227D01*
X92731Y450223D01*
X92730Y450218D01*
X92730Y450214D01*
X92729Y450210D01*
X92728Y450206D01*
X92728Y450201D01*
X92727Y450197D01*
X92726Y450193D01*
X92726Y450189D01*
X92725Y450184D01*
X92724Y450180D01*
X92723Y450172D01*
X92722Y450167D01*
X92722Y450163D01*
X92721Y450159D01*
X92720Y450155D01*
X92720Y450150D01*
X92719Y450150D01*
X92720Y450150D01*
X92719Y450146D01*
X92718Y450142D01*
X92718Y450138D01*
X92717Y450138D01*
X92718Y450138D01*
X92717Y450133D01*
X92716Y450129D01*
X92715Y450125D01*
X92714Y450116D01*
X92713Y450108D01*
X92712Y450104D01*
X92711Y450099D01*
X92711Y450095D01*
X92710Y450091D01*
X92709Y450087D01*
X92709Y450082D01*
X92708Y450078D01*
X92707Y450074D01*
X92707Y450070D01*
X92705Y450061D01*
X92704Y450053D01*
X92703Y450048D01*
X92703Y450044D01*
X92702Y450040D01*
X92701Y450036D01*
X92701Y450031D01*
X92700Y450027D01*
X92699Y450023D01*
X92699Y450019D01*
X92698Y450014D01*
X92697Y450010D01*
X92697Y450006D01*
X92696Y450001D01*
X92696Y450000D01*
X92696Y445000D01*
X92696Y444999D01*
X92745Y444690D01*
X92745Y444689D01*
X92887Y444410D01*
X92888Y444410D01*
X92888Y444409D01*
X93109Y444188D01*
X93110Y444188D01*
X93110Y444187D01*
X93389Y444045D01*
X93390Y444045D01*
X93699Y443996D01*
X93700Y443996D01*
X94700Y443996D01*
X94700Y443996D01*
G37*
G36*
X90700Y443996D02*
X90700Y443996D01*
X90701Y443996D01*
X91010Y444045D01*
X91011Y444045D01*
X91290Y444187D01*
X91290Y444188D01*
X91291Y444188D01*
X91512Y444409D01*
X91512Y444410D01*
X91513Y444410D01*
X91655Y444689D01*
X91655Y444690D01*
X91656Y444692D01*
X91656Y444696D01*
X91656Y444697D01*
X91657Y444701D01*
X91658Y444705D01*
X91658Y444709D01*
X91659Y444713D01*
X91659Y444714D01*
X91660Y444718D01*
X91660Y444722D01*
X91661Y444726D01*
X91662Y444730D01*
X91662Y444735D01*
X91664Y444743D01*
X91664Y444747D01*
X91664Y444748D01*
X91665Y444752D01*
X91666Y444756D01*
X91666Y444760D01*
X91667Y444764D01*
X91667Y444765D01*
X91668Y444769D01*
X91668Y444773D01*
X91669Y444777D01*
X91670Y444781D01*
X91670Y444782D01*
X91670Y444786D01*
X91671Y444790D01*
X91672Y444798D01*
X91672Y444799D01*
X91674Y444807D01*
X91674Y444811D01*
X91675Y444815D01*
X91675Y444816D01*
X91676Y444820D01*
X91676Y444824D01*
X91677Y444828D01*
X91678Y444832D01*
X91678Y444833D01*
X91678Y444837D01*
X91679Y444841D01*
X91680Y444845D01*
X91681Y444854D01*
X91682Y444862D01*
X91683Y444862D01*
X91682Y444862D01*
X91683Y444866D01*
X91683Y444867D01*
X91684Y444871D01*
X91685Y444875D01*
X91685Y444879D01*
X91686Y444883D01*
X91686Y444884D01*
X91687Y444888D01*
X91687Y444892D01*
X91688Y444896D01*
X91689Y444900D01*
X91689Y444901D01*
X91689Y444905D01*
X91690Y444909D01*
X91691Y444917D01*
X91691Y444918D01*
X91692Y444922D01*
X91693Y444926D01*
X91693Y444930D01*
X91694Y444934D01*
X91694Y444935D01*
X91695Y444939D01*
X91695Y444943D01*
X91696Y444947D01*
X91697Y444951D01*
X91697Y444952D01*
X91697Y444956D01*
X91698Y444960D01*
X91699Y444964D01*
X91700Y444973D01*
X91701Y444981D01*
X91702Y444985D01*
X91702Y444986D01*
X91703Y444990D01*
X91703Y444994D01*
X91704Y444998D01*
X91704Y444999D01*
X91704Y445000D01*
X91704Y450000D01*
X91704Y450001D01*
X91655Y450310D01*
X91655Y450311D01*
X91513Y450590D01*
X91512Y450590D01*
X91512Y450591D01*
X91291Y450812D01*
X91290Y450812D01*
X91290Y450813D01*
X91011Y450955D01*
X91010Y450955D01*
X90701Y451004D01*
X90700Y451004D01*
X89700Y451004D01*
X89699Y451004D01*
X89390Y450955D01*
X89389Y450955D01*
X89110Y450813D01*
X89110Y450812D01*
X89109Y450812D01*
X88888Y450591D01*
X88888Y450590D01*
X88887Y450590D01*
X88745Y450311D01*
X88745Y450310D01*
X88744Y450308D01*
X88744Y450303D01*
X88743Y450299D01*
X88742Y450291D01*
X88740Y450282D01*
X88740Y450278D01*
X88739Y450274D01*
X88738Y450269D01*
X88738Y450265D01*
X88737Y450261D01*
X88736Y450257D01*
X88736Y450252D01*
X88735Y450248D01*
X88734Y450244D01*
X88733Y450235D01*
X88732Y450227D01*
X88731Y450223D01*
X88730Y450218D01*
X88730Y450214D01*
X88729Y450210D01*
X88728Y450206D01*
X88728Y450201D01*
X88727Y450197D01*
X88726Y450193D01*
X88726Y450189D01*
X88725Y450184D01*
X88724Y450180D01*
X88723Y450172D01*
X88722Y450167D01*
X88722Y450163D01*
X88721Y450159D01*
X88720Y450155D01*
X88720Y450150D01*
X88719Y450150D01*
X88720Y450150D01*
X88719Y450146D01*
X88718Y450142D01*
X88718Y450138D01*
X88717Y450138D01*
X88718Y450138D01*
X88717Y450133D01*
X88716Y450129D01*
X88715Y450125D01*
X88714Y450116D01*
X88713Y450108D01*
X88712Y450104D01*
X88711Y450099D01*
X88711Y450095D01*
X88710Y450091D01*
X88709Y450087D01*
X88709Y450082D01*
X88708Y450078D01*
X88707Y450074D01*
X88707Y450070D01*
X88705Y450061D01*
X88704Y450053D01*
X88703Y450048D01*
X88703Y450044D01*
X88702Y450040D01*
X88701Y450036D01*
X88701Y450031D01*
X88700Y450027D01*
X88699Y450023D01*
X88699Y450019D01*
X88698Y450014D01*
X88697Y450010D01*
X88697Y450006D01*
X88696Y450001D01*
X88696Y450000D01*
X88696Y445000D01*
X88696Y444999D01*
X88745Y444690D01*
X88745Y444689D01*
X88887Y444410D01*
X88888Y444410D01*
X88888Y444409D01*
X89109Y444188D01*
X89110Y444188D01*
X89110Y444187D01*
X89389Y444045D01*
X89390Y444045D01*
X89699Y443996D01*
X89700Y443996D01*
X90700Y443996D01*
X90700Y443996D01*
G37*
G36*
X86700Y443996D02*
X86700Y443996D01*
X86701Y443996D01*
X87010Y444045D01*
X87011Y444045D01*
X87290Y444187D01*
X87290Y444188D01*
X87291Y444188D01*
X87512Y444409D01*
X87512Y444410D01*
X87513Y444410D01*
X87655Y444689D01*
X87655Y444690D01*
X87656Y444692D01*
X87656Y444696D01*
X87656Y444697D01*
X87657Y444701D01*
X87658Y444705D01*
X87658Y444709D01*
X87659Y444713D01*
X87659Y444714D01*
X87660Y444718D01*
X87660Y444722D01*
X87661Y444726D01*
X87662Y444730D01*
X87662Y444735D01*
X87664Y444743D01*
X87664Y444747D01*
X87664Y444748D01*
X87665Y444752D01*
X87666Y444756D01*
X87666Y444760D01*
X87667Y444764D01*
X87667Y444765D01*
X87668Y444769D01*
X87668Y444773D01*
X87669Y444777D01*
X87670Y444781D01*
X87670Y444782D01*
X87670Y444786D01*
X87671Y444790D01*
X87672Y444798D01*
X87672Y444799D01*
X87674Y444807D01*
X87674Y444811D01*
X87675Y444815D01*
X87675Y444816D01*
X87676Y444820D01*
X87676Y444824D01*
X87677Y444828D01*
X87678Y444832D01*
X87678Y444833D01*
X87678Y444837D01*
X87679Y444841D01*
X87680Y444845D01*
X87681Y444854D01*
X87682Y444862D01*
X87683Y444862D01*
X87682Y444862D01*
X87683Y444866D01*
X87683Y444867D01*
X87684Y444871D01*
X87685Y444875D01*
X87685Y444879D01*
X87686Y444883D01*
X87686Y444884D01*
X87687Y444888D01*
X87687Y444892D01*
X87688Y444896D01*
X87689Y444900D01*
X87689Y444901D01*
X87689Y444905D01*
X87690Y444909D01*
X87691Y444917D01*
X87691Y444918D01*
X87692Y444922D01*
X87693Y444926D01*
X87693Y444930D01*
X87694Y444934D01*
X87694Y444935D01*
X87695Y444939D01*
X87695Y444943D01*
X87696Y444947D01*
X87697Y444951D01*
X87697Y444952D01*
X87697Y444956D01*
X87698Y444960D01*
X87699Y444964D01*
X87700Y444973D01*
X87701Y444981D01*
X87702Y444985D01*
X87702Y444986D01*
X87703Y444990D01*
X87703Y444994D01*
X87704Y444998D01*
X87704Y444999D01*
X87704Y445000D01*
X87704Y450000D01*
X87704Y450001D01*
X87655Y450310D01*
X87655Y450311D01*
X87513Y450590D01*
X87512Y450590D01*
X87512Y450591D01*
X87291Y450812D01*
X87290Y450812D01*
X87290Y450813D01*
X87011Y450955D01*
X87010Y450955D01*
X86701Y451004D01*
X86700Y451004D01*
X85700Y451004D01*
X85699Y451004D01*
X85390Y450955D01*
X85389Y450955D01*
X85110Y450813D01*
X85110Y450812D01*
X85109Y450812D01*
X84888Y450591D01*
X84888Y450590D01*
X84887Y450590D01*
X84745Y450311D01*
X84745Y450310D01*
X84744Y450308D01*
X84744Y450303D01*
X84743Y450299D01*
X84742Y450291D01*
X84740Y450282D01*
X84740Y450278D01*
X84739Y450274D01*
X84738Y450269D01*
X84738Y450265D01*
X84737Y450261D01*
X84736Y450257D01*
X84736Y450252D01*
X84735Y450248D01*
X84734Y450244D01*
X84733Y450235D01*
X84732Y450227D01*
X84731Y450223D01*
X84730Y450218D01*
X84730Y450214D01*
X84729Y450210D01*
X84728Y450206D01*
X84728Y450201D01*
X84727Y450197D01*
X84726Y450193D01*
X84726Y450189D01*
X84725Y450184D01*
X84724Y450180D01*
X84723Y450172D01*
X84722Y450167D01*
X84722Y450163D01*
X84721Y450159D01*
X84720Y450155D01*
X84720Y450150D01*
X84719Y450150D01*
X84720Y450150D01*
X84719Y450146D01*
X84718Y450142D01*
X84718Y450138D01*
X84717Y450138D01*
X84718Y450138D01*
X84717Y450133D01*
X84716Y450129D01*
X84715Y450125D01*
X84714Y450116D01*
X84713Y450108D01*
X84712Y450104D01*
X84711Y450099D01*
X84711Y450095D01*
X84710Y450091D01*
X84709Y450087D01*
X84709Y450082D01*
X84708Y450078D01*
X84707Y450074D01*
X84707Y450070D01*
X84705Y450061D01*
X84704Y450053D01*
X84703Y450048D01*
X84703Y450044D01*
X84702Y450040D01*
X84701Y450036D01*
X84701Y450031D01*
X84700Y450027D01*
X84699Y450023D01*
X84699Y450019D01*
X84698Y450014D01*
X84697Y450010D01*
X84697Y450006D01*
X84696Y450001D01*
X84696Y450000D01*
X84696Y445000D01*
X84696Y444999D01*
X84745Y444690D01*
X84745Y444689D01*
X84887Y444410D01*
X84888Y444410D01*
X84888Y444409D01*
X85109Y444188D01*
X85110Y444188D01*
X85110Y444187D01*
X85389Y444045D01*
X85390Y444045D01*
X85699Y443996D01*
X85700Y443996D01*
X86700Y443996D01*
X86700Y443996D01*
G37*
G36*
X86700Y413996D02*
X86700Y413996D01*
X86701Y413996D01*
X87010Y414045D01*
X87011Y414045D01*
X87290Y414187D01*
X87290Y414188D01*
X87291Y414188D01*
X87512Y414409D01*
X87512Y414410D01*
X87513Y414410D01*
X87655Y414689D01*
X87655Y414690D01*
X87656Y414692D01*
X87656Y414696D01*
X87656Y414697D01*
X87657Y414701D01*
X87658Y414705D01*
X87658Y414709D01*
X87659Y414713D01*
X87659Y414714D01*
X87660Y414718D01*
X87660Y414722D01*
X87661Y414726D01*
X87662Y414730D01*
X87662Y414735D01*
X87664Y414743D01*
X87664Y414747D01*
X87664Y414748D01*
X87665Y414752D01*
X87666Y414756D01*
X87666Y414760D01*
X87667Y414764D01*
X87667Y414765D01*
X87668Y414769D01*
X87668Y414773D01*
X87669Y414777D01*
X87670Y414781D01*
X87670Y414782D01*
X87670Y414786D01*
X87671Y414790D01*
X87672Y414798D01*
X87672Y414799D01*
X87674Y414807D01*
X87674Y414811D01*
X87675Y414815D01*
X87675Y414816D01*
X87676Y414820D01*
X87676Y414824D01*
X87677Y414828D01*
X87678Y414832D01*
X87678Y414833D01*
X87678Y414837D01*
X87679Y414841D01*
X87680Y414845D01*
X87681Y414854D01*
X87682Y414862D01*
X87683Y414862D01*
X87682Y414862D01*
X87683Y414866D01*
X87683Y414867D01*
X87684Y414871D01*
X87685Y414875D01*
X87685Y414879D01*
X87686Y414883D01*
X87686Y414884D01*
X87687Y414888D01*
X87687Y414892D01*
X87688Y414896D01*
X87689Y414900D01*
X87689Y414901D01*
X87689Y414905D01*
X87690Y414909D01*
X87691Y414917D01*
X87691Y414918D01*
X87692Y414922D01*
X87693Y414926D01*
X87693Y414930D01*
X87694Y414934D01*
X87694Y414935D01*
X87695Y414939D01*
X87695Y414943D01*
X87696Y414947D01*
X87697Y414951D01*
X87697Y414952D01*
X87697Y414956D01*
X87698Y414960D01*
X87699Y414964D01*
X87700Y414973D01*
X87701Y414981D01*
X87702Y414985D01*
X87702Y414986D01*
X87703Y414990D01*
X87703Y414994D01*
X87704Y414998D01*
X87704Y414999D01*
X87704Y415000D01*
X87704Y420000D01*
X87704Y420001D01*
X87655Y420310D01*
X87655Y420311D01*
X87513Y420590D01*
X87512Y420590D01*
X87512Y420591D01*
X87291Y420812D01*
X87290Y420812D01*
X87290Y420813D01*
X87011Y420955D01*
X87010Y420955D01*
X86701Y421004D01*
X86700Y421004D01*
X85700Y421004D01*
X85699Y421004D01*
X85390Y420955D01*
X85389Y420955D01*
X85110Y420813D01*
X85110Y420812D01*
X85109Y420812D01*
X84888Y420591D01*
X84888Y420590D01*
X84887Y420590D01*
X84745Y420311D01*
X84745Y420310D01*
X84744Y420308D01*
X84744Y420303D01*
X84743Y420299D01*
X84742Y420291D01*
X84740Y420282D01*
X84740Y420278D01*
X84739Y420274D01*
X84738Y420269D01*
X84738Y420265D01*
X84737Y420261D01*
X84736Y420257D01*
X84736Y420252D01*
X84735Y420248D01*
X84734Y420244D01*
X84733Y420235D01*
X84732Y420227D01*
X84731Y420223D01*
X84730Y420218D01*
X84730Y420214D01*
X84729Y420210D01*
X84728Y420206D01*
X84728Y420201D01*
X84727Y420197D01*
X84726Y420193D01*
X84726Y420189D01*
X84725Y420184D01*
X84724Y420180D01*
X84723Y420172D01*
X84722Y420167D01*
X84722Y420163D01*
X84721Y420159D01*
X84720Y420155D01*
X84720Y420150D01*
X84719Y420150D01*
X84720Y420150D01*
X84719Y420146D01*
X84718Y420142D01*
X84718Y420138D01*
X84717Y420138D01*
X84718Y420138D01*
X84717Y420133D01*
X84716Y420129D01*
X84715Y420125D01*
X84714Y420116D01*
X84713Y420108D01*
X84712Y420104D01*
X84711Y420099D01*
X84711Y420095D01*
X84710Y420091D01*
X84709Y420087D01*
X84709Y420082D01*
X84708Y420078D01*
X84707Y420074D01*
X84707Y420070D01*
X84705Y420061D01*
X84704Y420053D01*
X84703Y420048D01*
X84703Y420044D01*
X84702Y420040D01*
X84701Y420036D01*
X84701Y420031D01*
X84700Y420027D01*
X84699Y420023D01*
X84699Y420019D01*
X84698Y420014D01*
X84697Y420010D01*
X84697Y420006D01*
X84696Y420001D01*
X84696Y420000D01*
X84696Y415000D01*
X84696Y414999D01*
X84745Y414690D01*
X84745Y414689D01*
X84887Y414410D01*
X84888Y414410D01*
X84888Y414409D01*
X85109Y414188D01*
X85110Y414188D01*
X85110Y414187D01*
X85389Y414045D01*
X85390Y414045D01*
X85699Y413996D01*
X85700Y413996D01*
X86700Y413996D01*
X86700Y413996D01*
G37*
G36*
X94700Y413996D02*
X94700Y413996D01*
X94701Y413996D01*
X95010Y414045D01*
X95011Y414045D01*
X95290Y414187D01*
X95290Y414188D01*
X95291Y414188D01*
X95512Y414409D01*
X95512Y414410D01*
X95513Y414410D01*
X95655Y414689D01*
X95655Y414690D01*
X95656Y414692D01*
X95656Y414696D01*
X95656Y414697D01*
X95657Y414701D01*
X95658Y414705D01*
X95658Y414709D01*
X95659Y414713D01*
X95659Y414714D01*
X95660Y414718D01*
X95660Y414722D01*
X95661Y414726D01*
X95662Y414730D01*
X95662Y414735D01*
X95664Y414743D01*
X95664Y414747D01*
X95664Y414748D01*
X95665Y414752D01*
X95666Y414756D01*
X95666Y414760D01*
X95667Y414764D01*
X95667Y414765D01*
X95668Y414769D01*
X95668Y414773D01*
X95669Y414777D01*
X95670Y414781D01*
X95670Y414782D01*
X95670Y414786D01*
X95671Y414790D01*
X95672Y414798D01*
X95672Y414799D01*
X95674Y414807D01*
X95674Y414811D01*
X95675Y414815D01*
X95675Y414816D01*
X95676Y414820D01*
X95676Y414824D01*
X95677Y414828D01*
X95678Y414832D01*
X95678Y414833D01*
X95678Y414837D01*
X95679Y414841D01*
X95680Y414845D01*
X95681Y414854D01*
X95682Y414862D01*
X95683Y414862D01*
X95682Y414862D01*
X95683Y414866D01*
X95683Y414867D01*
X95684Y414871D01*
X95685Y414875D01*
X95685Y414879D01*
X95686Y414883D01*
X95686Y414884D01*
X95687Y414888D01*
X95687Y414892D01*
X95688Y414896D01*
X95689Y414900D01*
X95689Y414901D01*
X95689Y414905D01*
X95690Y414909D01*
X95691Y414917D01*
X95691Y414918D01*
X95692Y414922D01*
X95693Y414926D01*
X95693Y414930D01*
X95694Y414934D01*
X95694Y414935D01*
X95695Y414939D01*
X95695Y414943D01*
X95696Y414947D01*
X95697Y414951D01*
X95697Y414952D01*
X95697Y414956D01*
X95698Y414960D01*
X95699Y414964D01*
X95700Y414973D01*
X95701Y414981D01*
X95702Y414985D01*
X95702Y414986D01*
X95703Y414990D01*
X95703Y414994D01*
X95704Y414998D01*
X95704Y414999D01*
X95704Y415000D01*
X95704Y420000D01*
X95704Y420001D01*
X95655Y420310D01*
X95655Y420311D01*
X95513Y420590D01*
X95512Y420590D01*
X95512Y420591D01*
X95291Y420812D01*
X95290Y420812D01*
X95290Y420813D01*
X95011Y420955D01*
X95010Y420955D01*
X94701Y421004D01*
X94700Y421004D01*
X93700Y421004D01*
X93699Y421004D01*
X93390Y420955D01*
X93389Y420955D01*
X93110Y420813D01*
X93110Y420812D01*
X93109Y420812D01*
X92888Y420591D01*
X92888Y420590D01*
X92887Y420590D01*
X92745Y420311D01*
X92745Y420310D01*
X92744Y420308D01*
X92744Y420303D01*
X92743Y420299D01*
X92742Y420291D01*
X92740Y420282D01*
X92740Y420278D01*
X92739Y420274D01*
X92738Y420269D01*
X92738Y420265D01*
X92737Y420261D01*
X92736Y420257D01*
X92736Y420252D01*
X92735Y420248D01*
X92734Y420244D01*
X92733Y420235D01*
X92732Y420227D01*
X92731Y420223D01*
X92730Y420218D01*
X92730Y420214D01*
X92729Y420210D01*
X92728Y420206D01*
X92728Y420201D01*
X92727Y420197D01*
X92726Y420193D01*
X92726Y420189D01*
X92725Y420184D01*
X92724Y420180D01*
X92723Y420172D01*
X92722Y420167D01*
X92722Y420163D01*
X92721Y420159D01*
X92720Y420155D01*
X92720Y420150D01*
X92719Y420150D01*
X92720Y420150D01*
X92719Y420146D01*
X92718Y420142D01*
X92718Y420138D01*
X92717Y420138D01*
X92718Y420138D01*
X92717Y420133D01*
X92716Y420129D01*
X92715Y420125D01*
X92714Y420116D01*
X92713Y420108D01*
X92712Y420104D01*
X92711Y420099D01*
X92711Y420095D01*
X92710Y420091D01*
X92709Y420087D01*
X92709Y420082D01*
X92708Y420078D01*
X92707Y420074D01*
X92707Y420070D01*
X92705Y420061D01*
X92704Y420053D01*
X92703Y420048D01*
X92703Y420044D01*
X92702Y420040D01*
X92701Y420036D01*
X92701Y420031D01*
X92700Y420027D01*
X92699Y420023D01*
X92699Y420019D01*
X92698Y420014D01*
X92697Y420010D01*
X92697Y420006D01*
X92696Y420001D01*
X92696Y420000D01*
X92696Y415000D01*
X92696Y414999D01*
X92745Y414690D01*
X92745Y414689D01*
X92887Y414410D01*
X92888Y414410D01*
X92888Y414409D01*
X93109Y414188D01*
X93110Y414188D01*
X93110Y414187D01*
X93389Y414045D01*
X93390Y414045D01*
X93699Y413996D01*
X93700Y413996D01*
X94700Y413996D01*
X94700Y413996D01*
G37*
G36*
X90700Y413996D02*
X90700Y413996D01*
X90701Y413996D01*
X91010Y414045D01*
X91011Y414045D01*
X91290Y414187D01*
X91290Y414188D01*
X91291Y414188D01*
X91512Y414409D01*
X91512Y414410D01*
X91513Y414410D01*
X91655Y414689D01*
X91655Y414690D01*
X91656Y414692D01*
X91656Y414696D01*
X91656Y414697D01*
X91657Y414701D01*
X91658Y414705D01*
X91658Y414709D01*
X91659Y414713D01*
X91659Y414714D01*
X91660Y414718D01*
X91660Y414722D01*
X91661Y414726D01*
X91662Y414730D01*
X91662Y414735D01*
X91664Y414743D01*
X91664Y414747D01*
X91664Y414748D01*
X91665Y414752D01*
X91666Y414756D01*
X91666Y414760D01*
X91667Y414764D01*
X91667Y414765D01*
X91668Y414769D01*
X91668Y414773D01*
X91669Y414777D01*
X91670Y414781D01*
X91670Y414782D01*
X91670Y414786D01*
X91671Y414790D01*
X91672Y414798D01*
X91672Y414799D01*
X91674Y414807D01*
X91674Y414811D01*
X91675Y414815D01*
X91675Y414816D01*
X91676Y414820D01*
X91676Y414824D01*
X91677Y414828D01*
X91678Y414832D01*
X91678Y414833D01*
X91678Y414837D01*
X91679Y414841D01*
X91680Y414845D01*
X91681Y414854D01*
X91682Y414862D01*
X91683Y414862D01*
X91682Y414862D01*
X91683Y414866D01*
X91683Y414867D01*
X91684Y414871D01*
X91685Y414875D01*
X91685Y414879D01*
X91686Y414883D01*
X91686Y414884D01*
X91687Y414888D01*
X91687Y414892D01*
X91688Y414896D01*
X91689Y414900D01*
X91689Y414901D01*
X91689Y414905D01*
X91690Y414909D01*
X91691Y414917D01*
X91691Y414918D01*
X91692Y414922D01*
X91693Y414926D01*
X91693Y414930D01*
X91694Y414934D01*
X91694Y414935D01*
X91695Y414939D01*
X91695Y414943D01*
X91696Y414947D01*
X91697Y414951D01*
X91697Y414952D01*
X91697Y414956D01*
X91698Y414960D01*
X91699Y414964D01*
X91700Y414973D01*
X91701Y414981D01*
X91702Y414985D01*
X91702Y414986D01*
X91703Y414990D01*
X91703Y414994D01*
X91704Y414998D01*
X91704Y414999D01*
X91704Y415000D01*
X91704Y420000D01*
X91704Y420001D01*
X91655Y420310D01*
X91655Y420311D01*
X91513Y420590D01*
X91512Y420590D01*
X91512Y420591D01*
X91291Y420812D01*
X91290Y420812D01*
X91290Y420813D01*
X91011Y420955D01*
X91010Y420955D01*
X90701Y421004D01*
X90700Y421004D01*
X89700Y421004D01*
X89699Y421004D01*
X89390Y420955D01*
X89389Y420955D01*
X89110Y420813D01*
X89110Y420812D01*
X89109Y420812D01*
X88888Y420591D01*
X88888Y420590D01*
X88887Y420590D01*
X88745Y420311D01*
X88745Y420310D01*
X88744Y420308D01*
X88744Y420303D01*
X88743Y420299D01*
X88742Y420291D01*
X88740Y420282D01*
X88740Y420278D01*
X88739Y420274D01*
X88738Y420269D01*
X88738Y420265D01*
X88737Y420261D01*
X88736Y420257D01*
X88736Y420252D01*
X88735Y420248D01*
X88734Y420244D01*
X88733Y420235D01*
X88732Y420227D01*
X88731Y420223D01*
X88730Y420218D01*
X88730Y420214D01*
X88729Y420210D01*
X88728Y420206D01*
X88728Y420201D01*
X88727Y420197D01*
X88726Y420193D01*
X88726Y420189D01*
X88725Y420184D01*
X88724Y420180D01*
X88723Y420172D01*
X88722Y420167D01*
X88722Y420163D01*
X88721Y420159D01*
X88720Y420155D01*
X88720Y420150D01*
X88719Y420150D01*
X88720Y420150D01*
X88719Y420146D01*
X88718Y420142D01*
X88718Y420138D01*
X88717Y420138D01*
X88718Y420138D01*
X88717Y420133D01*
X88716Y420129D01*
X88715Y420125D01*
X88714Y420116D01*
X88713Y420108D01*
X88712Y420104D01*
X88711Y420099D01*
X88711Y420095D01*
X88710Y420091D01*
X88709Y420087D01*
X88709Y420082D01*
X88708Y420078D01*
X88707Y420074D01*
X88707Y420070D01*
X88705Y420061D01*
X88704Y420053D01*
X88703Y420048D01*
X88703Y420044D01*
X88702Y420040D01*
X88701Y420036D01*
X88701Y420031D01*
X88700Y420027D01*
X88699Y420023D01*
X88699Y420019D01*
X88698Y420014D01*
X88697Y420010D01*
X88697Y420006D01*
X88696Y420001D01*
X88696Y420000D01*
X88696Y415000D01*
X88696Y414999D01*
X88745Y414690D01*
X88745Y414689D01*
X88887Y414410D01*
X88888Y414410D01*
X88888Y414409D01*
X89109Y414188D01*
X89110Y414188D01*
X89110Y414187D01*
X89389Y414045D01*
X89390Y414045D01*
X89699Y413996D01*
X89700Y413996D01*
X90700Y413996D01*
X90700Y413996D01*
G37*
G36*
X98700Y413996D02*
X98700Y413996D01*
X98701Y413996D01*
X99010Y414045D01*
X99011Y414045D01*
X99290Y414187D01*
X99290Y414188D01*
X99291Y414188D01*
X99512Y414409D01*
X99512Y414410D01*
X99513Y414410D01*
X99655Y414689D01*
X99655Y414690D01*
X99656Y414692D01*
X99656Y414696D01*
X99656Y414697D01*
X99657Y414701D01*
X99658Y414705D01*
X99658Y414709D01*
X99659Y414713D01*
X99659Y414714D01*
X99660Y414718D01*
X99660Y414722D01*
X99661Y414726D01*
X99662Y414730D01*
X99662Y414735D01*
X99664Y414743D01*
X99664Y414747D01*
X99664Y414748D01*
X99665Y414752D01*
X99666Y414756D01*
X99666Y414760D01*
X99667Y414764D01*
X99667Y414765D01*
X99668Y414769D01*
X99668Y414773D01*
X99669Y414777D01*
X99670Y414781D01*
X99670Y414782D01*
X99670Y414786D01*
X99671Y414790D01*
X99672Y414798D01*
X99672Y414799D01*
X99674Y414807D01*
X99674Y414811D01*
X99675Y414815D01*
X99675Y414816D01*
X99676Y414820D01*
X99676Y414824D01*
X99677Y414828D01*
X99678Y414832D01*
X99678Y414833D01*
X99678Y414837D01*
X99679Y414841D01*
X99680Y414845D01*
X99681Y414854D01*
X99682Y414862D01*
X99683Y414862D01*
X99682Y414862D01*
X99683Y414866D01*
X99683Y414867D01*
X99684Y414871D01*
X99685Y414875D01*
X99685Y414879D01*
X99686Y414883D01*
X99686Y414884D01*
X99687Y414888D01*
X99687Y414892D01*
X99688Y414896D01*
X99689Y414900D01*
X99689Y414901D01*
X99689Y414905D01*
X99690Y414909D01*
X99691Y414917D01*
X99691Y414918D01*
X99692Y414922D01*
X99693Y414926D01*
X99693Y414930D01*
X99694Y414934D01*
X99694Y414935D01*
X99695Y414939D01*
X99695Y414943D01*
X99696Y414947D01*
X99697Y414951D01*
X99697Y414952D01*
X99697Y414956D01*
X99698Y414960D01*
X99699Y414964D01*
X99700Y414973D01*
X99701Y414981D01*
X99702Y414985D01*
X99702Y414986D01*
X99703Y414990D01*
X99703Y414994D01*
X99704Y414998D01*
X99704Y414999D01*
X99704Y415000D01*
X99704Y420000D01*
X99704Y420001D01*
X99655Y420310D01*
X99655Y420311D01*
X99513Y420590D01*
X99512Y420590D01*
X99512Y420591D01*
X99291Y420812D01*
X99290Y420812D01*
X99290Y420813D01*
X99011Y420955D01*
X99010Y420955D01*
X98701Y421004D01*
X98700Y421004D01*
X97700Y421004D01*
X97699Y421004D01*
X97390Y420955D01*
X97389Y420955D01*
X97110Y420813D01*
X97110Y420812D01*
X97109Y420812D01*
X96888Y420591D01*
X96888Y420590D01*
X96887Y420590D01*
X96745Y420311D01*
X96745Y420310D01*
X96744Y420308D01*
X96744Y420303D01*
X96743Y420299D01*
X96742Y420291D01*
X96740Y420282D01*
X96740Y420278D01*
X96739Y420274D01*
X96738Y420269D01*
X96738Y420265D01*
X96737Y420261D01*
X96736Y420257D01*
X96736Y420252D01*
X96735Y420248D01*
X96734Y420244D01*
X96733Y420235D01*
X96732Y420227D01*
X96731Y420223D01*
X96730Y420218D01*
X96730Y420214D01*
X96729Y420210D01*
X96728Y420206D01*
X96728Y420201D01*
X96727Y420197D01*
X96726Y420193D01*
X96726Y420189D01*
X96725Y420184D01*
X96724Y420180D01*
X96723Y420172D01*
X96722Y420167D01*
X96722Y420163D01*
X96721Y420159D01*
X96720Y420155D01*
X96720Y420150D01*
X96719Y420150D01*
X96720Y420150D01*
X96719Y420146D01*
X96718Y420142D01*
X96718Y420138D01*
X96717Y420138D01*
X96718Y420138D01*
X96717Y420133D01*
X96716Y420129D01*
X96715Y420125D01*
X96714Y420116D01*
X96713Y420108D01*
X96712Y420104D01*
X96711Y420099D01*
X96711Y420095D01*
X96710Y420091D01*
X96709Y420087D01*
X96709Y420082D01*
X96708Y420078D01*
X96707Y420074D01*
X96707Y420070D01*
X96705Y420061D01*
X96704Y420053D01*
X96703Y420048D01*
X96703Y420044D01*
X96702Y420040D01*
X96701Y420036D01*
X96701Y420031D01*
X96700Y420027D01*
X96699Y420023D01*
X96699Y420019D01*
X96698Y420014D01*
X96697Y420010D01*
X96697Y420006D01*
X96696Y420001D01*
X96696Y420000D01*
X96696Y415000D01*
X96696Y414999D01*
X96745Y414690D01*
X96745Y414689D01*
X96887Y414410D01*
X96888Y414410D01*
X96888Y414409D01*
X97109Y414188D01*
X97110Y414188D01*
X97110Y414187D01*
X97389Y414045D01*
X97390Y414045D01*
X97699Y413996D01*
X97700Y413996D01*
X98700Y413996D01*
X98700Y413996D01*
G37*
G36*
X79700Y436996D02*
X79700Y436996D01*
X79701Y436996D01*
X80010Y437045D01*
X80011Y437045D01*
X80290Y437187D01*
X80290Y437188D01*
X80291Y437188D01*
X80512Y437409D01*
X80512Y437410D01*
X80513Y437410D01*
X80655Y437689D01*
X80655Y437690D01*
X80656Y437692D01*
X80656Y437696D01*
X80656Y437697D01*
X80657Y437701D01*
X80658Y437705D01*
X80658Y437709D01*
X80659Y437713D01*
X80659Y437714D01*
X80660Y437718D01*
X80660Y437722D01*
X80661Y437726D01*
X80662Y437730D01*
X80662Y437735D01*
X80664Y437743D01*
X80664Y437747D01*
X80664Y437748D01*
X80665Y437752D01*
X80666Y437756D01*
X80666Y437760D01*
X80667Y437764D01*
X80667Y437765D01*
X80668Y437769D01*
X80668Y437773D01*
X80669Y437777D01*
X80670Y437781D01*
X80670Y437782D01*
X80670Y437786D01*
X80671Y437790D01*
X80672Y437798D01*
X80672Y437799D01*
X80674Y437807D01*
X80674Y437811D01*
X80675Y437815D01*
X80675Y437816D01*
X80676Y437820D01*
X80676Y437824D01*
X80677Y437828D01*
X80678Y437832D01*
X80678Y437833D01*
X80678Y437837D01*
X80679Y437841D01*
X80680Y437845D01*
X80681Y437854D01*
X80682Y437862D01*
X80683Y437862D01*
X80682Y437862D01*
X80683Y437866D01*
X80683Y437867D01*
X80684Y437871D01*
X80685Y437875D01*
X80685Y437879D01*
X80686Y437883D01*
X80686Y437884D01*
X80687Y437888D01*
X80687Y437892D01*
X80688Y437896D01*
X80689Y437900D01*
X80689Y437901D01*
X80689Y437905D01*
X80690Y437909D01*
X80691Y437917D01*
X80691Y437918D01*
X80692Y437922D01*
X80693Y437926D01*
X80693Y437930D01*
X80694Y437934D01*
X80694Y437935D01*
X80695Y437939D01*
X80695Y437943D01*
X80696Y437947D01*
X80697Y437951D01*
X80697Y437952D01*
X80697Y437956D01*
X80698Y437960D01*
X80699Y437964D01*
X80700Y437973D01*
X80701Y437981D01*
X80702Y437985D01*
X80702Y437986D01*
X80703Y437990D01*
X80703Y437994D01*
X80704Y437998D01*
X80704Y437999D01*
X80704Y438000D01*
X80704Y439000D01*
X80704Y439001D01*
X80655Y439310D01*
X80655Y439311D01*
X80513Y439590D01*
X80512Y439590D01*
X80512Y439591D01*
X80291Y439812D01*
X80290Y439812D01*
X80290Y439813D01*
X80011Y439955D01*
X80010Y439955D01*
X79701Y440004D01*
X79700Y440004D01*
X74700Y440004D01*
X74699Y440004D01*
X74390Y439955D01*
X74389Y439955D01*
X74110Y439813D01*
X74110Y439812D01*
X74109Y439812D01*
X73888Y439591D01*
X73888Y439590D01*
X73887Y439590D01*
X73745Y439311D01*
X73745Y439310D01*
X73745Y439308D01*
X73744Y439304D01*
X73743Y439300D01*
X73743Y439296D01*
X73742Y439296D01*
X73743Y439296D01*
X73742Y439291D01*
X73741Y439287D01*
X73741Y439283D01*
X73740Y439283D01*
X73741Y439283D01*
X73740Y439279D01*
X73739Y439274D01*
X73738Y439270D01*
X73738Y439266D01*
X73737Y439262D01*
X73736Y439253D01*
X73735Y439249D01*
X73734Y439245D01*
X73734Y439240D01*
X73733Y439236D01*
X73732Y439232D01*
X73732Y439228D01*
X73731Y439223D01*
X73730Y439219D01*
X73730Y439215D01*
X73729Y439211D01*
X73728Y439206D01*
X73727Y439198D01*
X73726Y439189D01*
X73725Y439185D01*
X73724Y439181D01*
X73724Y439177D01*
X73723Y439172D01*
X73722Y439168D01*
X73722Y439164D01*
X73721Y439160D01*
X73720Y439155D01*
X73720Y439151D01*
X73718Y439143D01*
X73717Y439134D01*
X73716Y439130D01*
X73716Y439126D01*
X73715Y439121D01*
X73714Y439117D01*
X73714Y439113D01*
X73713Y439109D01*
X73712Y439104D01*
X73712Y439100D01*
X73711Y439096D01*
X73710Y439092D01*
X73710Y439087D01*
X73708Y439079D01*
X73708Y439075D01*
X73707Y439075D01*
X73708Y439075D01*
X73707Y439070D01*
X73706Y439066D01*
X73706Y439062D01*
X73705Y439062D01*
X73706Y439062D01*
X73705Y439058D01*
X73704Y439053D01*
X73703Y439049D01*
X73703Y439045D01*
X73702Y439041D01*
X73701Y439036D01*
X73701Y439032D01*
X73699Y439024D01*
X73698Y439015D01*
X73697Y439011D01*
X73697Y439007D01*
X73696Y439002D01*
X73696Y439001D01*
X73696Y439000D01*
X73696Y438000D01*
X73696Y437999D01*
X73745Y437690D01*
X73745Y437689D01*
X73887Y437410D01*
X73888Y437410D01*
X73888Y437409D01*
X74109Y437188D01*
X74110Y437188D01*
X74110Y437187D01*
X74389Y437045D01*
X74390Y437045D01*
X74699Y436996D01*
X74700Y436996D01*
X79700Y436996D01*
X79700Y436996D01*
G37*
G36*
X109700Y436996D02*
X109700Y436996D01*
X109701Y436996D01*
X110010Y437045D01*
X110011Y437045D01*
X110290Y437187D01*
X110290Y437188D01*
X110291Y437188D01*
X110512Y437409D01*
X110512Y437410D01*
X110513Y437410D01*
X110655Y437689D01*
X110655Y437690D01*
X110656Y437692D01*
X110656Y437696D01*
X110656Y437697D01*
X110657Y437701D01*
X110658Y437705D01*
X110658Y437709D01*
X110659Y437713D01*
X110659Y437714D01*
X110660Y437718D01*
X110660Y437722D01*
X110661Y437726D01*
X110662Y437730D01*
X110662Y437735D01*
X110664Y437743D01*
X110664Y437747D01*
X110664Y437748D01*
X110665Y437752D01*
X110666Y437756D01*
X110666Y437760D01*
X110667Y437764D01*
X110667Y437765D01*
X110668Y437769D01*
X110668Y437773D01*
X110669Y437777D01*
X110670Y437781D01*
X110670Y437782D01*
X110670Y437786D01*
X110671Y437790D01*
X110672Y437798D01*
X110672Y437799D01*
X110674Y437807D01*
X110674Y437811D01*
X110675Y437815D01*
X110675Y437816D01*
X110676Y437820D01*
X110676Y437824D01*
X110677Y437828D01*
X110678Y437832D01*
X110678Y437833D01*
X110678Y437837D01*
X110679Y437841D01*
X110680Y437845D01*
X110681Y437854D01*
X110682Y437862D01*
X110683Y437862D01*
X110682Y437862D01*
X110683Y437866D01*
X110683Y437867D01*
X110684Y437871D01*
X110685Y437875D01*
X110685Y437879D01*
X110686Y437883D01*
X110686Y437884D01*
X110687Y437888D01*
X110687Y437892D01*
X110688Y437896D01*
X110689Y437900D01*
X110689Y437901D01*
X110689Y437905D01*
X110690Y437909D01*
X110691Y437917D01*
X110691Y437918D01*
X110692Y437922D01*
X110693Y437926D01*
X110693Y437930D01*
X110694Y437934D01*
X110694Y437935D01*
X110695Y437939D01*
X110695Y437943D01*
X110696Y437947D01*
X110697Y437951D01*
X110697Y437952D01*
X110697Y437956D01*
X110698Y437960D01*
X110699Y437964D01*
X110700Y437973D01*
X110701Y437981D01*
X110702Y437985D01*
X110702Y437986D01*
X110703Y437990D01*
X110703Y437994D01*
X110704Y437998D01*
X110704Y437999D01*
X110704Y438000D01*
X110704Y439000D01*
X110704Y439001D01*
X110655Y439310D01*
X110655Y439311D01*
X110513Y439590D01*
X110512Y439590D01*
X110512Y439591D01*
X110291Y439812D01*
X110290Y439812D01*
X110290Y439813D01*
X110011Y439955D01*
X110010Y439955D01*
X109701Y440004D01*
X109700Y440004D01*
X104700Y440004D01*
X104699Y440004D01*
X104390Y439955D01*
X104389Y439955D01*
X104110Y439813D01*
X104110Y439812D01*
X104109Y439812D01*
X103888Y439591D01*
X103888Y439590D01*
X103887Y439590D01*
X103745Y439311D01*
X103745Y439310D01*
X103745Y439308D01*
X103744Y439304D01*
X103743Y439300D01*
X103743Y439296D01*
X103742Y439296D01*
X103743Y439296D01*
X103742Y439291D01*
X103741Y439287D01*
X103741Y439283D01*
X103740Y439283D01*
X103741Y439283D01*
X103740Y439279D01*
X103739Y439274D01*
X103738Y439270D01*
X103738Y439266D01*
X103737Y439262D01*
X103736Y439253D01*
X103735Y439249D01*
X103734Y439245D01*
X103734Y439240D01*
X103733Y439236D01*
X103732Y439232D01*
X103732Y439228D01*
X103731Y439223D01*
X103730Y439219D01*
X103730Y439215D01*
X103729Y439211D01*
X103728Y439206D01*
X103727Y439198D01*
X103726Y439189D01*
X103725Y439185D01*
X103724Y439181D01*
X103724Y439177D01*
X103723Y439172D01*
X103722Y439168D01*
X103722Y439164D01*
X103721Y439160D01*
X103720Y439155D01*
X103720Y439151D01*
X103718Y439143D01*
X103717Y439134D01*
X103716Y439130D01*
X103716Y439126D01*
X103715Y439121D01*
X103714Y439117D01*
X103714Y439113D01*
X103713Y439109D01*
X103712Y439104D01*
X103712Y439100D01*
X103711Y439096D01*
X103710Y439092D01*
X103710Y439087D01*
X103708Y439079D01*
X103708Y439075D01*
X103707Y439075D01*
X103708Y439075D01*
X103707Y439070D01*
X103706Y439066D01*
X103706Y439062D01*
X103705Y439062D01*
X103706Y439062D01*
X103705Y439058D01*
X103704Y439053D01*
X103703Y439049D01*
X103703Y439045D01*
X103702Y439041D01*
X103701Y439036D01*
X103701Y439032D01*
X103699Y439024D01*
X103698Y439015D01*
X103697Y439011D01*
X103697Y439007D01*
X103696Y439002D01*
X103696Y439001D01*
X103696Y439000D01*
X103696Y438000D01*
X103696Y437999D01*
X103745Y437690D01*
X103745Y437689D01*
X103887Y437410D01*
X103888Y437410D01*
X103888Y437409D01*
X104109Y437188D01*
X104110Y437188D01*
X104110Y437187D01*
X104389Y437045D01*
X104390Y437045D01*
X104699Y436996D01*
X104700Y436996D01*
X109700Y436996D01*
X109700Y436996D01*
G37*
G36*
X109700Y432996D02*
X109700Y432996D01*
X109701Y432996D01*
X110010Y433045D01*
X110011Y433045D01*
X110290Y433187D01*
X110290Y433188D01*
X110291Y433188D01*
X110512Y433409D01*
X110512Y433410D01*
X110513Y433410D01*
X110655Y433689D01*
X110655Y433690D01*
X110656Y433692D01*
X110656Y433696D01*
X110656Y433697D01*
X110657Y433701D01*
X110658Y433705D01*
X110658Y433709D01*
X110659Y433713D01*
X110659Y433714D01*
X110660Y433718D01*
X110660Y433722D01*
X110661Y433726D01*
X110662Y433730D01*
X110662Y433735D01*
X110664Y433743D01*
X110664Y433747D01*
X110664Y433748D01*
X110665Y433752D01*
X110666Y433756D01*
X110666Y433760D01*
X110667Y433764D01*
X110667Y433765D01*
X110668Y433769D01*
X110668Y433773D01*
X110669Y433777D01*
X110670Y433781D01*
X110670Y433782D01*
X110670Y433786D01*
X110671Y433790D01*
X110672Y433798D01*
X110672Y433799D01*
X110674Y433807D01*
X110674Y433811D01*
X110675Y433815D01*
X110675Y433816D01*
X110676Y433820D01*
X110676Y433824D01*
X110677Y433828D01*
X110678Y433832D01*
X110678Y433833D01*
X110678Y433837D01*
X110679Y433841D01*
X110680Y433845D01*
X110681Y433854D01*
X110682Y433862D01*
X110683Y433862D01*
X110682Y433862D01*
X110683Y433866D01*
X110683Y433867D01*
X110684Y433871D01*
X110685Y433875D01*
X110685Y433879D01*
X110686Y433883D01*
X110686Y433884D01*
X110687Y433888D01*
X110687Y433892D01*
X110688Y433896D01*
X110689Y433900D01*
X110689Y433901D01*
X110689Y433905D01*
X110690Y433909D01*
X110691Y433917D01*
X110691Y433918D01*
X110692Y433922D01*
X110693Y433926D01*
X110693Y433930D01*
X110694Y433934D01*
X110694Y433935D01*
X110695Y433939D01*
X110695Y433943D01*
X110696Y433947D01*
X110697Y433951D01*
X110697Y433952D01*
X110697Y433956D01*
X110698Y433960D01*
X110699Y433964D01*
X110700Y433973D01*
X110701Y433981D01*
X110702Y433985D01*
X110702Y433986D01*
X110703Y433990D01*
X110703Y433994D01*
X110704Y433998D01*
X110704Y433999D01*
X110704Y434000D01*
X110704Y435000D01*
X110704Y435001D01*
X110655Y435310D01*
X110655Y435311D01*
X110513Y435590D01*
X110512Y435590D01*
X110512Y435591D01*
X110291Y435812D01*
X110290Y435812D01*
X110290Y435813D01*
X110011Y435955D01*
X110010Y435955D01*
X109701Y436004D01*
X109700Y436004D01*
X104700Y436004D01*
X104699Y436004D01*
X104390Y435955D01*
X104389Y435955D01*
X104110Y435813D01*
X104110Y435812D01*
X104109Y435812D01*
X103888Y435591D01*
X103888Y435590D01*
X103887Y435590D01*
X103745Y435311D01*
X103745Y435310D01*
X103745Y435308D01*
X103744Y435304D01*
X103743Y435300D01*
X103743Y435296D01*
X103742Y435296D01*
X103743Y435296D01*
X103742Y435291D01*
X103741Y435287D01*
X103741Y435283D01*
X103740Y435283D01*
X103741Y435283D01*
X103740Y435279D01*
X103739Y435274D01*
X103738Y435270D01*
X103738Y435266D01*
X103737Y435262D01*
X103736Y435253D01*
X103735Y435249D01*
X103734Y435245D01*
X103734Y435240D01*
X103733Y435236D01*
X103732Y435232D01*
X103732Y435228D01*
X103731Y435223D01*
X103730Y435219D01*
X103730Y435215D01*
X103729Y435211D01*
X103728Y435206D01*
X103727Y435198D01*
X103726Y435189D01*
X103725Y435185D01*
X103724Y435181D01*
X103724Y435177D01*
X103723Y435172D01*
X103722Y435168D01*
X103722Y435164D01*
X103721Y435160D01*
X103720Y435155D01*
X103720Y435151D01*
X103718Y435143D01*
X103717Y435134D01*
X103716Y435130D01*
X103716Y435126D01*
X103715Y435121D01*
X103714Y435117D01*
X103714Y435113D01*
X103713Y435109D01*
X103712Y435104D01*
X103712Y435100D01*
X103711Y435096D01*
X103710Y435092D01*
X103710Y435087D01*
X103708Y435079D01*
X103708Y435075D01*
X103707Y435075D01*
X103708Y435075D01*
X103707Y435070D01*
X103706Y435066D01*
X103706Y435062D01*
X103705Y435062D01*
X103706Y435062D01*
X103705Y435058D01*
X103704Y435053D01*
X103703Y435049D01*
X103703Y435045D01*
X103702Y435041D01*
X103701Y435036D01*
X103701Y435032D01*
X103699Y435024D01*
X103698Y435015D01*
X103697Y435011D01*
X103697Y435007D01*
X103696Y435002D01*
X103696Y435001D01*
X103696Y435000D01*
X103696Y434000D01*
X103696Y433999D01*
X103745Y433690D01*
X103745Y433689D01*
X103887Y433410D01*
X103888Y433410D01*
X103888Y433409D01*
X104109Y433188D01*
X104110Y433188D01*
X104110Y433187D01*
X104389Y433045D01*
X104390Y433045D01*
X104699Y432996D01*
X104700Y432996D01*
X109700Y432996D01*
X109700Y432996D01*
G37*
G36*
X79700Y432996D02*
X79700Y432996D01*
X79701Y432996D01*
X80010Y433045D01*
X80011Y433045D01*
X80290Y433187D01*
X80290Y433188D01*
X80291Y433188D01*
X80512Y433409D01*
X80512Y433410D01*
X80513Y433410D01*
X80655Y433689D01*
X80655Y433690D01*
X80656Y433692D01*
X80656Y433696D01*
X80656Y433697D01*
X80657Y433701D01*
X80658Y433705D01*
X80658Y433709D01*
X80659Y433713D01*
X80659Y433714D01*
X80660Y433718D01*
X80660Y433722D01*
X80661Y433726D01*
X80662Y433730D01*
X80662Y433735D01*
X80664Y433743D01*
X80664Y433747D01*
X80664Y433748D01*
X80665Y433752D01*
X80666Y433756D01*
X80666Y433760D01*
X80667Y433764D01*
X80667Y433765D01*
X80668Y433769D01*
X80668Y433773D01*
X80669Y433777D01*
X80670Y433781D01*
X80670Y433782D01*
X80670Y433786D01*
X80671Y433790D01*
X80672Y433798D01*
X80672Y433799D01*
X80674Y433807D01*
X80674Y433811D01*
X80675Y433815D01*
X80675Y433816D01*
X80676Y433820D01*
X80676Y433824D01*
X80677Y433828D01*
X80678Y433832D01*
X80678Y433833D01*
X80678Y433837D01*
X80679Y433841D01*
X80680Y433845D01*
X80681Y433854D01*
X80682Y433862D01*
X80683Y433862D01*
X80682Y433862D01*
X80683Y433866D01*
X80683Y433867D01*
X80684Y433871D01*
X80685Y433875D01*
X80685Y433879D01*
X80686Y433883D01*
X80686Y433884D01*
X80687Y433888D01*
X80687Y433892D01*
X80688Y433896D01*
X80689Y433900D01*
X80689Y433901D01*
X80689Y433905D01*
X80690Y433909D01*
X80691Y433917D01*
X80691Y433918D01*
X80692Y433922D01*
X80693Y433926D01*
X80693Y433930D01*
X80694Y433934D01*
X80694Y433935D01*
X80695Y433939D01*
X80695Y433943D01*
X80696Y433947D01*
X80697Y433951D01*
X80697Y433952D01*
X80697Y433956D01*
X80698Y433960D01*
X80699Y433964D01*
X80700Y433973D01*
X80701Y433981D01*
X80702Y433985D01*
X80702Y433986D01*
X80703Y433990D01*
X80703Y433994D01*
X80704Y433998D01*
X80704Y433999D01*
X80704Y434000D01*
X80704Y435000D01*
X80704Y435001D01*
X80655Y435310D01*
X80655Y435311D01*
X80513Y435590D01*
X80512Y435590D01*
X80512Y435591D01*
X80291Y435812D01*
X80290Y435812D01*
X80290Y435813D01*
X80011Y435955D01*
X80010Y435955D01*
X79701Y436004D01*
X79700Y436004D01*
X74700Y436004D01*
X74699Y436004D01*
X74390Y435955D01*
X74389Y435955D01*
X74110Y435813D01*
X74110Y435812D01*
X74109Y435812D01*
X73888Y435591D01*
X73888Y435590D01*
X73887Y435590D01*
X73745Y435311D01*
X73745Y435310D01*
X73745Y435308D01*
X73744Y435304D01*
X73743Y435300D01*
X73743Y435296D01*
X73742Y435296D01*
X73743Y435296D01*
X73742Y435291D01*
X73741Y435287D01*
X73741Y435283D01*
X73740Y435283D01*
X73741Y435283D01*
X73740Y435279D01*
X73739Y435274D01*
X73738Y435270D01*
X73738Y435266D01*
X73737Y435262D01*
X73736Y435253D01*
X73735Y435249D01*
X73734Y435245D01*
X73734Y435240D01*
X73733Y435236D01*
X73732Y435232D01*
X73732Y435228D01*
X73731Y435223D01*
X73730Y435219D01*
X73730Y435215D01*
X73729Y435211D01*
X73728Y435206D01*
X73727Y435198D01*
X73726Y435189D01*
X73725Y435185D01*
X73724Y435181D01*
X73724Y435177D01*
X73723Y435172D01*
X73722Y435168D01*
X73722Y435164D01*
X73721Y435160D01*
X73720Y435155D01*
X73720Y435151D01*
X73718Y435143D01*
X73717Y435134D01*
X73716Y435130D01*
X73716Y435126D01*
X73715Y435121D01*
X73714Y435117D01*
X73714Y435113D01*
X73713Y435109D01*
X73712Y435104D01*
X73712Y435100D01*
X73711Y435096D01*
X73710Y435092D01*
X73710Y435087D01*
X73708Y435079D01*
X73708Y435075D01*
X73707Y435075D01*
X73708Y435075D01*
X73707Y435070D01*
X73706Y435066D01*
X73706Y435062D01*
X73705Y435062D01*
X73706Y435062D01*
X73705Y435058D01*
X73704Y435053D01*
X73703Y435049D01*
X73703Y435045D01*
X73702Y435041D01*
X73701Y435036D01*
X73701Y435032D01*
X73699Y435024D01*
X73698Y435015D01*
X73697Y435011D01*
X73697Y435007D01*
X73696Y435002D01*
X73696Y435001D01*
X73696Y435000D01*
X73696Y434000D01*
X73696Y433999D01*
X73745Y433690D01*
X73745Y433689D01*
X73887Y433410D01*
X73888Y433410D01*
X73888Y433409D01*
X74109Y433188D01*
X74110Y433188D01*
X74110Y433187D01*
X74389Y433045D01*
X74390Y433045D01*
X74699Y432996D01*
X74700Y432996D01*
X79700Y432996D01*
X79700Y432996D01*
G37*
G36*
X79700Y428996D02*
X79700Y428996D01*
X79701Y428996D01*
X80010Y429045D01*
X80011Y429045D01*
X80290Y429187D01*
X80290Y429188D01*
X80291Y429188D01*
X80512Y429409D01*
X80512Y429410D01*
X80513Y429410D01*
X80655Y429689D01*
X80655Y429690D01*
X80656Y429692D01*
X80656Y429696D01*
X80656Y429697D01*
X80657Y429701D01*
X80658Y429705D01*
X80658Y429709D01*
X80659Y429713D01*
X80659Y429714D01*
X80660Y429718D01*
X80660Y429722D01*
X80661Y429726D01*
X80662Y429730D01*
X80662Y429735D01*
X80664Y429743D01*
X80664Y429747D01*
X80664Y429748D01*
X80665Y429752D01*
X80666Y429756D01*
X80666Y429760D01*
X80667Y429764D01*
X80667Y429765D01*
X80668Y429769D01*
X80668Y429773D01*
X80669Y429777D01*
X80670Y429781D01*
X80670Y429782D01*
X80670Y429786D01*
X80671Y429790D01*
X80672Y429798D01*
X80672Y429799D01*
X80674Y429807D01*
X80674Y429811D01*
X80675Y429815D01*
X80675Y429816D01*
X80676Y429820D01*
X80676Y429824D01*
X80677Y429828D01*
X80678Y429832D01*
X80678Y429833D01*
X80678Y429837D01*
X80679Y429841D01*
X80680Y429845D01*
X80681Y429854D01*
X80682Y429862D01*
X80683Y429862D01*
X80682Y429862D01*
X80683Y429866D01*
X80683Y429867D01*
X80684Y429871D01*
X80685Y429875D01*
X80685Y429879D01*
X80686Y429883D01*
X80686Y429884D01*
X80687Y429888D01*
X80687Y429892D01*
X80688Y429896D01*
X80689Y429900D01*
X80689Y429901D01*
X80689Y429905D01*
X80690Y429909D01*
X80691Y429917D01*
X80691Y429918D01*
X80692Y429922D01*
X80693Y429926D01*
X80693Y429930D01*
X80694Y429934D01*
X80694Y429935D01*
X80695Y429939D01*
X80695Y429943D01*
X80696Y429947D01*
X80697Y429951D01*
X80697Y429952D01*
X80697Y429956D01*
X80698Y429960D01*
X80699Y429964D01*
X80700Y429973D01*
X80701Y429981D01*
X80702Y429985D01*
X80702Y429986D01*
X80703Y429990D01*
X80703Y429994D01*
X80704Y429998D01*
X80704Y429999D01*
X80704Y430000D01*
X80704Y431000D01*
X80704Y431001D01*
X80655Y431310D01*
X80655Y431311D01*
X80513Y431590D01*
X80512Y431590D01*
X80512Y431591D01*
X80291Y431812D01*
X80290Y431812D01*
X80290Y431813D01*
X80011Y431955D01*
X80010Y431955D01*
X79701Y432004D01*
X79700Y432004D01*
X74700Y432004D01*
X74699Y432004D01*
X74390Y431955D01*
X74389Y431955D01*
X74110Y431813D01*
X74110Y431812D01*
X74109Y431812D01*
X73888Y431591D01*
X73888Y431590D01*
X73887Y431590D01*
X73745Y431311D01*
X73745Y431310D01*
X73745Y431308D01*
X73744Y431304D01*
X73743Y431300D01*
X73743Y431296D01*
X73742Y431296D01*
X73743Y431296D01*
X73742Y431291D01*
X73741Y431287D01*
X73741Y431283D01*
X73740Y431283D01*
X73741Y431283D01*
X73740Y431279D01*
X73739Y431274D01*
X73738Y431270D01*
X73738Y431266D01*
X73737Y431262D01*
X73736Y431253D01*
X73735Y431249D01*
X73734Y431245D01*
X73734Y431240D01*
X73733Y431236D01*
X73732Y431232D01*
X73732Y431228D01*
X73731Y431223D01*
X73730Y431219D01*
X73730Y431215D01*
X73729Y431211D01*
X73728Y431206D01*
X73727Y431198D01*
X73726Y431189D01*
X73725Y431185D01*
X73724Y431181D01*
X73724Y431177D01*
X73723Y431172D01*
X73722Y431168D01*
X73722Y431164D01*
X73721Y431160D01*
X73720Y431155D01*
X73720Y431151D01*
X73718Y431143D01*
X73717Y431134D01*
X73716Y431130D01*
X73716Y431126D01*
X73715Y431121D01*
X73714Y431117D01*
X73714Y431113D01*
X73713Y431109D01*
X73712Y431104D01*
X73712Y431100D01*
X73711Y431096D01*
X73710Y431092D01*
X73710Y431087D01*
X73708Y431079D01*
X73708Y431075D01*
X73707Y431075D01*
X73708Y431075D01*
X73707Y431070D01*
X73706Y431066D01*
X73706Y431062D01*
X73705Y431062D01*
X73706Y431062D01*
X73705Y431058D01*
X73704Y431053D01*
X73703Y431049D01*
X73703Y431045D01*
X73702Y431041D01*
X73701Y431036D01*
X73701Y431032D01*
X73699Y431024D01*
X73698Y431015D01*
X73697Y431011D01*
X73697Y431007D01*
X73696Y431002D01*
X73696Y431001D01*
X73696Y431000D01*
X73696Y430000D01*
X73696Y429999D01*
X73745Y429690D01*
X73745Y429689D01*
X73887Y429410D01*
X73888Y429410D01*
X73888Y429409D01*
X74109Y429188D01*
X74110Y429188D01*
X74110Y429187D01*
X74389Y429045D01*
X74390Y429045D01*
X74699Y428996D01*
X74700Y428996D01*
X79700Y428996D01*
X79700Y428996D01*
G37*
G36*
X109700Y428996D02*
X109700Y428996D01*
X109701Y428996D01*
X110010Y429045D01*
X110011Y429045D01*
X110290Y429187D01*
X110290Y429188D01*
X110291Y429188D01*
X110512Y429409D01*
X110512Y429410D01*
X110513Y429410D01*
X110655Y429689D01*
X110655Y429690D01*
X110656Y429692D01*
X110656Y429696D01*
X110656Y429697D01*
X110657Y429701D01*
X110658Y429705D01*
X110658Y429709D01*
X110659Y429713D01*
X110659Y429714D01*
X110660Y429718D01*
X110660Y429722D01*
X110661Y429726D01*
X110662Y429730D01*
X110662Y429735D01*
X110664Y429743D01*
X110664Y429747D01*
X110664Y429748D01*
X110665Y429752D01*
X110666Y429756D01*
X110666Y429760D01*
X110667Y429764D01*
X110667Y429765D01*
X110668Y429769D01*
X110668Y429773D01*
X110669Y429777D01*
X110670Y429781D01*
X110670Y429782D01*
X110670Y429786D01*
X110671Y429790D01*
X110672Y429798D01*
X110672Y429799D01*
X110674Y429807D01*
X110674Y429811D01*
X110675Y429815D01*
X110675Y429816D01*
X110676Y429820D01*
X110676Y429824D01*
X110677Y429828D01*
X110678Y429832D01*
X110678Y429833D01*
X110678Y429837D01*
X110679Y429841D01*
X110680Y429845D01*
X110681Y429854D01*
X110682Y429862D01*
X110683Y429862D01*
X110682Y429862D01*
X110683Y429866D01*
X110683Y429867D01*
X110684Y429871D01*
X110685Y429875D01*
X110685Y429879D01*
X110686Y429883D01*
X110686Y429884D01*
X110687Y429888D01*
X110687Y429892D01*
X110688Y429896D01*
X110689Y429900D01*
X110689Y429901D01*
X110689Y429905D01*
X110690Y429909D01*
X110691Y429917D01*
X110691Y429918D01*
X110692Y429922D01*
X110693Y429926D01*
X110693Y429930D01*
X110694Y429934D01*
X110694Y429935D01*
X110695Y429939D01*
X110695Y429943D01*
X110696Y429947D01*
X110697Y429951D01*
X110697Y429952D01*
X110697Y429956D01*
X110698Y429960D01*
X110699Y429964D01*
X110700Y429973D01*
X110701Y429981D01*
X110702Y429985D01*
X110702Y429986D01*
X110703Y429990D01*
X110703Y429994D01*
X110704Y429998D01*
X110704Y429999D01*
X110704Y430000D01*
X110704Y431000D01*
X110704Y431001D01*
X110655Y431310D01*
X110655Y431311D01*
X110513Y431590D01*
X110512Y431590D01*
X110512Y431591D01*
X110291Y431812D01*
X110290Y431812D01*
X110290Y431813D01*
X110011Y431955D01*
X110010Y431955D01*
X109701Y432004D01*
X109700Y432004D01*
X104700Y432004D01*
X104699Y432004D01*
X104390Y431955D01*
X104389Y431955D01*
X104110Y431813D01*
X104110Y431812D01*
X104109Y431812D01*
X103888Y431591D01*
X103888Y431590D01*
X103887Y431590D01*
X103745Y431311D01*
X103745Y431310D01*
X103745Y431308D01*
X103744Y431304D01*
X103743Y431300D01*
X103743Y431296D01*
X103742Y431296D01*
X103743Y431296D01*
X103742Y431291D01*
X103741Y431287D01*
X103741Y431283D01*
X103740Y431283D01*
X103741Y431283D01*
X103740Y431279D01*
X103739Y431274D01*
X103738Y431270D01*
X103738Y431266D01*
X103737Y431262D01*
X103736Y431253D01*
X103735Y431249D01*
X103734Y431245D01*
X103734Y431240D01*
X103733Y431236D01*
X103732Y431232D01*
X103732Y431228D01*
X103731Y431223D01*
X103730Y431219D01*
X103730Y431215D01*
X103729Y431211D01*
X103728Y431206D01*
X103727Y431198D01*
X103726Y431189D01*
X103725Y431185D01*
X103724Y431181D01*
X103724Y431177D01*
X103723Y431172D01*
X103722Y431168D01*
X103722Y431164D01*
X103721Y431160D01*
X103720Y431155D01*
X103720Y431151D01*
X103718Y431143D01*
X103717Y431134D01*
X103716Y431130D01*
X103716Y431126D01*
X103715Y431121D01*
X103714Y431117D01*
X103714Y431113D01*
X103713Y431109D01*
X103712Y431104D01*
X103712Y431100D01*
X103711Y431096D01*
X103710Y431092D01*
X103710Y431087D01*
X103708Y431079D01*
X103708Y431075D01*
X103707Y431075D01*
X103708Y431075D01*
X103707Y431070D01*
X103706Y431066D01*
X103706Y431062D01*
X103705Y431062D01*
X103706Y431062D01*
X103705Y431058D01*
X103704Y431053D01*
X103703Y431049D01*
X103703Y431045D01*
X103702Y431041D01*
X103701Y431036D01*
X103701Y431032D01*
X103699Y431024D01*
X103698Y431015D01*
X103697Y431011D01*
X103697Y431007D01*
X103696Y431002D01*
X103696Y431001D01*
X103696Y431000D01*
X103696Y430000D01*
X103696Y429999D01*
X103745Y429690D01*
X103745Y429689D01*
X103887Y429410D01*
X103888Y429410D01*
X103888Y429409D01*
X104109Y429188D01*
X104110Y429188D01*
X104110Y429187D01*
X104389Y429045D01*
X104390Y429045D01*
X104699Y428996D01*
X104700Y428996D01*
X109700Y428996D01*
X109700Y428996D01*
G37*
G36*
X79700Y424996D02*
X79700Y424996D01*
X79701Y424996D01*
X80010Y425045D01*
X80011Y425045D01*
X80290Y425187D01*
X80290Y425188D01*
X80291Y425188D01*
X80512Y425409D01*
X80512Y425410D01*
X80513Y425410D01*
X80655Y425689D01*
X80655Y425690D01*
X80656Y425692D01*
X80656Y425696D01*
X80656Y425697D01*
X80657Y425701D01*
X80658Y425705D01*
X80658Y425709D01*
X80659Y425713D01*
X80659Y425714D01*
X80660Y425718D01*
X80660Y425722D01*
X80661Y425726D01*
X80662Y425730D01*
X80662Y425735D01*
X80664Y425743D01*
X80664Y425747D01*
X80664Y425748D01*
X80665Y425752D01*
X80666Y425756D01*
X80666Y425760D01*
X80667Y425764D01*
X80667Y425765D01*
X80668Y425769D01*
X80668Y425773D01*
X80669Y425777D01*
X80670Y425781D01*
X80670Y425782D01*
X80670Y425786D01*
X80671Y425790D01*
X80672Y425798D01*
X80672Y425799D01*
X80674Y425807D01*
X80674Y425811D01*
X80675Y425815D01*
X80675Y425816D01*
X80676Y425820D01*
X80676Y425824D01*
X80677Y425828D01*
X80678Y425832D01*
X80678Y425833D01*
X80678Y425837D01*
X80679Y425841D01*
X80680Y425845D01*
X80681Y425854D01*
X80682Y425862D01*
X80683Y425862D01*
X80682Y425862D01*
X80683Y425866D01*
X80683Y425867D01*
X80684Y425871D01*
X80685Y425875D01*
X80685Y425879D01*
X80686Y425883D01*
X80686Y425884D01*
X80687Y425888D01*
X80687Y425892D01*
X80688Y425896D01*
X80689Y425900D01*
X80689Y425901D01*
X80689Y425905D01*
X80690Y425909D01*
X80691Y425917D01*
X80691Y425918D01*
X80692Y425922D01*
X80693Y425926D01*
X80693Y425930D01*
X80694Y425934D01*
X80694Y425935D01*
X80695Y425939D01*
X80695Y425943D01*
X80696Y425947D01*
X80697Y425951D01*
X80697Y425952D01*
X80697Y425956D01*
X80698Y425960D01*
X80699Y425964D01*
X80700Y425973D01*
X80701Y425981D01*
X80702Y425985D01*
X80702Y425986D01*
X80703Y425990D01*
X80703Y425994D01*
X80704Y425998D01*
X80704Y425999D01*
X80704Y426000D01*
X80704Y427000D01*
X80704Y427001D01*
X80655Y427310D01*
X80655Y427311D01*
X80513Y427590D01*
X80512Y427590D01*
X80512Y427591D01*
X80291Y427812D01*
X80290Y427812D01*
X80290Y427813D01*
X80011Y427955D01*
X80010Y427955D01*
X79701Y428004D01*
X79700Y428004D01*
X74700Y428004D01*
X74699Y428004D01*
X74390Y427955D01*
X74389Y427955D01*
X74110Y427813D01*
X74110Y427812D01*
X74109Y427812D01*
X73888Y427591D01*
X73888Y427590D01*
X73887Y427590D01*
X73745Y427311D01*
X73745Y427310D01*
X73745Y427308D01*
X73744Y427304D01*
X73743Y427300D01*
X73743Y427296D01*
X73742Y427296D01*
X73743Y427296D01*
X73742Y427291D01*
X73741Y427287D01*
X73741Y427283D01*
X73740Y427283D01*
X73741Y427283D01*
X73740Y427279D01*
X73739Y427274D01*
X73738Y427270D01*
X73738Y427266D01*
X73737Y427262D01*
X73736Y427253D01*
X73735Y427249D01*
X73734Y427245D01*
X73734Y427240D01*
X73733Y427236D01*
X73732Y427232D01*
X73732Y427228D01*
X73731Y427223D01*
X73730Y427219D01*
X73730Y427215D01*
X73729Y427211D01*
X73728Y427206D01*
X73727Y427198D01*
X73726Y427189D01*
X73725Y427185D01*
X73724Y427181D01*
X73724Y427177D01*
X73723Y427172D01*
X73722Y427168D01*
X73722Y427164D01*
X73721Y427160D01*
X73720Y427155D01*
X73720Y427151D01*
X73718Y427143D01*
X73717Y427134D01*
X73716Y427130D01*
X73716Y427126D01*
X73715Y427121D01*
X73714Y427117D01*
X73714Y427113D01*
X73713Y427109D01*
X73712Y427104D01*
X73712Y427100D01*
X73711Y427096D01*
X73710Y427092D01*
X73710Y427087D01*
X73708Y427079D01*
X73708Y427075D01*
X73707Y427075D01*
X73708Y427075D01*
X73707Y427070D01*
X73706Y427066D01*
X73706Y427062D01*
X73705Y427062D01*
X73706Y427062D01*
X73705Y427058D01*
X73704Y427053D01*
X73703Y427049D01*
X73703Y427045D01*
X73702Y427041D01*
X73701Y427036D01*
X73701Y427032D01*
X73699Y427024D01*
X73698Y427015D01*
X73697Y427011D01*
X73697Y427007D01*
X73696Y427002D01*
X73696Y427001D01*
X73696Y427000D01*
X73696Y426000D01*
X73696Y425999D01*
X73745Y425690D01*
X73745Y425689D01*
X73887Y425410D01*
X73888Y425410D01*
X73888Y425409D01*
X74109Y425188D01*
X74110Y425188D01*
X74110Y425187D01*
X74389Y425045D01*
X74390Y425045D01*
X74699Y424996D01*
X74700Y424996D01*
X79700Y424996D01*
X79700Y424996D01*
G37*
G36*
X109700Y424996D02*
X109700Y424996D01*
X109701Y424996D01*
X110010Y425045D01*
X110011Y425045D01*
X110290Y425187D01*
X110290Y425188D01*
X110291Y425188D01*
X110512Y425409D01*
X110512Y425410D01*
X110513Y425410D01*
X110655Y425689D01*
X110655Y425690D01*
X110656Y425692D01*
X110656Y425696D01*
X110656Y425697D01*
X110657Y425701D01*
X110658Y425705D01*
X110658Y425709D01*
X110659Y425713D01*
X110659Y425714D01*
X110660Y425718D01*
X110660Y425722D01*
X110661Y425726D01*
X110662Y425730D01*
X110662Y425735D01*
X110664Y425743D01*
X110664Y425747D01*
X110664Y425748D01*
X110665Y425752D01*
X110666Y425756D01*
X110666Y425760D01*
X110667Y425764D01*
X110667Y425765D01*
X110668Y425769D01*
X110668Y425773D01*
X110669Y425777D01*
X110670Y425781D01*
X110670Y425782D01*
X110670Y425786D01*
X110671Y425790D01*
X110672Y425798D01*
X110672Y425799D01*
X110674Y425807D01*
X110674Y425811D01*
X110675Y425815D01*
X110675Y425816D01*
X110676Y425820D01*
X110676Y425824D01*
X110677Y425828D01*
X110678Y425832D01*
X110678Y425833D01*
X110678Y425837D01*
X110679Y425841D01*
X110680Y425845D01*
X110681Y425854D01*
X110682Y425862D01*
X110683Y425862D01*
X110682Y425862D01*
X110683Y425866D01*
X110683Y425867D01*
X110684Y425871D01*
X110685Y425875D01*
X110685Y425879D01*
X110686Y425883D01*
X110686Y425884D01*
X110687Y425888D01*
X110687Y425892D01*
X110688Y425896D01*
X110689Y425900D01*
X110689Y425901D01*
X110689Y425905D01*
X110690Y425909D01*
X110691Y425917D01*
X110691Y425918D01*
X110692Y425922D01*
X110693Y425926D01*
X110693Y425930D01*
X110694Y425934D01*
X110694Y425935D01*
X110695Y425939D01*
X110695Y425943D01*
X110696Y425947D01*
X110697Y425951D01*
X110697Y425952D01*
X110697Y425956D01*
X110698Y425960D01*
X110699Y425964D01*
X110700Y425973D01*
X110701Y425981D01*
X110702Y425985D01*
X110702Y425986D01*
X110703Y425990D01*
X110703Y425994D01*
X110704Y425998D01*
X110704Y425999D01*
X110704Y426000D01*
X110704Y427000D01*
X110704Y427001D01*
X110655Y427310D01*
X110655Y427311D01*
X110513Y427590D01*
X110512Y427590D01*
X110512Y427591D01*
X110291Y427812D01*
X110290Y427812D01*
X110290Y427813D01*
X110011Y427955D01*
X110010Y427955D01*
X109701Y428004D01*
X109700Y428004D01*
X104700Y428004D01*
X104699Y428004D01*
X104390Y427955D01*
X104389Y427955D01*
X104110Y427813D01*
X104110Y427812D01*
X104109Y427812D01*
X103888Y427591D01*
X103888Y427590D01*
X103887Y427590D01*
X103745Y427311D01*
X103745Y427310D01*
X103745Y427308D01*
X103744Y427304D01*
X103743Y427300D01*
X103743Y427296D01*
X103742Y427296D01*
X103743Y427296D01*
X103742Y427291D01*
X103741Y427287D01*
X103741Y427283D01*
X103740Y427283D01*
X103741Y427283D01*
X103740Y427279D01*
X103739Y427274D01*
X103738Y427270D01*
X103738Y427266D01*
X103737Y427262D01*
X103736Y427253D01*
X103735Y427249D01*
X103734Y427245D01*
X103734Y427240D01*
X103733Y427236D01*
X103732Y427232D01*
X103732Y427228D01*
X103731Y427223D01*
X103730Y427219D01*
X103730Y427215D01*
X103729Y427211D01*
X103728Y427206D01*
X103727Y427198D01*
X103726Y427189D01*
X103725Y427185D01*
X103724Y427181D01*
X103724Y427177D01*
X103723Y427172D01*
X103722Y427168D01*
X103722Y427164D01*
X103721Y427160D01*
X103720Y427155D01*
X103720Y427151D01*
X103718Y427143D01*
X103717Y427134D01*
X103716Y427130D01*
X103716Y427126D01*
X103715Y427121D01*
X103714Y427117D01*
X103714Y427113D01*
X103713Y427109D01*
X103712Y427104D01*
X103712Y427100D01*
X103711Y427096D01*
X103710Y427092D01*
X103710Y427087D01*
X103708Y427079D01*
X103708Y427075D01*
X103707Y427075D01*
X103708Y427075D01*
X103707Y427070D01*
X103706Y427066D01*
X103706Y427062D01*
X103705Y427062D01*
X103706Y427062D01*
X103705Y427058D01*
X103704Y427053D01*
X103703Y427049D01*
X103703Y427045D01*
X103702Y427041D01*
X103701Y427036D01*
X103701Y427032D01*
X103699Y427024D01*
X103698Y427015D01*
X103697Y427011D01*
X103697Y427007D01*
X103696Y427002D01*
X103696Y427001D01*
X103696Y427000D01*
X103696Y426000D01*
X103696Y425999D01*
X103745Y425690D01*
X103745Y425689D01*
X103887Y425410D01*
X103888Y425410D01*
X103888Y425409D01*
X104109Y425188D01*
X104110Y425188D01*
X104110Y425187D01*
X104389Y425045D01*
X104390Y425045D01*
X104699Y424996D01*
X104700Y424996D01*
X109700Y424996D01*
X109700Y424996D01*
G37*
G36*
X102700Y413996D02*
X102700Y413996D01*
X102701Y413996D01*
X103010Y414045D01*
X103011Y414045D01*
X103290Y414187D01*
X103290Y414188D01*
X103291Y414188D01*
X103512Y414409D01*
X103512Y414410D01*
X103513Y414410D01*
X103655Y414689D01*
X103655Y414690D01*
X103704Y414999D01*
X103704Y415000D01*
X103704Y418000D01*
X103703Y418002D01*
X103703Y418003D01*
X100703Y421003D01*
X100702Y421003D01*
X100701Y421004D01*
X100700Y421004D01*
X100699Y421003D01*
X100697Y421003D01*
X100697Y421002D01*
X100696Y421000D01*
X100696Y414500D01*
X100696Y414499D01*
X100734Y414308D01*
X100735Y414307D01*
X100735Y414306D01*
X100843Y414144D01*
X100844Y414144D01*
X100844Y414143D01*
X101006Y414035D01*
X101007Y414035D01*
X101008Y414034D01*
X101199Y413996D01*
X101200Y413996D01*
X102700Y413996D01*
X102700Y413996D01*
G37*
G36*
X83701Y443997D02*
X83701Y443997D01*
X83703Y443997D01*
X83703Y443999D01*
X83704Y444000D01*
X83704Y450500D01*
X83704Y450501D01*
X83666Y450692D01*
X83665Y450693D01*
X83665Y450694D01*
X83557Y450856D01*
X83556Y450856D01*
X83556Y450857D01*
X83394Y450965D01*
X83393Y450965D01*
X83392Y450966D01*
X83201Y451004D01*
X83200Y451004D01*
X81700Y451004D01*
X81699Y451004D01*
X81390Y450955D01*
X81389Y450955D01*
X81110Y450813D01*
X81110Y450812D01*
X81109Y450812D01*
X80888Y450591D01*
X80888Y450590D01*
X80887Y450590D01*
X80745Y450311D01*
X80745Y450310D01*
X80696Y450001D01*
X80696Y450000D01*
X80696Y447000D01*
X80697Y446998D01*
X80697Y446997D01*
X83697Y443997D01*
X83698Y443997D01*
X83699Y443996D01*
X83701Y443997D01*
G37*
G36*
X110200Y440996D02*
X110200Y440996D01*
X110201Y440996D01*
X110392Y441034D01*
X110393Y441035D01*
X110394Y441035D01*
X110556Y441143D01*
X110556Y441144D01*
X110557Y441144D01*
X110665Y441306D01*
X110665Y441307D01*
X110666Y441308D01*
X110704Y441499D01*
X110704Y441500D01*
X110704Y443000D01*
X110704Y443001D01*
X110655Y443310D01*
X110655Y443311D01*
X110513Y443590D01*
X110512Y443590D01*
X110512Y443591D01*
X110291Y443812D01*
X110290Y443812D01*
X110290Y443813D01*
X110011Y443955D01*
X110010Y443955D01*
X109701Y444004D01*
X109700Y444004D01*
X106700Y444004D01*
X106698Y444003D01*
X106697Y444003D01*
X103697Y441003D01*
X103697Y441002D01*
X103696Y441001D01*
X103697Y440999D01*
X103697Y440997D01*
X103699Y440997D01*
X103700Y440996D01*
X110200Y440996D01*
X110200Y440996D01*
G37*
G36*
X77702Y420997D02*
X77702Y420997D01*
X77703Y420997D01*
X80703Y423997D01*
X80703Y423998D01*
X80704Y423999D01*
X80703Y424001D01*
X80703Y424003D01*
X80701Y424003D01*
X80700Y424004D01*
X74200Y424004D01*
X74199Y424004D01*
X74008Y423966D01*
X74007Y423965D01*
X74006Y423965D01*
X73844Y423857D01*
X73844Y423856D01*
X73843Y423856D01*
X73735Y423694D01*
X73735Y423693D01*
X73734Y423692D01*
X73696Y423501D01*
X73696Y423500D01*
X73696Y422000D01*
X73696Y421999D01*
X73745Y421690D01*
X73745Y421689D01*
X73887Y421410D01*
X73888Y421410D01*
X73888Y421409D01*
X74109Y421188D01*
X74110Y421188D01*
X74110Y421187D01*
X74389Y421045D01*
X74390Y421045D01*
X74699Y420996D01*
X74700Y420996D01*
X77700Y420996D01*
X77702Y420997D01*
G37*
G36*
X82700Y413996D02*
X82700Y413996D01*
X82701Y413996D01*
X83010Y414045D01*
X83011Y414045D01*
X83290Y414187D01*
X83290Y414188D01*
X83291Y414188D01*
X83512Y414409D01*
X83512Y414410D01*
X83513Y414410D01*
X83655Y414689D01*
X83655Y414690D01*
X83656Y414692D01*
X83656Y414696D01*
X83656Y414697D01*
X83657Y414701D01*
X83658Y414705D01*
X83658Y414709D01*
X83659Y414713D01*
X83659Y414714D01*
X83660Y414718D01*
X83660Y414722D01*
X83661Y414726D01*
X83662Y414730D01*
X83662Y414735D01*
X83664Y414743D01*
X83664Y414747D01*
X83664Y414748D01*
X83665Y414752D01*
X83666Y414756D01*
X83666Y414760D01*
X83667Y414764D01*
X83667Y414765D01*
X83668Y414769D01*
X83668Y414773D01*
X83669Y414777D01*
X83670Y414781D01*
X83670Y414782D01*
X83670Y414786D01*
X83671Y414790D01*
X83672Y414798D01*
X83672Y414799D01*
X83674Y414807D01*
X83674Y414811D01*
X83675Y414815D01*
X83675Y414816D01*
X83676Y414820D01*
X83676Y414824D01*
X83677Y414828D01*
X83678Y414832D01*
X83678Y414833D01*
X83678Y414837D01*
X83679Y414841D01*
X83680Y414845D01*
X83681Y414854D01*
X83682Y414862D01*
X83683Y414862D01*
X83682Y414862D01*
X83683Y414866D01*
X83683Y414867D01*
X83684Y414871D01*
X83685Y414875D01*
X83685Y414879D01*
X83686Y414883D01*
X83686Y414884D01*
X83687Y414888D01*
X83687Y414892D01*
X83688Y414896D01*
X83689Y414900D01*
X83689Y414901D01*
X83689Y414905D01*
X83690Y414909D01*
X83691Y414917D01*
X83691Y414918D01*
X83692Y414922D01*
X83693Y414926D01*
X83693Y414930D01*
X83694Y414934D01*
X83694Y414935D01*
X83695Y414939D01*
X83695Y414943D01*
X83696Y414947D01*
X83697Y414951D01*
X83697Y414952D01*
X83697Y414956D01*
X83698Y414960D01*
X83699Y414964D01*
X83700Y414973D01*
X83701Y414981D01*
X83702Y414985D01*
X83702Y414986D01*
X83703Y414990D01*
X83703Y414994D01*
X83704Y414998D01*
X83704Y414999D01*
X83704Y415000D01*
X83704Y421000D01*
X83703Y421001D01*
X83703Y421003D01*
X83702Y421003D01*
X83701Y421004D01*
X83700Y421004D01*
X83699Y421003D01*
X83697Y421003D01*
X80697Y418003D01*
X80697Y418001D01*
X80696Y418000D01*
X80696Y415000D01*
X80696Y414999D01*
X80745Y414690D01*
X80745Y414689D01*
X80887Y414410D01*
X80888Y414410D01*
X80888Y414409D01*
X81109Y414188D01*
X81110Y414188D01*
X81110Y414187D01*
X81389Y414045D01*
X81390Y414045D01*
X81699Y413996D01*
X81700Y413996D01*
X82700Y413996D01*
X82700Y413996D01*
G37*
G36*
X100701Y443997D02*
X100701Y443997D01*
X100703Y443997D01*
X103703Y446997D01*
X103703Y446999D01*
X103704Y447000D01*
X103704Y450000D01*
X103704Y450001D01*
X103655Y450310D01*
X103655Y450311D01*
X103513Y450590D01*
X103512Y450590D01*
X103512Y450591D01*
X103291Y450812D01*
X103290Y450812D01*
X103290Y450813D01*
X103011Y450955D01*
X103010Y450955D01*
X102701Y451004D01*
X102700Y451004D01*
X101700Y451004D01*
X101699Y451004D01*
X101390Y450955D01*
X101389Y450955D01*
X101110Y450813D01*
X101110Y450812D01*
X101109Y450812D01*
X100888Y450591D01*
X100888Y450590D01*
X100887Y450590D01*
X100745Y450311D01*
X100745Y450310D01*
X100744Y450308D01*
X100744Y450303D01*
X100743Y450299D01*
X100742Y450291D01*
X100740Y450282D01*
X100740Y450278D01*
X100739Y450274D01*
X100738Y450269D01*
X100738Y450265D01*
X100737Y450261D01*
X100736Y450257D01*
X100736Y450252D01*
X100735Y450248D01*
X100734Y450244D01*
X100733Y450235D01*
X100732Y450227D01*
X100731Y450223D01*
X100730Y450218D01*
X100730Y450214D01*
X100729Y450210D01*
X100728Y450206D01*
X100728Y450201D01*
X100727Y450197D01*
X100726Y450193D01*
X100726Y450189D01*
X100725Y450184D01*
X100724Y450180D01*
X100723Y450172D01*
X100722Y450167D01*
X100722Y450163D01*
X100721Y450159D01*
X100720Y450155D01*
X100720Y450150D01*
X100719Y450150D01*
X100720Y450150D01*
X100719Y450146D01*
X100718Y450142D01*
X100718Y450138D01*
X100717Y450138D01*
X100718Y450138D01*
X100717Y450133D01*
X100716Y450129D01*
X100715Y450125D01*
X100714Y450116D01*
X100713Y450108D01*
X100712Y450104D01*
X100711Y450099D01*
X100711Y450095D01*
X100710Y450091D01*
X100709Y450087D01*
X100709Y450082D01*
X100708Y450078D01*
X100707Y450074D01*
X100707Y450070D01*
X100705Y450061D01*
X100704Y450053D01*
X100703Y450048D01*
X100703Y450044D01*
X100702Y450040D01*
X100701Y450036D01*
X100701Y450031D01*
X100700Y450027D01*
X100699Y450023D01*
X100699Y450019D01*
X100698Y450014D01*
X100697Y450010D01*
X100697Y450006D01*
X100696Y450001D01*
X100696Y450000D01*
X100696Y444000D01*
X100697Y443999D01*
X100697Y443997D01*
X100698Y443997D01*
X100699Y443996D01*
X100701Y443997D01*
G37*
G36*
X109700Y420996D02*
X109700Y420996D01*
X109701Y420996D01*
X110010Y421045D01*
X110011Y421045D01*
X110290Y421187D01*
X110290Y421188D01*
X110291Y421188D01*
X110512Y421409D01*
X110512Y421410D01*
X110513Y421410D01*
X110655Y421689D01*
X110655Y421690D01*
X110656Y421692D01*
X110656Y421696D01*
X110656Y421697D01*
X110657Y421701D01*
X110658Y421705D01*
X110658Y421709D01*
X110659Y421713D01*
X110659Y421714D01*
X110660Y421718D01*
X110660Y421722D01*
X110661Y421726D01*
X110662Y421730D01*
X110662Y421735D01*
X110664Y421743D01*
X110664Y421747D01*
X110664Y421748D01*
X110665Y421752D01*
X110666Y421756D01*
X110666Y421760D01*
X110667Y421764D01*
X110667Y421765D01*
X110668Y421769D01*
X110668Y421773D01*
X110669Y421777D01*
X110670Y421781D01*
X110670Y421782D01*
X110670Y421786D01*
X110671Y421790D01*
X110672Y421798D01*
X110672Y421799D01*
X110674Y421807D01*
X110674Y421811D01*
X110675Y421815D01*
X110675Y421816D01*
X110676Y421820D01*
X110676Y421824D01*
X110677Y421828D01*
X110678Y421832D01*
X110678Y421833D01*
X110678Y421837D01*
X110679Y421841D01*
X110680Y421845D01*
X110681Y421854D01*
X110682Y421862D01*
X110683Y421862D01*
X110682Y421862D01*
X110683Y421866D01*
X110683Y421867D01*
X110684Y421871D01*
X110685Y421875D01*
X110685Y421879D01*
X110686Y421883D01*
X110686Y421884D01*
X110687Y421888D01*
X110687Y421892D01*
X110688Y421896D01*
X110689Y421900D01*
X110689Y421901D01*
X110689Y421905D01*
X110690Y421909D01*
X110691Y421917D01*
X110691Y421918D01*
X110692Y421922D01*
X110693Y421926D01*
X110693Y421930D01*
X110694Y421934D01*
X110694Y421935D01*
X110695Y421939D01*
X110695Y421943D01*
X110696Y421947D01*
X110697Y421951D01*
X110697Y421952D01*
X110697Y421956D01*
X110698Y421960D01*
X110699Y421964D01*
X110700Y421973D01*
X110701Y421981D01*
X110702Y421985D01*
X110702Y421986D01*
X110703Y421990D01*
X110703Y421994D01*
X110704Y421998D01*
X110704Y421999D01*
X110704Y422000D01*
X110704Y423000D01*
X110704Y423001D01*
X110655Y423310D01*
X110655Y423311D01*
X110513Y423590D01*
X110512Y423590D01*
X110512Y423591D01*
X110291Y423812D01*
X110290Y423812D01*
X110290Y423813D01*
X110011Y423955D01*
X110010Y423955D01*
X109701Y424004D01*
X109700Y424004D01*
X103700Y424004D01*
X103699Y424003D01*
X103697Y424003D01*
X103697Y424002D01*
X103696Y424001D01*
X103697Y423999D01*
X103697Y423997D01*
X106697Y420997D01*
X106699Y420997D01*
X106700Y420996D01*
X109700Y420996D01*
X109700Y420996D01*
G37*
G36*
X80701Y440997D02*
X80701Y440997D01*
X80703Y440997D01*
X80703Y440998D01*
X80704Y440999D01*
X80703Y441001D01*
X80703Y441003D01*
X77703Y444003D01*
X77701Y444003D01*
X77700Y444004D01*
X74700Y444004D01*
X74699Y444004D01*
X74390Y443955D01*
X74389Y443955D01*
X74110Y443813D01*
X74110Y443812D01*
X74109Y443812D01*
X73888Y443591D01*
X73888Y443590D01*
X73887Y443590D01*
X73745Y443311D01*
X73745Y443310D01*
X73745Y443308D01*
X73744Y443304D01*
X73743Y443300D01*
X73743Y443296D01*
X73742Y443296D01*
X73743Y443296D01*
X73742Y443291D01*
X73741Y443287D01*
X73741Y443283D01*
X73740Y443283D01*
X73741Y443283D01*
X73740Y443279D01*
X73739Y443274D01*
X73738Y443270D01*
X73738Y443266D01*
X73737Y443262D01*
X73736Y443253D01*
X73735Y443249D01*
X73734Y443245D01*
X73734Y443240D01*
X73733Y443236D01*
X73732Y443232D01*
X73732Y443228D01*
X73731Y443223D01*
X73730Y443219D01*
X73730Y443215D01*
X73729Y443211D01*
X73728Y443206D01*
X73727Y443198D01*
X73726Y443189D01*
X73725Y443185D01*
X73724Y443181D01*
X73724Y443177D01*
X73723Y443172D01*
X73722Y443168D01*
X73722Y443164D01*
X73721Y443160D01*
X73720Y443155D01*
X73720Y443151D01*
X73718Y443143D01*
X73717Y443134D01*
X73716Y443130D01*
X73716Y443126D01*
X73715Y443121D01*
X73714Y443117D01*
X73714Y443113D01*
X73713Y443109D01*
X73712Y443104D01*
X73712Y443100D01*
X73711Y443096D01*
X73710Y443092D01*
X73710Y443087D01*
X73708Y443079D01*
X73708Y443075D01*
X73707Y443075D01*
X73708Y443075D01*
X73707Y443070D01*
X73706Y443066D01*
X73706Y443062D01*
X73705Y443062D01*
X73706Y443062D01*
X73705Y443058D01*
X73704Y443053D01*
X73703Y443049D01*
X73703Y443045D01*
X73702Y443041D01*
X73701Y443036D01*
X73701Y443032D01*
X73699Y443024D01*
X73698Y443015D01*
X73697Y443011D01*
X73697Y443007D01*
X73696Y443002D01*
X73696Y443001D01*
X73696Y443000D01*
X73696Y442000D01*
X73696Y441999D01*
X73745Y441690D01*
X73745Y441689D01*
X73887Y441410D01*
X73888Y441410D01*
X73888Y441409D01*
X74109Y441188D01*
X74110Y441188D01*
X74110Y441187D01*
X74389Y441045D01*
X74390Y441045D01*
X74699Y440996D01*
X74700Y440996D01*
X80700Y440996D01*
X80701Y440997D01*
G37*
D10*
X412360Y162430D03*
X402860Y182750D03*
X421860Y182750D03*
D11*
X42926Y439924D03*
X42926Y449924D03*
X31426Y444924D03*
D12*
X205646Y657454D03*
X205646Y638454D03*
X226646Y647954D03*
D10*
X466208Y158366D03*
X456708Y178686D03*
X475708Y178686D03*
D13*
X251507Y723798D03*
X251507Y733298D03*
X251507Y742798D03*
X225505Y742798D03*
X225505Y723798D03*
D14*
X462238Y485722D03*
X449538Y485722D03*
X436838Y485722D03*
X424138Y485722D03*
X411438Y485722D03*
X398738Y485722D03*
X386038Y485722D03*
X373338Y485722D03*
X360638Y485722D03*
X347938Y485722D03*
X335238Y485722D03*
X322538Y485722D03*
X309838Y485722D03*
X297138Y485722D03*
D15*
X282238Y452872D03*
X282238Y440172D03*
X282238Y427472D03*
X282238Y414772D03*
X282238Y402072D03*
X282238Y389372D03*
X282238Y376672D03*
X282238Y363972D03*
X282238Y351272D03*
X282238Y338572D03*
D14*
X297138Y305722D03*
X309838Y305722D03*
X322538Y305722D03*
X335238Y305722D03*
X347938Y305722D03*
X360638Y305722D03*
X373338Y305722D03*
X386038Y305722D03*
X398738Y305722D03*
X411438Y305722D03*
X424138Y305722D03*
X436838Y305722D03*
X449538Y305722D03*
X462238Y305722D03*
D16*
X385238Y395722D03*
D17*
X56564Y450178D03*
X56564Y440178D03*
D18*
X32768Y463720D03*
X42768Y463720D03*
D11*
X146402Y405474D03*
X146402Y395474D03*
X157902Y400474D03*
D17*
X134034Y395728D03*
X134034Y405728D03*
X171118Y399886D03*
X171118Y389886D03*
D19*
X82900Y386328D03*
X72900Y386328D03*
X77900Y374828D03*
D18*
X72900Y398188D03*
X82900Y398188D03*
D17*
X94410Y374994D03*
X94410Y364994D03*
D11*
X43180Y403856D03*
X43180Y413856D03*
X31680Y408856D03*
D17*
X55294Y413856D03*
X55294Y403856D03*
D18*
X30482Y389044D03*
X40482Y389044D03*
D11*
X142592Y459576D03*
X142592Y449576D03*
X154092Y454576D03*
D17*
X130224Y449830D03*
X130224Y459830D03*
X178484Y454750D03*
X178484Y444750D03*
D19*
X105666Y477866D03*
X115666Y477866D03*
X110666Y489366D03*
D18*
X115666Y463466D03*
X105666Y463466D03*
X109824Y504360D03*
X99824Y504360D03*
D20*
X410346Y240538D03*
X427346Y240538D03*
X384692Y208026D03*
X401692Y208026D03*
D21*
X195326Y741290D03*
X195326Y724290D03*
D17*
X173482Y666162D03*
X173482Y656162D03*
X236384Y558188D03*
X236384Y568188D03*
D20*
X340360Y159382D03*
X357360Y159382D03*
D21*
X338706Y51308D03*
X338706Y34308D03*
D20*
X142494Y569858D03*
X142494Y586858D03*
X160274Y721496D03*
X160274Y738496D03*
D21*
X279264Y696976D03*
X262264Y696976D03*
D20*
X459362Y41148D03*
X459362Y58148D03*
D22*
X433900Y33462D03*
X433900Y72462D03*
X361900Y72462D03*
X361900Y33462D03*
X362644Y140274D03*
X362644Y101274D03*
X434644Y101274D03*
X434644Y140274D03*
D23*
X354212Y630936D03*
X371212Y630936D03*
D24*
X339168Y602132D03*
X339168Y621132D03*
X317168Y621132D03*
X317168Y611632D03*
X317168Y602132D03*
D21*
X361324Y602488D03*
X378324Y602488D03*
X191126Y589534D03*
X174126Y589534D03*
D20*
X293116Y580000D03*
X293116Y563000D03*
X270764Y580762D03*
X270764Y563762D03*
D24*
X271350Y600862D03*
X271350Y619862D03*
X249350Y619862D03*
X249350Y610362D03*
X249350Y600862D03*
X271350Y610362D03*
D18*
X261446Y640842D03*
X271446Y640842D03*
D20*
X216662Y611242D03*
X216662Y594242D03*
X287782Y626228D03*
X287782Y609228D03*
X177410Y696468D03*
X160410Y696468D03*
D25*
X360578Y737080D03*
X360578Y670080D03*
D26*
X316078Y713580D03*
X316078Y693580D03*
D27*
X238030Y131542D03*
X238030Y117542D03*
X238030Y145542D03*
X238030Y159542D03*
X238030Y173542D03*
X238030Y187542D03*
X238030Y201542D03*
X238030Y215542D03*
D28*
X210030Y103542D03*
X196030Y103542D03*
X182030Y103542D03*
X168030Y103542D03*
X154030Y103542D03*
X140030Y103542D03*
X210030Y229542D03*
X196030Y229542D03*
X182030Y229542D03*
X168030Y229542D03*
X154030Y229542D03*
X126030Y229542D03*
X140030Y229542D03*
X126030Y103542D03*
X112030Y103542D03*
X112030Y229542D03*
D29*
X163030Y166542D03*
D20*
X282180Y71862D03*
X282180Y54862D03*
X241554Y71492D03*
X241554Y54492D03*
X219964Y72000D03*
X219964Y55000D03*
D21*
X144297Y46092D03*
X144297Y29092D03*
X121158Y34154D03*
X121158Y17154D03*
X166878Y57268D03*
X166878Y40268D03*
X139192Y285868D03*
X139192Y268868D03*
D30*
X521208Y252984D03*
X521970Y208788D03*
X523748Y165100D03*
X523240Y120142D03*
X523494Y75946D03*
X522986Y31750D03*
X515366Y552196D03*
X515366Y600202D03*
D31*
X42220Y693884D03*
X100020Y693884D03*
D32*
X103120Y683014D03*
X95120Y683014D03*
D33*
X88620Y683014D03*
X83620Y683014D03*
X78620Y683014D03*
X73620Y683014D03*
X68620Y683014D03*
X63620Y683014D03*
X58620Y683014D03*
X53620Y683014D03*
D32*
X47120Y683014D03*
X39120Y683014D03*
D18*
X135302Y670560D03*
X125302Y670560D03*
X31830Y649478D03*
X41830Y649478D03*
D34*
X173533Y618337D03*
X173533Y641097D03*
D20*
X199136Y71898D03*
X199136Y54898D03*
D21*
X444636Y510438D03*
X461636Y510438D03*
D20*
X111150Y402505D03*
X111150Y385505D03*
X90627Y465972D03*
X90627Y482972D03*
D21*
X131505Y434645D03*
X148505Y434645D03*
D35*
X109216Y626468D03*
X109216Y639468D03*
X109216Y632968D03*
X127716Y626468D03*
X127716Y632968D03*
X127716Y639468D03*
D36*
X75450Y591700D03*
X62750Y591700D03*
X75450Y549700D03*
X62750Y549700D03*
X88150Y591700D03*
X50050Y591700D03*
X50050Y549700D03*
X88150Y549700D03*
X100850Y591700D03*
X100850Y549700D03*
X37350Y549700D03*
X37350Y591700D03*
X113550Y549700D03*
X113550Y591700D03*
X24650Y549700D03*
X24650Y591700D03*
D37*
X220020Y696600D03*
X205020Y696600D03*
X200400Y557000D03*
X215400Y557000D03*
D38*
X58928Y478790D03*
X247142Y94964D03*
X116840Y278384D03*
X154432Y256540D03*
X177038Y735212D03*
X264414Y713994D03*
X300736Y742950D03*
X187706Y675386D03*
X394208Y602234D03*
X287528Y596256D03*
X311912Y561848D03*
X144018Y604012D03*
X229108Y229616D03*
X462026Y287020D03*
X453136Y86614D03*
X296418Y726440D03*
X290830Y467360D03*
X26162Y632714D03*
X26162Y614934D03*
X135636Y693166D03*
X261315Y54661D03*
X469392Y530962D03*
X123139Y378562D03*
X164389Y443789D03*
D39*
X180400Y556300D03*
X364000Y419100D03*
X376700Y419200D03*
X388900Y419000D03*
X404700Y418900D03*
X400600Y409300D03*
X384200Y409100D03*
X371300Y409600D03*
X363900Y398900D03*
X378600Y399200D03*
X394000Y399400D03*
X406000Y399200D03*
X399500Y389300D03*
X386600Y388100D03*
X372900Y387900D03*
X365500Y377600D03*
X380100Y377100D03*
X394500Y376800D03*
X405900Y377400D03*
X126300Y200600D03*
X149400Y197200D03*
X176000Y196600D03*
X195300Y195500D03*
X208400Y176100D03*
X188000Y176200D03*
X163700Y174600D03*
X142800Y174900D03*
X127300Y150600D03*
X159900Y153300D03*
X179500Y153500D03*
X203500Y154400D03*
X191000Y134600D03*
X172500Y137200D03*
X148000Y134000D03*
X122900Y131700D03*
X124000Y183500D03*
D38*
X441682Y534006D03*
X449072Y469900D03*
X42672Y478536D03*
X45974Y378968D03*
X156718Y381000D03*
X178816Y428498D03*
X311912Y580644D03*
X340360Y201676D03*
X177546Y716534D03*
X212598Y737768D03*
X68834Y696334D03*
X61192Y574948D03*
D39*
X88900Y626500D03*
D38*
X58674Y645922D03*
X44704Y566928D03*
D39*
X89300Y639300D03*
X140100Y639300D03*
D38*
X130810Y503428D03*
X138938Y473710D03*
X76200Y467614D03*
X55880Y428752D03*
X59436Y389890D03*
X96012Y397764D03*
X150622Y419862D03*
X447040Y444500D03*
X485394Y221488D03*
X299498Y446278D03*
X103170Y608130D03*
X299498Y430022D03*
X87114Y608152D03*
X88039Y522323D03*
X263652Y243332D03*
X461518Y223774D03*
X447548Y198628D03*
X65532Y513080D03*
X243840Y242570D03*
X311912Y185166D03*
X373696Y465774D03*
X322710Y197358D03*
X359918Y456438D03*
X298196Y196342D03*
X321594Y454946D03*
X220472Y331470D03*
X221996Y450088D03*
X389890Y513842D03*
X269240Y513080D03*
X309880Y289052D03*
X359664Y351282D03*
X322834Y276860D03*
X372322Y321978D03*
X347472Y276860D03*
X346922Y321978D03*
X265938Y365506D03*
X310134Y467868D03*
X165862Y72390D03*
X345440Y362204D03*
X221234Y313944D03*
X386842Y455930D03*
X268224Y90424D03*
X267716Y215646D03*
X358394Y218186D03*
X272542Y313182D03*
X305308Y627888D03*
X247618Y633984D03*
X303784Y598932D03*
X233172Y606806D03*
X406400Y337058D03*
X413004Y265684D03*
X446786Y325628D03*
X434086Y278130D03*
X283718Y499110D03*
X424180Y469138D03*
X411734Y512826D03*
X286766Y527050D03*
X453071Y238063D03*
X431292Y199898D03*
X257588Y165608D03*
X485394Y146558D03*
X257588Y149352D03*
X487680Y118110D03*
X257588Y133096D03*
X489966Y70104D03*
X257588Y107696D03*
X487934Y29718D03*
X85009Y658287D03*
X111760Y664210D03*
M02*
