G04 EAGLE Gerber RS-274X export*
G75*
%MOMM*%
%FSLAX34Y34*%
%LPD*%
%INSoldermask Bottom*%
%IPPOS*%
%AMOC8*
5,1,8,0,0,1.08239X$1,22.5*%
G01*
%ADD10C,4.235200*%
%ADD11C,0.803200*%
%ADD12C,0.660400*%
%ADD13C,0.728200*%


D10*
X521208Y252984D03*
X521970Y208788D03*
X523748Y165100D03*
X523240Y120142D03*
X523494Y75946D03*
X522986Y31750D03*
X515366Y552196D03*
X515366Y600202D03*
D11*
X42220Y693884D03*
X100020Y693884D03*
D12*
X58928Y478790D03*
X247142Y94964D03*
X116840Y278384D03*
X154432Y256540D03*
X177038Y735212D03*
X264414Y713994D03*
X300736Y742950D03*
X187706Y675386D03*
X394208Y602234D03*
X287528Y596256D03*
X311912Y561848D03*
X144018Y604012D03*
X229108Y229616D03*
X462026Y287020D03*
X453136Y86614D03*
X296418Y726440D03*
X290830Y467360D03*
X26162Y632714D03*
X26162Y614934D03*
X135636Y693166D03*
X261315Y54661D03*
X469392Y530962D03*
X123139Y378562D03*
X164389Y443789D03*
D13*
X180400Y556300D03*
X364000Y419100D03*
X376700Y419200D03*
X388900Y419000D03*
X404700Y418900D03*
X400600Y409300D03*
X384200Y409100D03*
X371300Y409600D03*
X363900Y398900D03*
X378600Y399200D03*
X394000Y399400D03*
X406000Y399200D03*
X399500Y389300D03*
X386600Y388100D03*
X372900Y387900D03*
X365500Y377600D03*
X380100Y377100D03*
X394500Y376800D03*
X405900Y377400D03*
X126300Y200600D03*
X149400Y197200D03*
X176000Y196600D03*
X195300Y195500D03*
X208400Y176100D03*
X188000Y176200D03*
X163700Y174600D03*
X142800Y174900D03*
X127300Y150600D03*
X159900Y153300D03*
X179500Y153500D03*
X203500Y154400D03*
X191000Y134600D03*
X172500Y137200D03*
X148000Y134000D03*
X122900Y131700D03*
X124000Y183500D03*
D12*
X441682Y534006D03*
X449072Y469900D03*
X42672Y478536D03*
X45974Y378968D03*
X156718Y381000D03*
X178816Y428498D03*
X311912Y580644D03*
X340360Y201676D03*
X177546Y716534D03*
X212598Y737768D03*
X68834Y696334D03*
X61192Y574948D03*
D13*
X88900Y626500D03*
D12*
X58674Y645922D03*
X44704Y566928D03*
D13*
X89300Y639300D03*
X140100Y639300D03*
D12*
X130810Y503428D03*
X138938Y473710D03*
X76200Y467614D03*
X55880Y428752D03*
X59436Y389890D03*
X96012Y397764D03*
X150622Y419862D03*
X447040Y444500D03*
X485394Y221488D03*
X299498Y446278D03*
X103170Y608130D03*
X299498Y430022D03*
X87114Y608152D03*
X88039Y522323D03*
X263652Y243332D03*
X461518Y223774D03*
X447548Y198628D03*
X65532Y513080D03*
X243840Y242570D03*
X311912Y185166D03*
X373696Y465774D03*
X322710Y197358D03*
X359918Y456438D03*
X298196Y196342D03*
X321594Y454946D03*
X220472Y331470D03*
X221996Y450088D03*
X389890Y513842D03*
X269240Y513080D03*
X309880Y289052D03*
X359664Y351282D03*
X322834Y276860D03*
X372322Y321978D03*
X347472Y276860D03*
X346922Y321978D03*
X265938Y365506D03*
X310134Y467868D03*
X165862Y72390D03*
X345440Y362204D03*
X221234Y313944D03*
X386842Y455930D03*
X268224Y90424D03*
X267716Y215646D03*
X358394Y218186D03*
X272542Y313182D03*
X305308Y627888D03*
X247618Y633984D03*
X303784Y598932D03*
X233172Y606806D03*
X406400Y337058D03*
X413004Y265684D03*
X446786Y325628D03*
X434086Y278130D03*
X283718Y499110D03*
X424180Y469138D03*
X411734Y512826D03*
X286766Y527050D03*
X453071Y238063D03*
X431292Y199898D03*
X257588Y165608D03*
X485394Y146558D03*
X257588Y149352D03*
X487680Y118110D03*
X257588Y133096D03*
X489966Y70104D03*
X257588Y107696D03*
X487934Y29718D03*
X85009Y658287D03*
X111760Y664210D03*
M02*
