M48
;GenerationSoftware,Autodesk,EAGLE,9.6.2*%
;CreationDate,2023-08-02T16:09:12Z*%
FMAT,2
ICI,OFF
METRIC,TZ,000.000
T4C0.305
T3C0.350
T2C0.600
T1C2.000
%
G90
M71
T1
X51537Y55220
X52121Y25298
X51537Y60020
X52197Y20879
X52375Y16510
X52324Y12014
X52349Y7595
X52299Y3175
T2
X4222Y69388
X10002Y69388
T3
X18800Y17620
X16370Y17460
X14280Y17490
X12730Y15060
X15990Y15330
X17950Y15350
X20350Y15440
X19100Y13460
X17250Y13720
X14800Y13400
X12290Y13170
X12400Y18350
X8890Y62650
X8930Y63930
X14940Y19720
X36400Y41910
X37670Y41920
X38890Y41900
X40470Y41890
X40060Y40930
X38420Y40910
X37130Y40960
X36390Y39890
X37860Y39920
X39400Y39940
X40600Y39920
X37290Y38790
X38660Y38810
X14010Y63930
X36550Y37760
X38010Y37710
X39450Y37680
X18040Y55630
X40590Y37740
X12630Y20060
X17600Y19660
X19530Y19550
X20840Y17610
X39950Y38930
T4
X14402Y60401
X22911Y22962
X46203Y28702
X45314Y8661
X29642Y72644
X29083Y46736
X2616Y63271
X2616Y61493
X5893Y47879
X26132Y5466
X46939Y53096
X12314Y37856
X16439Y44379
X13564Y69317
X44168Y53401
X44907Y46990
X4267Y47854
X4597Y37897
X15672Y38100
X17882Y42850
X31191Y58064
X34036Y20168
X17755Y71653
X21260Y73777
X6883Y69633
X6119Y57495
X5867Y64592
X4470Y56693
X13081Y50343
X13894Y47371
X7620Y46761
X5588Y42875
X5944Y38989
X9601Y39776
X15062Y41986
X44704Y44450
X48539Y22149
X29950Y44628
X10317Y60813
X29950Y43002
X8711Y60815
X8804Y52232
X26365Y24333
X46152Y22377
X44755Y19863
X6553Y51308
X24384Y24257
X31191Y18517
X37370Y46577
X32271Y19736
X35992Y45644
X29820Y19634
X32159Y45495
X22047Y33147
X22200Y45009
X38989Y51384
X26924Y51308
X30988Y28905
X35966Y35128
X32283Y27686
X37232Y32198
X34747Y27686
X34692Y32198
X26594Y36551
X31013Y46787
X16586Y7239
X34544Y36220
X22123Y31394
X24714Y9496
X26822Y9042
X26772Y21565
X35839Y21819
X27254Y31318
X30531Y62789
X24762Y63398
X30378Y59893
X23317Y60681
X40640Y33706
X41300Y26568
X44679Y32563
X43409Y27813
X28372Y49911
X42418Y46914
X41173Y51283
X28677Y52705
X45307Y23806
X43129Y19990
X38684Y45593
X48539Y14656
X25759Y14935
X48768Y11811
X25759Y13310
X48997Y7010
X25759Y10770
X48793Y2972
X8501Y65829
X11176Y66421
X11684Y27838
X15443Y25654
X17704Y73521
X26441Y71399
X30074Y74295
X18771Y67539
X39421Y60223
X28753Y59626
X31191Y56185
X25759Y16561
M30